<ttFont>
<head>
    <!-- Most of this table will be recalculated by the compiler -->
    <tableVersion value="1.0"/>
    <fontRevision value="1.0"/>
    <checkSumAdjustment value="0xeab63bcb"/>
    <magicNumber value="0x5f0f3cf5"/>
    <flags value="00000000 00011011"/>
    <unitsPerEm value="2048"/>
    <created value="Fri Feb  9 15:12:19 1996"/>
    <modified value="Thu Jun  6 00:55:51 2019"/>
    <xMin value="-355"/>
    <yMin value="-444"/>
    <xMax value="2389"/>
    <yMax value="1868"/>
    <macStyle value="00000000 00000000"/>
    <lowestRecPPEM value="9"/>
    <fontDirectionHint value="2"/>
    <indexToLocFormat value="0"/>
    <glyphDataFormat value="0"/>
  </head>
    <TTGlyph name=".notdef" xMin="256" yMin="0" xMax="1792" yMax="1536">
      <contour>
        <pt x="256" y="0" on="1"/>
        <pt x="256" y="1536" on="1"/>
        <pt x="1792" y="1536" on="1"/>
        <pt x="1792" y="0" on="1"/>
      </contour>
      <contour>
        <pt x="384" y="128" on="1"/>
        <pt x="1664" y="128" on="1"/>
        <pt x="1664" y="1408" on="1"/>
        <pt x="384" y="1408" on="1"/>
      </contour>
    </TTGlyph>
    <TTGlyph name="A" xMin="-41" yMin="0" xMax="1421" yMax="1439">
      <contour>
        <pt x="1421" y="0" on="1"/>
        <pt x="830" y="0" on="1"/>
        <pt x="830" y="71" on="1"/>
        <pt x="908" y="76" on="0"/>
        <pt x="1011" y="106" on="0"/>
        <pt x="1011" y="128" on="1"/>
        <pt x="1011" y="137" on="0"/>
        <pt x="1007" y="163" on="0"/>
        <pt x="1003" y="173" on="1"/>
        <pt x="885" y="491" on="1"/>
        <pt x="388" y="491" on="1"/>
        <pt x="360" y="421" on="0"/>
        <pt x="325" y="317" on="0"/>
        <pt x="311" y="273" on="1"/>
        <pt x="298" y="230" on="0"/>
        <pt x="288" y="176" on="0"/>
        <pt x="288" y="159" on="1"/>
        <pt x="288" y="119" on="0"/>
        <pt x="414" y="75" on="0"/>
        <pt x="493" y="71" on="1"/>
        <pt x="493" y="0" on="1"/>
        <pt x="-41" y="0" on="1"/>
        <pt x="-41" y="71" on="1"/>
        <pt x="-15" y="73" on="0"/>
        <pt x="63" y="92" on="0"/>
        <pt x="88" y="108" on="1"/>
        <pt x="128" y="135" on="0"/>
        <pt x="172" y="194" on="0"/>
        <pt x="193" y="246" on="1"/>
        <pt x="300" y="513" on="0"/>
        <pt x="558" y="1179" on="0"/>
        <pt x="659" y="1439" on="1"/>
        <pt x="739" y="1439" on="1"/>
        <pt x="1212" y="215" on="1"/>
        <pt x="1227" y="176" on="0"/>
        <pt x="1265" y="128" on="0"/>
        <pt x="1299" y="105" on="1"/>
        <pt x="1322" y="91" on="0"/>
        <pt x="1396" y="72" on="0"/>
        <pt x="1421" y="71" on="1"/>
      </contour>
      <contour>
        <pt x="849" y="580" on="1"/>
        <pt x="634" y="1130" on="1"/>
        <pt x="423" y="580" on="1"/>
      </contour>
    </TTGlyph>
    <TTGlyph name="AE" xMin="-97" yMin="0" xMax="1941" yMax="1419">
      <contour>
        <pt x="1941" y="418" on="1"/>
        <pt x="1914" y="0" on="1"/>
        <pt x="746" y="0" on="1"/>
        <pt x="746" y="71" on="1"/>
        <pt x="770" y="73" on="0"/>
        <pt x="871" y="84" on="0"/>
        <pt x="891" y="93" on="1"/>
        <pt x="923" y="108" on="0"/>
        <pt x="948" y="156" on="0"/>
        <pt x="948" y="193" on="1"/>
        <pt x="948" y="602" on="1"/>
        <pt x="468" y="602" on="1"/>
        <pt x="425" y="531" on="0"/>
        <pt x="350" y="394" on="0"/>
        <pt x="289" y="270" on="1"/>
        <pt x="276" y="245" on="0"/>
        <pt x="258" y="193" on="0"/>
        <pt x="258" y="170" on="1"/>
        <pt x="258" y="125" on="0"/>
        <pt x="343" y="76" on="0"/>
        <pt x="426" y="71" on="1"/>
        <pt x="426" y="0" on="1"/>
        <pt x="-97" y="0" on="1"/>
        <pt x="-97" y="71" on="1"/>
        <pt x="-69" y="73" on="0"/>
        <pt x="8" y="95" on="0"/>
        <pt x="33" y="109" on="1"/>
        <pt x="68" y="129" on="0"/>
        <pt x="129" y="200" on="0"/>
        <pt x="154" y="244" on="1"/>
        <pt x="308" y="509" on="0"/>
        <pt x="606" y="1037" on="0"/>
        <pt x="766" y="1326" on="1"/>
        <pt x="741" y="1335" on="0"/>
        <pt x="637" y="1346" on="0"/>
        <pt x="596" y="1348" on="1"/>
        <pt x="596" y="1419" on="1"/>
        <pt x="1834" y="1419" on="1"/>
        <pt x="1834" y="1077" on="1"/>
        <pt x="1759" y="1077" on="1"/>
        <pt x="1740" y="1153" on="0"/>
        <pt x="1606" y="1324" on="0"/>
        <pt x="1546" y="1332" on="1"/>
        <pt x="1515" y="1336" on="0"/>
        <pt x="1429" y="1340" on="0"/>
        <pt x="1374" y="1340" on="1"/>
        <pt x="1161" y="1340" on="1"/>
        <pt x="1161" y="776" on="1"/>
        <pt x="1311" y="776" on="1"/>
        <pt x="1387" y="776" on="0"/>
        <pt x="1460" y="805" on="0"/>
        <pt x="1486" y="839" on="1"/>
        <pt x="1508" y="868" on="0"/>
        <pt x="1539" y="965" on="0"/>
        <pt x="1544" y="1008" on="1"/>
        <pt x="1619" y="1008" on="1"/>
        <pt x="1619" y="453" on="1"/>
        <pt x="1544" y="453" on="1"/>
        <pt x="1540" y="501" on="0"/>
        <pt x="1505" y="608" on="0"/>
        <pt x="1486" y="632" on="1"/>
        <pt x="1455" y="671" on="0"/>
        <pt x="1377" y="695" on="0"/>
        <pt x="1311" y="695" on="1"/>
        <pt x="1161" y="695" on="1"/>
        <pt x="1161" y="269" on="1"/>
        <pt x="1161" y="205" on="0"/>
        <pt x="1179" y="131" on="0"/>
        <pt x="1205" y="112" on="1"/>
        <pt x="1232" y="93" on="0"/>
        <pt x="1321" y="82" on="0"/>
        <pt x="1404" y="82" on="1"/>
        <pt x="1437" y="82" on="0"/>
        <pt x="1542" y="82" on="0"/>
        <pt x="1577" y="86" on="1"/>
        <pt x="1618" y="91" on="0"/>
        <pt x="1691" y="110" on="0"/>
        <pt x="1708" y="129" on="1"/>
        <pt x="1754" y="177" on="0"/>
        <pt x="1855" y="372" on="0"/>
        <pt x="1869" y="418" on="1"/>
      </contour>
      <contour>
        <pt x="948" y="690" on="1"/>
        <pt x="948" y="1331" on="1"/>
        <pt x="871" y="1331" on="1"/>
        <pt x="517" y="690" on="1"/>
      </contour>
    </TTGlyph>
    <TTGlyph name="AEacute" xMin="-97" yMin="0" xMax="1941" yMax="1868">
      <component glyphName="AE" x="0" y="0" flags="0x214"/>
      <component glyphName="Acute" x="790" y="0" flags="0x14"/>
    </TTGlyph>
    <TTGlyph name="Aacute" xMin="-41" yMin="0" xMax="1421" yMax="1868">
      <component glyphName="A" x="0" y="0" flags="0x214"/>
      <component glyphName="Acute" x="260" y="0" flags="0x14"/>
    </TTGlyph>
    <TTGlyph name="Abreve" xMin="-41" yMin="0" xMax="1421" yMax="1867">
      <component glyphName="A" x="0" y="0" flags="0x214"/>
      <component glyphName="Breve" x="186" y="0" flags="0x14"/>
    </TTGlyph>
    <TTGlyph name="Acircumflex" xMin="-41" yMin="0" xMax="1421" yMax="1868">
      <component glyphName="A" x="0" y="0" flags="0x214"/>
      <component glyphName="Circumflex" x="189" y="0" flags="0x14"/>
    </TTGlyph>
    <TTGlyph name="Acute" xMin="256" yMin="1507" xMax="725" yMax="1868">
      <contour>
        <pt x="633" y="1675" on="1"/>
        <pt x="589" y="1653" on="0"/>
        <pt x="404" y="1564" on="0"/>
        <pt x="287" y="1507" on="1"/>
        <pt x="256" y="1546" on="1"/>
        <pt x="347" y="1633" on="0"/>
        <pt x="462" y="1746" on="0"/>
        <pt x="518" y="1805" on="1"/>
        <pt x="550" y="1839" on="0"/>
        <pt x="603" y="1868" on="0"/>
        <pt x="633" y="1868" on="1"/>
        <pt x="671" y="1868" on="0"/>
        <pt x="725" y="1822" on="0"/>
        <pt x="725" y="1788" on="1"/>
        <pt x="725" y="1745" on="0"/>
        <pt x="673" y="1695" on="0"/>
      </contour>
    </TTGlyph>
    <TTGlyph name="Adieresis" xMin="-41" yMin="0" xMax="1421" yMax="1841">
      <component glyphName="A" x="0" y="0" flags="0x214"/>
      <component glyphName="Dieresis" x="183" y="-12" flags="0x14"/>
    </TTGlyph>
    <TTGlyph name="Agrave" xMin="-41" yMin="0" xMax="1421" yMax="1868">
      <component glyphName="A" x="0" y="0" flags="0x214"/>
      <component glyphName="Grave" x="171" y="0" flags="0x14"/>
    </TTGlyph>
    <TTGlyph name="Alpha" xMin="-41" yMin="0" xMax="1421" yMax="1439">
      <component glyphName="A" x="0" y="0" flags="0x214"/>
    </TTGlyph>
    <TTGlyph name="Alphatonos" xMin="-31" yMin="0" xMax="1431" yMax="1489">
      <component glyphName="A" x="10" y="0" flags="0x14"/>
      <component glyphName="tonos" x="-340" y="-69" flags="0x14"/>
    </TTGlyph>
    <TTGlyph name="Amacron" xMin="-41" yMin="0" xMax="1421" yMax="1773">
      <component glyphName="A" x="0" y="0" flags="0x214"/>
      <component glyphName="macron" x="188" y="354" flags="0x14"/>
    </TTGlyph>
    <TTGlyph name="Aogonek" xMin="-41" yMin="-444" xMax="1421" yMax="1439">
      <contour>
        <pt x="1114" y="0" on="1"/>
        <pt x="830" y="0" on="1"/>
        <pt x="830" y="71" on="1"/>
        <pt x="908" y="76" on="0"/>
        <pt x="1011" y="106" on="0"/>
        <pt x="1011" y="128" on="1"/>
        <pt x="1011" y="137" on="0"/>
        <pt x="1007" y="163" on="0"/>
        <pt x="1003" y="173" on="1"/>
        <pt x="885" y="491" on="1"/>
        <pt x="388" y="491" on="1"/>
        <pt x="360" y="421" on="0"/>
        <pt x="325" y="317" on="0"/>
        <pt x="311" y="273" on="1"/>
        <pt x="298" y="230" on="0"/>
        <pt x="288" y="176" on="0"/>
        <pt x="288" y="159" on="1"/>
        <pt x="288" y="119" on="0"/>
        <pt x="414" y="75" on="0"/>
        <pt x="493" y="71" on="1"/>
        <pt x="493" y="0" on="1"/>
        <pt x="-41" y="0" on="1"/>
        <pt x="-41" y="71" on="1"/>
        <pt x="-15" y="73" on="0"/>
        <pt x="63" y="92" on="0"/>
        <pt x="88" y="108" on="1"/>
        <pt x="128" y="135" on="0"/>
        <pt x="172" y="194" on="0"/>
        <pt x="193" y="246" on="1"/>
        <pt x="300" y="513" on="0"/>
        <pt x="558" y="1179" on="0"/>
        <pt x="659" y="1439" on="1"/>
        <pt x="739" y="1439" on="1"/>
        <pt x="1212" y="215" on="1"/>
        <pt x="1227" y="176" on="0"/>
        <pt x="1265" y="128" on="0"/>
        <pt x="1299" y="105" on="1"/>
        <pt x="1322" y="91" on="0"/>
        <pt x="1396" y="72" on="0"/>
        <pt x="1421" y="71" on="1"/>
        <pt x="1421" y="0" on="1"/>
        <pt x="1191" y="0" on="1"/>
        <pt x="1145" y="-44" on="0"/>
        <pt x="1098" y="-148" on="0"/>
        <pt x="1098" y="-217" on="1"/>
        <pt x="1098" y="-253" on="0"/>
        <pt x="1117" y="-308" on="0"/>
        <pt x="1143" y="-329" on="1"/>
        <pt x="1169" y="-351" on="0"/>
        <pt x="1258" y="-373" on="0"/>
        <pt x="1322" y="-372" on="1"/>
        <pt x="1322" y="-444" on="1"/>
        <pt x="1207" y="-444" on="1"/>
        <pt x="1079" y="-444" on="0"/>
        <pt x="940" y="-339" on="0"/>
        <pt x="940" y="-250" on="1"/>
        <pt x="940" y="-188" on="0"/>
        <pt x="1026" y="-61" on="0"/>
      </contour>
      <contour>
        <pt x="849" y="580" on="1"/>
        <pt x="634" y="1130" on="1"/>
        <pt x="423" y="580" on="1"/>
      </contour>
    </TTGlyph>
    <TTGlyph name="Aring" xMin="-41" yMin="0" xMax="1421" yMax="1868">
      <contour>
        <pt x="1421" y="0" on="1"/>
        <pt x="830" y="0" on="1"/>
        <pt x="830" y="71" on="1"/>
        <pt x="908" y="76" on="0"/>
        <pt x="1011" y="106" on="0"/>
        <pt x="1011" y="128" on="1"/>
        <pt x="1011" y="137" on="0"/>
        <pt x="1007" y="163" on="0"/>
        <pt x="1003" y="173" on="1"/>
        <pt x="885" y="491" on="1"/>
        <pt x="388" y="491" on="1"/>
        <pt x="360" y="421" on="0"/>
        <pt x="325" y="317" on="0"/>
        <pt x="311" y="273" on="1"/>
        <pt x="298" y="231" on="0"/>
        <pt x="288" y="176" on="0"/>
        <pt x="288" y="159" on="1"/>
        <pt x="288" y="119" on="0"/>
        <pt x="414" y="75" on="0"/>
        <pt x="493" y="71" on="1"/>
        <pt x="493" y="0" on="1"/>
        <pt x="-41" y="0" on="1"/>
        <pt x="-41" y="71" on="1"/>
        <pt x="-15" y="73" on="0"/>
        <pt x="64" y="92" on="0"/>
        <pt x="88" y="108" on="1"/>
        <pt x="128" y="135" on="0"/>
        <pt x="172" y="194" on="0"/>
        <pt x="193" y="246" on="1"/>
        <pt x="295" y="501" on="0"/>
        <pt x="544" y="1145" on="0"/>
        <pt x="654" y="1425" on="1"/>
        <pt x="553" y="1437" on="0"/>
        <pt x="439" y="1556" on="0"/>
        <pt x="439" y="1646" on="1"/>
        <pt x="439" y="1744" on="0"/>
        <pt x="589" y="1868" on="0"/>
        <pt x="697" y="1868" on="1"/>
        <pt x="809" y="1868" on="0"/>
        <pt x="955" y="1747" on="0"/>
        <pt x="955" y="1646" on="1"/>
        <pt x="955" y="1560" on="0"/>
        <pt x="839" y="1438" on="0"/>
        <pt x="744" y="1426" on="1"/>
        <pt x="1212" y="215" on="1"/>
        <pt x="1227" y="176" on="0"/>
        <pt x="1265" y="128" on="0"/>
        <pt x="1299" y="105" on="1"/>
        <pt x="1321" y="90" on="0"/>
        <pt x="1396" y="72" on="0"/>
        <pt x="1421" y="71" on="1"/>
      </contour>
      <contour>
        <pt x="849" y="580" on="1"/>
        <pt x="634" y="1130" on="1"/>
        <pt x="423" y="580" on="1"/>
      </contour>
      <contour>
        <pt x="829" y="1646" on="1"/>
        <pt x="829" y="1714" on="0"/>
        <pt x="762" y="1804" on="0"/>
        <pt x="697" y="1804" on="1"/>
        <pt x="634" y="1804" on="0"/>
        <pt x="565" y="1718" on="0"/>
        <pt x="565" y="1646" on="1"/>
        <pt x="565" y="1577" on="0"/>
        <pt x="633" y="1485" on="0"/>
        <pt x="697" y="1485" on="1"/>
        <pt x="761" y="1485" on="0"/>
        <pt x="829" y="1576" on="0"/>
      </contour>
    </TTGlyph>
    <TTGlyph name="Aringacute" xMin="-41" yMin="0" xMax="1421" yMax="1868">
      <contour>
        <pt x="1421" y="0" on="1"/>
        <pt x="830" y="0" on="1"/>
        <pt x="830" y="71" on="1"/>
        <pt x="908" y="76" on="0"/>
        <pt x="1011" y="106" on="0"/>
        <pt x="1011" y="128" on="1"/>
        <pt x="1011" y="137" on="0"/>
        <pt x="1007" y="163" on="0"/>
        <pt x="1003" y="173" on="1"/>
        <pt x="871" y="491" on="1"/>
        <pt x="401" y="491" on="1"/>
        <pt x="372" y="421" on="0"/>
        <pt x="325" y="313" on="0"/>
        <pt x="311" y="269" on="1"/>
        <pt x="298" y="228" on="0"/>
        <pt x="288" y="176" on="0"/>
        <pt x="288" y="159" on="1"/>
        <pt x="288" y="119" on="0"/>
        <pt x="414" y="75" on="0"/>
        <pt x="493" y="71" on="1"/>
        <pt x="493" y="0" on="1"/>
        <pt x="-41" y="0" on="1"/>
        <pt x="-41" y="71" on="1"/>
        <pt x="-15" y="73" on="0"/>
        <pt x="64" y="92" on="0"/>
        <pt x="88" y="108" on="1"/>
        <pt x="128" y="135" on="0"/>
        <pt x="174" y="195" on="0"/>
        <pt x="196" y="246" on="1"/>
        <pt x="291" y="470" on="0"/>
        <pt x="523" y="1015" on="0"/>
        <pt x="610" y="1225" on="1"/>
        <pt x="541" y="1242" on="0"/>
        <pt x="439" y="1344" on="0"/>
        <pt x="439" y="1431" on="1"/>
        <pt x="439" y="1488" on="0"/>
        <pt x="500" y="1581" on="0"/>
        <pt x="551" y="1609" on="1"/>
        <pt x="612" y="1657" on="0"/>
        <pt x="742" y="1766" on="0"/>
        <pt x="799" y="1815" on="1"/>
        <pt x="830" y="1842" on="0"/>
        <pt x="882" y="1868" on="0"/>
        <pt x="906" y="1868" on="1"/>
        <pt x="951" y="1868" on="0"/>
        <pt x="1003" y="1821" on="0"/>
        <pt x="1003" y="1787" on="1"/>
        <pt x="1003" y="1743" on="0"/>
        <pt x="950" y="1693" on="0"/>
        <pt x="900" y="1675" on="1"/>
        <pt x="870" y="1665" on="0"/>
        <pt x="817" y="1644" on="0"/>
        <pt x="783" y="1632" on="1"/>
        <pt x="860" y="1612" on="0"/>
        <pt x="955" y="1503" on="0"/>
        <pt x="955" y="1431" on="1"/>
        <pt x="955" y="1347" on="0"/>
        <pt x="855" y="1243" on="0"/>
        <pt x="786" y="1227" on="1"/>
        <pt x="1211" y="215" on="1"/>
        <pt x="1228" y="175" on="0"/>
        <pt x="1265" y="128" on="0"/>
        <pt x="1299" y="105" on="1"/>
        <pt x="1321" y="90" on="0"/>
        <pt x="1396" y="72" on="0"/>
        <pt x="1421" y="71" on="1"/>
      </contour>
      <contour>
        <pt x="834" y="580" on="1"/>
        <pt x="637" y="1047" on="1"/>
        <pt x="439" y="580" on="1"/>
      </contour>
      <contour>
        <pt x="829" y="1431" on="1"/>
        <pt x="829" y="1492" on="0"/>
        <pt x="762" y="1579" on="0"/>
        <pt x="697" y="1579" on="1"/>
        <pt x="634" y="1579" on="0"/>
        <pt x="565" y="1496" on="0"/>
        <pt x="565" y="1431" on="1"/>
        <pt x="565" y="1369" on="0"/>
        <pt x="633" y="1280" on="0"/>
        <pt x="697" y="1280" on="1"/>
        <pt x="761" y="1280" on="0"/>
        <pt x="829" y="1368" on="0"/>
      </contour>
    </TTGlyph>
    <TTGlyph name="Atilde" xMin="-41" yMin="0" xMax="1421" yMax="1848">
      <component glyphName="A" x="0" y="0" flags="0x214"/>
      <component glyphName="tilde" x="193" y="358" flags="0x14"/>
    </TTGlyph>
    <TTGlyph name="B" xMin="95" yMin="0" xMax="1248" yMax="1419">
      <contour>
        <pt x="1104" y="661" on="1"/>
        <pt x="1166" y="619" on="0"/>
        <pt x="1248" y="483" on="0"/>
        <pt x="1248" y="386" on="1"/>
        <pt x="1248" y="287" on="0"/>
        <pt x="1162" y="141" on="0"/>
        <pt x="1093" y="94" on="1"/>
        <pt x="1026" y="48" on="0"/>
        <pt x="857" y="0" on="0"/>
        <pt x="767" y="0" on="1"/>
        <pt x="95" y="0" on="1"/>
        <pt x="95" y="71" on="1"/>
        <pt x="119" y="73" on="0"/>
        <pt x="211" y="86" on="0"/>
        <pt x="231" y="95" on="1"/>
        <pt x="262" y="109" on="0"/>
        <pt x="288" y="156" on="0"/>
        <pt x="288" y="193" on="1"/>
        <pt x="288" y="1213" on="1"/>
        <pt x="288" y="1247" on="0"/>
        <pt x="265" y="1299" on="0"/>
        <pt x="231" y="1315" on="1"/>
        <pt x="201" y="1330" on="0"/>
        <pt x="127" y="1346" on="0"/>
        <pt x="102" y="1348" on="1"/>
        <pt x="102" y="1419" on="1"/>
        <pt x="757" y="1419" on="1"/>
        <pt x="833" y="1419" on="0"/>
        <pt x="972" y="1389" on="0"/>
        <pt x="1035" y="1351" on="1"/>
        <pt x="1094" y="1316" on="0"/>
        <pt x="1170" y="1196" on="0"/>
        <pt x="1170" y="1110" on="1"/>
        <pt x="1170" y="1035" on="0"/>
        <pt x="1116" y="918" on="0"/>
        <pt x="1067" y="876" on="1"/>
        <pt x="1021" y="836" on="0"/>
        <pt x="902" y="781" on="0"/>
        <pt x="833" y="766" on="1"/>
        <pt x="833" y="757" on="1"/>
        <pt x="894" y="750" on="0"/>
        <pt x="1045" y="703" on="0"/>
      </contour>
      <contour>
        <pt x="863" y="875" on="1"/>
        <pt x="900" y="918" on="0"/>
        <pt x="929" y="1020" on="0"/>
        <pt x="929" y="1090" on="1"/>
        <pt x="929" y="1207" on="0"/>
        <pt x="801" y="1340" on="0"/>
        <pt x="663" y="1340" on="1"/>
        <pt x="631" y="1340" on="0"/>
        <pt x="534" y="1337" on="0"/>
        <pt x="501" y="1336" on="1"/>
        <pt x="501" y="791" on="1"/>
        <pt x="628" y="791" on="1"/>
        <pt x="710" y="791" on="0"/>
        <pt x="827" y="833" on="0"/>
      </contour>
      <contour>
        <pt x="1001" y="422" on="1"/>
        <pt x="1001" y="548" on="0"/>
        <pt x="832" y="710" on="0"/>
        <pt x="675" y="710" on="1"/>
        <pt x="611" y="710" on="0"/>
        <pt x="523" y="707" on="0"/>
        <pt x="501" y="706" on="1"/>
        <pt x="501" y="206" on="1"/>
        <pt x="501" y="143" on="0"/>
        <pt x="603" y="79" on="0"/>
        <pt x="694" y="79" on="1"/>
        <pt x="843" y="79" on="0"/>
        <pt x="1001" y="253" on="0"/>
      </contour>
    </TTGlyph>
    <TTGlyph name="Beta" xMin="95" yMin="0" xMax="1248" yMax="1419">
      <component glyphName="B" x="0" y="0" flags="0x214"/>
    </TTGlyph>
    <TTGlyph name="Breve" xMin="194" yMin="1530" xMax="830" yMax="1867">
      <contour>
        <pt x="830" y="1851" on="1"/>
        <pt x="803" y="1690" on="0"/>
        <pt x="647" y="1530" on="0"/>
        <pt x="512" y="1530" on="1"/>
        <pt x="380" y="1530" on="0"/>
        <pt x="219" y="1693" on="0"/>
        <pt x="194" y="1851" on="1"/>
        <pt x="249" y="1867" on="1"/>
        <pt x="278" y="1775" on="0"/>
        <pt x="398" y="1678" on="0"/>
        <pt x="512" y="1678" on="1"/>
        <pt x="626" y="1678" on="0"/>
        <pt x="746" y="1775" on="0"/>
        <pt x="775" y="1867" on="1"/>
      </contour>
    </TTGlyph>
    <TTGlyph name="C" xMin="78" yMin="-33" xMax="1289" yMax="1450">
      <contour>
        <pt x="723" y="-33" on="1"/>
        <pt x="596" y="-33" on="0"/>
        <pt x="363" y="67" on="0"/>
        <pt x="273" y="161" on="1"/>
        <pt x="184" y="255" on="0"/>
        <pt x="78" y="526" on="0"/>
        <pt x="78" y="696" on="1"/>
        <pt x="78" y="866" on="0"/>
        <pt x="182" y="1143" on="0"/>
        <pt x="274" y="1243" on="1"/>
        <pt x="365" y="1342" on="0"/>
        <pt x="613" y="1450" on="0"/>
        <pt x="754" y="1450" on="1"/>
        <pt x="859" y="1450" on="0"/>
        <pt x="1029" y="1398" on="0"/>
        <pt x="1106" y="1351" on="1"/>
        <pt x="1147" y="1419" on="1"/>
        <pt x="1227" y="1419" on="1"/>
        <pt x="1236" y="913" on="1"/>
        <pt x="1154" y="913" on="1"/>
        <pt x="1138" y="987" on="0"/>
        <pt x="1074" y="1160" on="0"/>
        <pt x="1031" y="1220" on="1"/>
        <pt x="983" y="1288" on="0"/>
        <pt x="851" y="1365" on="0"/>
        <pt x="766" y="1365" on="1"/>
        <pt x="669" y="1365" on="0"/>
        <pt x="502" y="1279" on="0"/>
        <pt x="441" y="1195" on="1"/>
        <pt x="383" y="1114" on="0"/>
        <pt x="317" y="864" on="0"/>
        <pt x="317" y="710" on="1"/>
        <pt x="317" y="574" on="0"/>
        <pt x="386" y="347" on="0"/>
        <pt x="450" y="261" on="1"/>
        <pt x="514" y="176" on="0"/>
        <pt x="689" y="80" on="0"/>
        <pt x="797" y="80" on="1"/>
        <pt x="878" y="80" on="0"/>
        <pt x="1014" y="131" on="0"/>
        <pt x="1064" y="173" on="1"/>
        <pt x="1114" y="217" on="0"/>
        <pt x="1190" y="329" on="0"/>
        <pt x="1214" y="395" on="1"/>
        <pt x="1289" y="359" on="1"/>
        <pt x="1203" y="148" on="0"/>
        <pt x="919" y="-33" on="0"/>
      </contour>
    </TTGlyph>
    <TTGlyph name="Cacute" xMin="78" yMin="-33" xMax="1289" yMax="1868">
      <component glyphName="C" x="0" y="0" flags="0x214"/>
      <component glyphName="Acute" x="246" y="0" flags="0x14"/>
    </TTGlyph>
    <TTGlyph name="Caron" xMin="187" yMin="1507" xMax="837" yMax="1868">
      <contour>
        <pt x="837" y="1836" on="1"/>
        <pt x="603" y="1552" on="1"/>
        <pt x="582" y="1526" on="0"/>
        <pt x="559" y="1507" on="0"/>
        <pt x="510" y="1507" on="1"/>
        <pt x="469" y="1507" on="0"/>
        <pt x="438" y="1529" on="0"/>
        <pt x="423" y="1548" on="1"/>
        <pt x="187" y="1836" on="1"/>
        <pt x="235" y="1868" on="1"/>
        <pt x="514" y="1654" on="1"/>
        <pt x="789" y="1868" on="1"/>
      </contour>
    </TTGlyph>
    <TTGlyph name="Ccaron" xMin="78" yMin="-33" xMax="1289" yMax="1868">
      <component glyphName="C" x="0" y="0" flags="0x214"/>
      <component glyphName="Caron" x="238" y="0" flags="0x14"/>
    </TTGlyph>
    <TTGlyph name="Ccedilla" xMin="78" yMin="-444" xMax="1289" yMax="1450">
      <contour>
        <pt x="669" y="-30" on="1"/>
        <pt x="558" y="-21" on="0"/>
        <pt x="353" y="77" on="0"/>
        <pt x="273" y="161" on="1"/>
        <pt x="184" y="255" on="0"/>
        <pt x="78" y="526" on="0"/>
        <pt x="78" y="696" on="1"/>
        <pt x="78" y="866" on="0"/>
        <pt x="182" y="1143" on="0"/>
        <pt x="274" y="1243" on="1"/>
        <pt x="365" y="1342" on="0"/>
        <pt x="613" y="1450" on="0"/>
        <pt x="754" y="1450" on="1"/>
        <pt x="859" y="1450" on="0"/>
        <pt x="1029" y="1398" on="0"/>
        <pt x="1106" y="1351" on="1"/>
        <pt x="1147" y="1419" on="1"/>
        <pt x="1227" y="1419" on="1"/>
        <pt x="1236" y="913" on="1"/>
        <pt x="1154" y="913" on="1"/>
        <pt x="1138" y="987" on="0"/>
        <pt x="1074" y="1160" on="0"/>
        <pt x="1031" y="1220" on="1"/>
        <pt x="983" y="1288" on="0"/>
        <pt x="851" y="1365" on="0"/>
        <pt x="766" y="1365" on="1"/>
        <pt x="669" y="1365" on="0"/>
        <pt x="502" y="1279" on="0"/>
        <pt x="441" y="1195" on="1"/>
        <pt x="383" y="1114" on="0"/>
        <pt x="317" y="864" on="0"/>
        <pt x="317" y="710" on="1"/>
        <pt x="317" y="574" on="0"/>
        <pt x="386" y="347" on="0"/>
        <pt x="450" y="261" on="1"/>
        <pt x="514" y="176" on="0"/>
        <pt x="689" y="80" on="0"/>
        <pt x="797" y="80" on="1"/>
        <pt x="878" y="80" on="0"/>
        <pt x="1014" y="131" on="0"/>
        <pt x="1064" y="173" on="1"/>
        <pt x="1114" y="217" on="0"/>
        <pt x="1190" y="329" on="0"/>
        <pt x="1214" y="395" on="1"/>
        <pt x="1289" y="359" on="1"/>
        <pt x="1207" y="155" on="0"/>
        <pt x="934" y="-26" on="0"/>
        <pt x="748" y="-32" on="1"/>
        <pt x="748" y="-99" on="1"/>
        <pt x="793" y="-99" on="0"/>
        <pt x="865" y="-110" on="0"/>
        <pt x="902" y="-129" on="1"/>
        <pt x="936" y="-145" on="0"/>
        <pt x="978" y="-204" on="0"/>
        <pt x="978" y="-248" on="1"/>
        <pt x="978" y="-306" on="0"/>
        <pt x="914" y="-386" on="0"/>
        <pt x="857" y="-408" on="1"/>
        <pt x="802" y="-428" on="0"/>
        <pt x="668" y="-444" on="0"/>
        <pt x="579" y="-444" on="1"/>
        <pt x="579" y="-372" on="1"/>
        <pt x="620" y="-372" on="0"/>
        <pt x="716" y="-370" on="0"/>
        <pt x="750" y="-362" on="1"/>
        <pt x="790" y="-353" on="0"/>
        <pt x="834" y="-316" on="0"/>
        <pt x="834" y="-282" on="1"/>
        <pt x="834" y="-258" on="0"/>
        <pt x="804" y="-227" on="0"/>
        <pt x="779" y="-219" on="1"/>
        <pt x="759" y="-212" on="0"/>
        <pt x="692" y="-207" on="0"/>
        <pt x="669" y="-207" on="1"/>
      </contour>
    </TTGlyph>
    <TTGlyph name="Ccircumflex" xMin="78" yMin="-33" xMax="1289" yMax="1868">
      <component glyphName="C" x="0" y="0" flags="0x214"/>
      <component glyphName="Circumflex" x="225" y="0" flags="0x14"/>
    </TTGlyph>
    <TTGlyph name="Cdotaccent" xMin="78" yMin="-33" xMax="1289" yMax="1864">
      <component glyphName="C" x="0" y="0" flags="0x214"/>
      <component glyphName="dotaccent" x="237" y="351" flags="0x14"/>
    </TTGlyph>
    <TTGlyph name="Chi" xMin="13" yMin="0" xMax="1457" yMax="1419">
      <component glyphName="X" x="0" y="0" flags="0x214"/>
    </TTGlyph>
    <TTGlyph name="Circumflex" xMin="187" yMin="1507" xMax="837" yMax="1868">
      <contour>
        <pt x="837" y="1539" on="1"/>
        <pt x="789" y="1507" on="1"/>
        <pt x="510" y="1719" on="1"/>
        <pt x="235" y="1507" on="1"/>
        <pt x="187" y="1539" on="1"/>
        <pt x="421" y="1823" on="1"/>
        <pt x="439" y="1845" on="0"/>
        <pt x="474" y="1868" on="0"/>
        <pt x="514" y="1868" on="1"/>
        <pt x="555" y="1868" on="0"/>
        <pt x="586" y="1846" on="0"/>
        <pt x="601" y="1827" on="1"/>
      </contour>
    </TTGlyph>
    <TTGlyph name="D" xMin="94" yMin="0" xMax="1457" yMax="1419">
      <contour>
        <pt x="1457" y="701" on="1"/>
        <pt x="1457" y="520" on="0"/>
        <pt x="1321" y="254" on="0"/>
        <pt x="1212" y="169" on="1"/>
        <pt x="1102" y="84" on="0"/>
        <pt x="828" y="0" on="0"/>
        <pt x="682" y="0" on="1"/>
        <pt x="94" y="0" on="1"/>
        <pt x="94" y="71" on="1"/>
        <pt x="123" y="71" on="0"/>
        <pt x="216" y="82" on="0"/>
        <pt x="231" y="89" on="1"/>
        <pt x="261" y="102" on="0"/>
        <pt x="288" y="153" on="0"/>
        <pt x="288" y="189" on="1"/>
        <pt x="288" y="1213" on="1"/>
        <pt x="288" y="1247" on="0"/>
        <pt x="265" y="1301" on="0"/>
        <pt x="231" y="1317" on="1"/>
        <pt x="200" y="1332" on="0"/>
        <pt x="128" y="1346" on="0"/>
        <pt x="102" y="1348" on="1"/>
        <pt x="102" y="1419" on="1"/>
        <pt x="722" y="1419" on="1"/>
        <pt x="850" y="1419" on="0"/>
        <pt x="1098" y="1340" on="0"/>
        <pt x="1190" y="1273" on="1"/>
        <pt x="1315" y="1184" on="0"/>
        <pt x="1457" y="896" on="0"/>
      </contour>
      <contour>
        <pt x="1212" y="702" on="1"/>
        <pt x="1212" y="845" on="0"/>
        <pt x="1136" y="1076" on="0"/>
        <pt x="1063" y="1162" on="1"/>
        <pt x="994" y="1244" on="0"/>
        <pt x="793" y="1338" on="0"/>
        <pt x="670" y="1338" on="1"/>
        <pt x="629" y="1338" on="0"/>
        <pt x="526" y="1335" on="0"/>
        <pt x="501" y="1334" on="1"/>
        <pt x="501" y="243" on="1"/>
        <pt x="501" y="152" on="0"/>
        <pt x="607" y="82" on="0"/>
        <pt x="717" y="82" on="1"/>
        <pt x="844" y="82" on="0"/>
        <pt x="1034" y="172" on="0"/>
        <pt x="1093" y="252" on="1"/>
        <pt x="1155" y="336" on="0"/>
        <pt x="1212" y="557" on="0"/>
      </contour>
    </TTGlyph>
    <TTGlyph name="Dcaron" xMin="94" yMin="0" xMax="1457" yMax="1868">
      <component glyphName="D" x="0" y="0" flags="0x214"/>
      <component glyphName="Caron" x="199" y="0" flags="0x14"/>
    </TTGlyph>
    <TTGlyph name="Dcroat" xMin="94" yMin="0" xMax="1457" yMax="1419">
      <component glyphName="Eth" x="0" y="0" flags="0x214"/>
    </TTGlyph>
    <TTGlyph name="Delta" xMin="19" yMin="0" xMax="1334" yMax="1439">
      <contour>
        <pt x="1334" y="0" on="1"/>
        <pt x="19" y="0" on="1"/>
        <pt x="19" y="50" on="1"/>
        <pt x="659" y="1439" on="1"/>
        <pt x="737" y="1439" on="1"/>
        <pt x="1334" y="50" on="1"/>
      </contour>
      <contour>
        <pt x="1052" y="172" on="1"/>
        <pt x="628" y="1164" on="1"/>
        <pt x="177" y="172" on="1"/>
      </contour>
    </TTGlyph>
    <TTGlyph name="Dieresis" xMin="169" yMin="1607" xMax="855" yMax="1853">
      <contour>
        <pt x="855" y="1730" on="1"/>
        <pt x="855" y="1679" on="0"/>
        <pt x="786" y="1607" on="0"/>
        <pt x="737" y="1607" on="1"/>
        <pt x="688" y="1607" on="0"/>
        <pt x="619" y="1679" on="0"/>
        <pt x="619" y="1730" on="1"/>
        <pt x="619" y="1781" on="0"/>
        <pt x="688" y="1853" on="0"/>
        <pt x="737" y="1853" on="1"/>
        <pt x="786" y="1853" on="0"/>
        <pt x="855" y="1781" on="0"/>
      </contour>
      <contour>
        <pt x="405" y="1730" on="1"/>
        <pt x="405" y="1679" on="0"/>
        <pt x="336" y="1607" on="0"/>
        <pt x="287" y="1607" on="1"/>
        <pt x="238" y="1607" on="0"/>
        <pt x="169" y="1679" on="0"/>
        <pt x="169" y="1730" on="1"/>
        <pt x="169" y="1781" on="0"/>
        <pt x="238" y="1853" on="0"/>
        <pt x="287" y="1853" on="1"/>
        <pt x="336" y="1853" on="0"/>
        <pt x="405" y="1781" on="0"/>
      </contour>
    </TTGlyph>
    <TTGlyph name="E" xMin="86" yMin="0" xMax="1291" yMax="1419">
      <contour>
        <pt x="1291" y="418" on="1"/>
        <pt x="1264" y="0" on="1"/>
        <pt x="86" y="0" on="1"/>
        <pt x="86" y="71" on="1"/>
        <pt x="116" y="73" on="0"/>
        <pt x="216" y="86" on="0"/>
        <pt x="231" y="93" on="1"/>
        <pt x="263" y="108" on="0"/>
        <pt x="288" y="156" on="0"/>
        <pt x="288" y="193" on="1"/>
        <pt x="288" y="1213" on="1"/>
        <pt x="288" y="1246" on="0"/>
        <pt x="266" y="1297" on="0"/>
        <pt x="231" y="1313" on="1"/>
        <pt x="204" y="1326" on="0"/>
        <pt x="113" y="1346" on="0"/>
        <pt x="86" y="1348" on="1"/>
        <pt x="86" y="1419" on="1"/>
        <pt x="1184" y="1419" on="1"/>
        <pt x="1184" y="1077" on="1"/>
        <pt x="1109" y="1077" on="1"/>
        <pt x="1089" y="1153" on="0"/>
        <pt x="956" y="1324" on="0"/>
        <pt x="896" y="1332" on="1"/>
        <pt x="865" y="1336" on="0"/>
        <pt x="779" y="1340" on="0"/>
        <pt x="724" y="1340" on="1"/>
        <pt x="501" y="1340" on="1"/>
        <pt x="501" y="776" on="1"/>
        <pt x="661" y="776" on="1"/>
        <pt x="738" y="776" on="0"/>
        <pt x="809" y="805" on="0"/>
        <pt x="836" y="839" on="1"/>
        <pt x="858" y="868" on="0"/>
        <pt x="889" y="965" on="0"/>
        <pt x="894" y="1008" on="1"/>
        <pt x="969" y="1008" on="1"/>
        <pt x="969" y="453" on="1"/>
        <pt x="894" y="453" on="1"/>
        <pt x="890" y="501" on="0"/>
        <pt x="855" y="608" on="0"/>
        <pt x="836" y="632" on="1"/>
        <pt x="805" y="671" on="0"/>
        <pt x="726" y="695" on="0"/>
        <pt x="661" y="695" on="1"/>
        <pt x="501" y="695" on="1"/>
        <pt x="501" y="269" on="1"/>
        <pt x="501" y="205" on="0"/>
        <pt x="519" y="131" on="0"/>
        <pt x="545" y="112" on="1"/>
        <pt x="571" y="93" on="0"/>
        <pt x="661" y="82" on="0"/>
        <pt x="744" y="82" on="1"/>
        <pt x="777" y="82" on="0"/>
        <pt x="885" y="82" on="0"/>
        <pt x="922" y="86" on="1"/>
        <pt x="960" y="90" on="0"/>
        <pt x="1041" y="111" on="0"/>
        <pt x="1058" y="129" on="1"/>
        <pt x="1104" y="177" on="0"/>
        <pt x="1205" y="372" on="0"/>
        <pt x="1219" y="418" on="1"/>
      </contour>
    </TTGlyph>
    <TTGlyph name="Eacute" xMin="86" yMin="0" xMax="1291" yMax="1868">
      <component glyphName="E" x="0" y="0" flags="0x214"/>
      <component glyphName="Acute" x="238" y="0" flags="0x14"/>
    </TTGlyph>
    <TTGlyph name="Ebreve" xMin="86" yMin="0" xMax="1291" yMax="1867">
      <component glyphName="E" x="0" y="0" flags="0x214"/>
      <component glyphName="Breve" x="207" y="0" flags="0x14"/>
    </TTGlyph>
    <TTGlyph name="Ecaron" xMin="86" yMin="0" xMax="1291" yMax="1868">
      <component glyphName="E" x="0" y="0" flags="0x214"/>
      <component glyphName="Caron" x="181" y="0" flags="0x14"/>
    </TTGlyph>
    <TTGlyph name="Ecircumflex" xMin="86" yMin="0" xMax="1291" yMax="1868">
      <component glyphName="E" x="0" y="0" flags="0x214"/>
      <component glyphName="Circumflex" x="167" y="0" flags="0x14"/>
    </TTGlyph>
    <TTGlyph name="Edieresis" xMin="86" yMin="0" xMax="1291" yMax="1853">
      <component glyphName="E" x="0" y="0" flags="0x214"/>
      <component glyphName="Dieresis" x="176" y="0" flags="0x14"/>
    </TTGlyph>
    <TTGlyph name="Edotaccent" xMin="86" yMin="0" xMax="1291" yMax="1864">
      <component glyphName="E" x="0" y="0" flags="0x214"/>
      <component glyphName="dotaccent" x="163" y="351" flags="0x14"/>
    </TTGlyph>
    <TTGlyph name="Egrave" xMin="86" yMin="0" xMax="1291" yMax="1868">
      <component glyphName="E" x="0" y="0" flags="0x214"/>
      <component glyphName="Grave" x="78" y="0" flags="0x14"/>
    </TTGlyph>
    <TTGlyph name="Emacron" xMin="86" yMin="0" xMax="1291" yMax="1785">
      <component glyphName="E" x="0" y="0" flags="0x214"/>
      <component glyphName="macron" x="207" y="366" flags="0x14"/>
    </TTGlyph>
    <TTGlyph name="Eng" xMin="24" yMin="-444" xMax="1554" yMax="1419">
      <contour>
        <pt x="863" y="-192" on="0"/>
        <pt x="908" y="-220" on="0"/>
        <pt x="924" y="-240" on="1"/>
        <pt x="939" y="-259" on="0"/>
        <pt x="977" y="-318" on="0"/>
        <pt x="997" y="-341" on="1"/>
        <pt x="1099" y="-337" on="0"/>
        <pt x="1224" y="-166" on="0"/>
        <pt x="1224" y="5" on="1"/>
        <pt x="377" y="1147" on="1"/>
        <pt x="377" y="415" on="1"/>
        <pt x="377" y="292" on="0"/>
        <pt x="408" y="160" on="0"/>
        <pt x="440" y="132" on="1"/>
        <pt x="463" y="110" on="0"/>
        <pt x="607" y="72" on="0"/>
        <pt x="630" y="71" on="1"/>
        <pt x="630" y="0" on="1"/>
        <pt x="48" y="0" on="1"/>
        <pt x="48" y="71" on="1"/>
        <pt x="75" y="73" on="0"/>
        <pt x="203" y="108" on="0"/>
        <pt x="219" y="122" on="1"/>
        <pt x="254" y="150" on="0"/>
        <pt x="280" y="265" on="0"/>
        <pt x="280" y="404" on="1"/>
        <pt x="280" y="1103" on="1"/>
        <pt x="280" y="1149" on="0"/>
        <pt x="248" y="1241" on="0"/>
        <pt x="221" y="1266" on="1"/>
        <pt x="185" y="1299" on="0"/>
        <pt x="62" y="1346" on="0"/>
        <pt x="24" y="1348" on="1"/>
        <pt x="24" y="1419" on="1"/>
        <pt x="429" y="1419" on="1"/>
        <pt x="1227" y="337" on="1"/>
        <pt x="1227" y="1012" on="1"/>
        <pt x="1227" y="1136" on="0"/>
        <pt x="1195" y="1269" on="0"/>
        <pt x="1165" y="1291" on="1"/>
        <pt x="1137" y="1310" on="0"/>
        <pt x="1010" y="1346" on="0"/>
        <pt x="977" y="1348" on="1"/>
        <pt x="977" y="1419" on="1"/>
        <pt x="1554" y="1419" on="1"/>
        <pt x="1554" y="1348" on="1"/>
        <pt x="1526" y="1347" on="0"/>
        <pt x="1410" y="1317" on="0"/>
        <pt x="1385" y="1301" on="1"/>
        <pt x="1349" y="1276" on="0"/>
        <pt x="1324" y="1134" on="0"/>
        <pt x="1324" y="1025" on="1"/>
        <pt x="1324" y="56" on="1"/>
        <pt x="1324" y="-186" on="0"/>
        <pt x="1114" y="-444" on="0"/>
        <pt x="917" y="-444" on="1"/>
        <pt x="823" y="-444" on="0"/>
        <pt x="717" y="-366" on="0"/>
        <pt x="717" y="-311" on="1"/>
        <pt x="717" y="-263" on="0"/>
        <pt x="776" y="-192" on="0"/>
        <pt x="827" y="-192" on="1"/>
      </contour>
    </TTGlyph>
    <TTGlyph name="Eogonek" xMin="86" yMin="-444" xMax="1291" yMax="1419">
      <contour>
        <pt x="906" y="-61" on="0"/>
        <pt x="994" y="0" on="1"/>
        <pt x="86" y="0" on="1"/>
        <pt x="86" y="71" on="1"/>
        <pt x="116" y="73" on="0"/>
        <pt x="216" y="86" on="0"/>
        <pt x="231" y="93" on="1"/>
        <pt x="263" y="108" on="0"/>
        <pt x="288" y="156" on="0"/>
        <pt x="288" y="193" on="1"/>
        <pt x="288" y="1213" on="1"/>
        <pt x="288" y="1246" on="0"/>
        <pt x="266" y="1297" on="0"/>
        <pt x="231" y="1313" on="1"/>
        <pt x="204" y="1326" on="0"/>
        <pt x="113" y="1346" on="0"/>
        <pt x="86" y="1348" on="1"/>
        <pt x="86" y="1419" on="1"/>
        <pt x="1184" y="1419" on="1"/>
        <pt x="1184" y="1077" on="1"/>
        <pt x="1109" y="1077" on="1"/>
        <pt x="1089" y="1153" on="0"/>
        <pt x="956" y="1324" on="0"/>
        <pt x="896" y="1332" on="1"/>
        <pt x="865" y="1336" on="0"/>
        <pt x="779" y="1340" on="0"/>
        <pt x="724" y="1340" on="1"/>
        <pt x="501" y="1340" on="1"/>
        <pt x="501" y="776" on="1"/>
        <pt x="661" y="776" on="1"/>
        <pt x="738" y="776" on="0"/>
        <pt x="809" y="805" on="0"/>
        <pt x="836" y="839" on="1"/>
        <pt x="858" y="868" on="0"/>
        <pt x="889" y="965" on="0"/>
        <pt x="894" y="1008" on="1"/>
        <pt x="969" y="1008" on="1"/>
        <pt x="969" y="453" on="1"/>
        <pt x="894" y="453" on="1"/>
        <pt x="890" y="501" on="0"/>
        <pt x="855" y="608" on="0"/>
        <pt x="836" y="632" on="1"/>
        <pt x="805" y="671" on="0"/>
        <pt x="726" y="695" on="0"/>
        <pt x="661" y="695" on="1"/>
        <pt x="501" y="695" on="1"/>
        <pt x="501" y="269" on="1"/>
        <pt x="501" y="205" on="0"/>
        <pt x="519" y="131" on="0"/>
        <pt x="545" y="112" on="1"/>
        <pt x="571" y="93" on="0"/>
        <pt x="661" y="82" on="0"/>
        <pt x="744" y="82" on="1"/>
        <pt x="777" y="82" on="0"/>
        <pt x="885" y="82" on="0"/>
        <pt x="922" y="86" on="1"/>
        <pt x="960" y="90" on="0"/>
        <pt x="1041" y="111" on="0"/>
        <pt x="1058" y="129" on="1"/>
        <pt x="1104" y="177" on="0"/>
        <pt x="1205" y="372" on="0"/>
        <pt x="1219" y="418" on="1"/>
        <pt x="1291" y="418" on="1"/>
        <pt x="1264" y="0" on="1"/>
        <pt x="1071" y="0" on="1"/>
        <pt x="1025" y="-44" on="0"/>
        <pt x="978" y="-148" on="0"/>
        <pt x="978" y="-217" on="1"/>
        <pt x="978" y="-253" on="0"/>
        <pt x="997" y="-308" on="0"/>
        <pt x="1023" y="-329" on="1"/>
        <pt x="1049" y="-351" on="0"/>
        <pt x="1138" y="-373" on="0"/>
        <pt x="1202" y="-372" on="1"/>
        <pt x="1202" y="-444" on="1"/>
        <pt x="1087" y="-444" on="1"/>
        <pt x="959" y="-444" on="0"/>
        <pt x="820" y="-339" on="0"/>
        <pt x="820" y="-250" on="1"/>
        <pt x="820" y="-188" on="0"/>
      </contour>
    </TTGlyph>
    <TTGlyph name="Epsilon" xMin="86" yMin="0" xMax="1291" yMax="1419">
      <component glyphName="E" x="0" y="0" flags="0x214"/>
    </TTGlyph>
    <TTGlyph name="Epsilontonos" xMin="0" yMin="0" xMax="1588" yMax="1489">
      <component glyphName="E" x="297" y="0" flags="0x14"/>
      <component glyphName="tonos" x="-370" y="-69" flags="0x14"/>
    </TTGlyph>
    <TTGlyph name="Eta" xMin="98" yMin="0" xMax="1567" yMax="1419">
      <component glyphName="H" x="0" y="0" flags="0x214"/>
    </TTGlyph>
    <TTGlyph name="Etatonos" xMin="0" yMin="0" xMax="1864" yMax="1489">
      <component glyphName="H" x="297" y="0" flags="0x14"/>
      <component glyphName="tonos" x="-370" y="-69" flags="0x14"/>
    </TTGlyph>
    <TTGlyph name="Eth" xMin="94" yMin="0" xMax="1457" yMax="1419">
      <contour>
        <pt x="1457" y="701" on="1"/>
        <pt x="1457" y="520" on="0"/>
        <pt x="1321" y="254" on="0"/>
        <pt x="1212" y="169" on="1"/>
        <pt x="1102" y="84" on="0"/>
        <pt x="828" y="0" on="0"/>
        <pt x="682" y="0" on="1"/>
        <pt x="94" y="0" on="1"/>
        <pt x="94" y="71" on="1"/>
        <pt x="123" y="71" on="0"/>
        <pt x="216" y="82" on="0"/>
        <pt x="231" y="89" on="1"/>
        <pt x="261" y="102" on="0"/>
        <pt x="288" y="153" on="0"/>
        <pt x="288" y="189" on="1"/>
        <pt x="288" y="701" on="1"/>
        <pt x="102" y="701" on="1"/>
        <pt x="102" y="799" on="1"/>
        <pt x="288" y="799" on="1"/>
        <pt x="288" y="1213" on="1"/>
        <pt x="288" y="1247" on="0"/>
        <pt x="265" y="1301" on="0"/>
        <pt x="231" y="1317" on="1"/>
        <pt x="200" y="1332" on="0"/>
        <pt x="128" y="1346" on="0"/>
        <pt x="102" y="1348" on="1"/>
        <pt x="102" y="1419" on="1"/>
        <pt x="722" y="1419" on="1"/>
        <pt x="850" y="1419" on="0"/>
        <pt x="1098" y="1340" on="0"/>
        <pt x="1190" y="1273" on="1"/>
        <pt x="1315" y="1184" on="0"/>
        <pt x="1457" y="896" on="0"/>
      </contour>
      <contour>
        <pt x="1212" y="702" on="1"/>
        <pt x="1212" y="845" on="0"/>
        <pt x="1136" y="1076" on="0"/>
        <pt x="1063" y="1162" on="1"/>
        <pt x="994" y="1244" on="0"/>
        <pt x="793" y="1338" on="0"/>
        <pt x="670" y="1338" on="1"/>
        <pt x="629" y="1338" on="0"/>
        <pt x="526" y="1335" on="0"/>
        <pt x="501" y="1334" on="1"/>
        <pt x="501" y="799" on="1"/>
        <pt x="802" y="799" on="1"/>
        <pt x="802" y="701" on="1"/>
        <pt x="501" y="701" on="1"/>
        <pt x="501" y="243" on="1"/>
        <pt x="501" y="152" on="0"/>
        <pt x="607" y="82" on="0"/>
        <pt x="717" y="82" on="1"/>
        <pt x="844" y="82" on="0"/>
        <pt x="1034" y="172" on="0"/>
        <pt x="1093" y="252" on="1"/>
        <pt x="1155" y="336" on="0"/>
        <pt x="1212" y="557" on="0"/>
      </contour>
    </TTGlyph>
    <TTGlyph name="Euro" xMin="0" yMin="-33" xMax="1289" yMax="1450">
      <contour>
        <pt x="1289" y="359" on="1"/>
        <pt x="1203" y="148" on="0"/>
        <pt x="929" y="-33" on="0"/>
        <pt x="733" y="-33" on="1"/>
        <pt x="606" y="-33" on="0"/>
        <pt x="387" y="65" on="0"/>
        <pt x="298" y="160" on="1"/>
        <pt x="236" y="225" on="0"/>
        <pt x="141" y="426" on="0"/>
        <pt x="127" y="530" on="1"/>
        <pt x="0" y="530" on="1"/>
        <pt x="36" y="626" on="1"/>
        <pt x="117" y="626" on="1"/>
        <pt x="115" y="652" on="0"/>
        <pt x="115" y="669" on="0"/>
        <pt x="115" y="696" on="1"/>
        <pt x="115" y="712" on="0"/>
        <pt x="118" y="781" on="0"/>
        <pt x="120" y="800" on="1"/>
        <pt x="0" y="800" on="1"/>
        <pt x="36" y="896" on="1"/>
        <pt x="133" y="896" on="1"/>
        <pt x="152" y="989" on="0"/>
        <pt x="232" y="1166" on="0"/>
        <pt x="299" y="1242" on="1"/>
        <pt x="388" y="1343" on="0"/>
        <pt x="623" y="1450" on="0"/>
        <pt x="764" y="1450" on="1"/>
        <pt x="869" y="1450" on="0"/>
        <pt x="1029" y="1398" on="0"/>
        <pt x="1106" y="1351" on="1"/>
        <pt x="1147" y="1419" on="1"/>
        <pt x="1227" y="1419" on="1"/>
        <pt x="1236" y="913" on="1"/>
        <pt x="1154" y="913" on="1"/>
        <pt x="1138" y="987" on="0"/>
        <pt x="1074" y="1160" on="0"/>
        <pt x="1031" y="1220" on="1"/>
        <pt x="983" y="1288" on="0"/>
        <pt x="861" y="1365" on="0"/>
        <pt x="776" y="1365" on="1"/>
        <pt x="679" y="1365" on="0"/>
        <pt x="525" y="1279" on="0"/>
        <pt x="466" y="1194" on="1"/>
        <pt x="423" y="1131" on="0"/>
        <pt x="376" y="981" on="0"/>
        <pt x="365" y="896" on="1"/>
        <pt x="759" y="896" on="1"/>
        <pt x="723" y="800" on="1"/>
        <pt x="356" y="800" on="1"/>
        <pt x="355" y="786" on="0"/>
        <pt x="354" y="722" on="0"/>
        <pt x="354" y="710" on="1"/>
        <pt x="354" y="678" on="0"/>
        <pt x="355" y="645" on="0"/>
        <pt x="356" y="626" on="1"/>
        <pt x="657" y="626" on="1"/>
        <pt x="621" y="530" on="1"/>
        <pt x="366" y="530" on="1"/>
        <pt x="380" y="448" on="0"/>
        <pt x="432" y="313" on="0"/>
        <pt x="471" y="260" on="1"/>
        <pt x="534" y="175" on="0"/>
        <pt x="707" y="80" on="0"/>
        <pt x="807" y="80" on="1"/>
        <pt x="888" y="80" on="0"/>
        <pt x="1014" y="131" on="0"/>
        <pt x="1064" y="173" on="1"/>
        <pt x="1114" y="217" on="0"/>
        <pt x="1190" y="329" on="0"/>
        <pt x="1214" y="395" on="1"/>
      </contour>
    </TTGlyph>
    <TTGlyph name="F" xMin="86" yMin="0" xMax="1199" yMax="1419">
      <contour>
        <pt x="1199" y="1064" on="1"/>
        <pt x="1124" y="1064" on="1"/>
        <pt x="1103" y="1143" on="0"/>
        <pt x="970" y="1323" on="0"/>
        <pt x="909" y="1332" on="1"/>
        <pt x="878" y="1336" on="0"/>
        <pt x="793" y="1340" on="0"/>
        <pt x="739" y="1340" on="1"/>
        <pt x="501" y="1340" on="1"/>
        <pt x="501" y="770" on="1"/>
        <pt x="664" y="770" on="1"/>
        <pt x="738" y="770" on="0"/>
        <pt x="820" y="801" on="0"/>
        <pt x="849" y="833" on="1"/>
        <pt x="869" y="855" on="0"/>
        <pt x="902" y="948" on="0"/>
        <pt x="907" y="1001" on="1"/>
        <pt x="983" y="1001" on="1"/>
        <pt x="983" y="444" on="1"/>
        <pt x="907" y="444" on="1"/>
        <pt x="904" y="488" on="0"/>
        <pt x="869" y="600" on="0"/>
        <pt x="849" y="625" on="1"/>
        <pt x="819" y="662" on="0"/>
        <pt x="728" y="689" on="0"/>
        <pt x="664" y="689" on="1"/>
        <pt x="501" y="689" on="1"/>
        <pt x="501" y="200" on="1"/>
        <pt x="501" y="167" on="0"/>
        <pt x="527" y="115" on="0"/>
        <pt x="560" y="99" on="1"/>
        <pt x="575" y="92" on="0"/>
        <pt x="675" y="72" on="0"/>
        <pt x="701" y="71" on="1"/>
        <pt x="701" y="0" on="1"/>
        <pt x="86" y="0" on="1"/>
        <pt x="86" y="71" on="1"/>
        <pt x="116" y="73" on="0"/>
        <pt x="216" y="82" on="0"/>
        <pt x="231" y="89" on="1"/>
        <pt x="261" y="102" on="0"/>
        <pt x="288" y="153" on="0"/>
        <pt x="288" y="189" on="1"/>
        <pt x="288" y="1213" on="1"/>
        <pt x="288" y="1246" on="0"/>
        <pt x="266" y="1297" on="0"/>
        <pt x="231" y="1313" on="1"/>
        <pt x="204" y="1326" on="0"/>
        <pt x="113" y="1346" on="0"/>
        <pt x="86" y="1348" on="1"/>
        <pt x="86" y="1419" on="1"/>
        <pt x="1199" y="1419" on="1"/>
      </contour>
    </TTGlyph>
    <TTGlyph name="G" xMin="78" yMin="-33" xMax="1471" yMax="1450">
      <contour>
        <pt x="1471" y="567" on="1"/>
        <pt x="1447" y="564" on="0"/>
        <pt x="1366" y="551" on="0"/>
        <pt x="1341" y="539" on="1"/>
        <pt x="1311" y="524" on="0"/>
        <pt x="1286" y="469" on="0"/>
        <pt x="1286" y="432" on="1"/>
        <pt x="1286" y="322" on="1"/>
        <pt x="1286" y="202" on="0"/>
        <pt x="1289" y="118" on="0"/>
        <pt x="1291" y="91" on="1"/>
        <pt x="1158" y="31" on="0"/>
        <pt x="894" y="-33" on="0"/>
        <pt x="767" y="-33" on="1"/>
        <pt x="631" y="-33" on="0"/>
        <pt x="379" y="69" on="0"/>
        <pt x="285" y="163" on="1"/>
        <pt x="190" y="258" on="0"/>
        <pt x="78" y="530" on="0"/>
        <pt x="78" y="698" on="1"/>
        <pt x="78" y="860" on="0"/>
        <pt x="185" y="1137" on="0"/>
        <pt x="283" y="1239" on="1"/>
        <pt x="378" y="1339" on="0"/>
        <pt x="641" y="1450" on="0"/>
        <pt x="791" y="1450" on="1"/>
        <pt x="911" y="1450" on="0"/>
        <pt x="1089" y="1392" on="0"/>
        <pt x="1157" y="1351" on="1"/>
        <pt x="1198" y="1419" on="1"/>
        <pt x="1278" y="1419" on="1"/>
        <pt x="1287" y="923" on="1"/>
        <pt x="1205" y="923" on="1"/>
        <pt x="1184" y="1005" on="0"/>
        <pt x="1122" y="1164" on="0"/>
        <pt x="1073" y="1227" on="1"/>
        <pt x="1024" y="1290" on="0"/>
        <pt x="883" y="1365" on="0"/>
        <pt x="785" y="1365" on="1"/>
        <pt x="678" y="1365" on="0"/>
        <pt x="510" y="1278" on="0"/>
        <pt x="448" y="1192" on="1"/>
        <pt x="387" y="1109" on="0"/>
        <pt x="321" y="861" on="0"/>
        <pt x="321" y="708" on="1"/>
        <pt x="321" y="573" on="0"/>
        <pt x="386" y="334" on="0"/>
        <pt x="448" y="247" on="1"/>
        <pt x="510" y="158" on="0"/>
        <pt x="696" y="56" on="0"/>
        <pt x="814" y="56" on="1"/>
        <pt x="902" y="56" on="0"/>
        <pt x="1047" y="110" on="0"/>
        <pt x="1077" y="140" on="1"/>
        <pt x="1085" y="192" on="0"/>
        <pt x="1086" y="298" on="0"/>
        <pt x="1086" y="335" on="1"/>
        <pt x="1086" y="413" on="1"/>
        <pt x="1086" y="455" on="0"/>
        <pt x="1063" y="520" on="0"/>
        <pt x="1027" y="535" on="1"/>
        <pt x="994" y="550" on="0"/>
        <pt x="881" y="565" on="0"/>
        <pt x="849" y="567" on="1"/>
        <pt x="849" y="640" on="1"/>
        <pt x="1471" y="640" on="1"/>
      </contour>
    </TTGlyph>
    <TTGlyph name="Gamma" xMin="86" yMin="0" xMax="1179" yMax="1419">
      <contour>
        <pt x="1179" y="1022" on="1"/>
        <pt x="1104" y="1022" on="1"/>
        <pt x="1094" y="1061" on="0"/>
        <pt x="1060" y="1149" on="0"/>
        <pt x="1026" y="1205" on="1"/>
        <pt x="994" y="1257" on="0"/>
        <pt x="927" y="1325" on="0"/>
        <pt x="883" y="1331" on="1"/>
        <pt x="849" y="1336" on="0"/>
        <pt x="750" y="1340" on="0"/>
        <pt x="705" y="1340" on="1"/>
        <pt x="501" y="1340" on="1"/>
        <pt x="501" y="202" on="1"/>
        <pt x="501" y="168" on="0"/>
        <pt x="533" y="117" on="0"/>
        <pt x="565" y="101" on="1"/>
        <pt x="585" y="92" on="0"/>
        <pt x="690" y="72" on="0"/>
        <pt x="723" y="71" on="1"/>
        <pt x="723" y="0" on="1"/>
        <pt x="86" y="0" on="1"/>
        <pt x="86" y="71" on="1"/>
        <pt x="116" y="73" on="0"/>
        <pt x="216" y="82" on="0"/>
        <pt x="231" y="89" on="1"/>
        <pt x="261" y="102" on="0"/>
        <pt x="288" y="153" on="0"/>
        <pt x="288" y="189" on="1"/>
        <pt x="288" y="1213" on="1"/>
        <pt x="288" y="1246" on="0"/>
        <pt x="266" y="1297" on="0"/>
        <pt x="231" y="1313" on="1"/>
        <pt x="204" y="1326" on="0"/>
        <pt x="113" y="1346" on="0"/>
        <pt x="86" y="1348" on="1"/>
        <pt x="86" y="1419" on="1"/>
        <pt x="1179" y="1419" on="1"/>
      </contour>
    </TTGlyph>
    <TTGlyph name="Gbreve" xMin="78" yMin="-33" xMax="1471" yMax="1867">
      <component glyphName="G" x="0" y="0" flags="0x214"/>
      <component glyphName="Breve" x="270" y="0" flags="0x14"/>
    </TTGlyph>
    <TTGlyph name="Gcircumflex" xMin="78" yMin="-33" xMax="1471" yMax="1868">
      <component glyphName="G" x="0" y="0" flags="0x214"/>
      <component glyphName="Circumflex" x="266" y="0" flags="0x14"/>
    </TTGlyph>
    <TTGlyph name="Gcommaaccent" xMin="78" yMin="-444" xMax="1471" yMax="1450">
      <component glyphName="G" x="0" y="0" flags="0x214"/>
      <component glyphName="undercommaaccent" x="289" y="0" flags="0x14"/>
    </TTGlyph>
    <TTGlyph name="Gdotaccent" xMin="78" yMin="-33" xMax="1471" yMax="1864">
      <component glyphName="G" x="0" y="0" flags="0x214"/>
      <component glyphName="dotaccent" x="267" y="351" flags="0x14"/>
    </TTGlyph>
    <TTGlyph name="Grave" xMin="299" yMin="1507" xMax="768" yMax="1868">
      <contour>
        <pt x="768" y="1546" on="1"/>
        <pt x="737" y="1507" on="1"/>
        <pt x="620" y="1565" on="0"/>
        <pt x="435" y="1653" on="0"/>
        <pt x="391" y="1675" on="1"/>
        <pt x="342" y="1700" on="0"/>
        <pt x="299" y="1747" on="0"/>
        <pt x="299" y="1788" on="1"/>
        <pt x="299" y="1823" on="0"/>
        <pt x="349" y="1868" on="0"/>
        <pt x="391" y="1868" on="1"/>
        <pt x="421" y="1868" on="0"/>
        <pt x="472" y="1841" on="0"/>
        <pt x="506" y="1805" on="1"/>
        <pt x="552" y="1757" on="0"/>
        <pt x="667" y="1642" on="0"/>
      </contour>
    </TTGlyph>
    <TTGlyph name="H" xMin="98" yMin="0" xMax="1567" yMax="1419">
      <contour>
        <pt x="1567" y="0" on="1"/>
        <pt x="978" y="0" on="1"/>
        <pt x="978" y="71" on="1"/>
        <pt x="1002" y="73" on="0"/>
        <pt x="1093" y="81" on="0"/>
        <pt x="1110" y="89" on="1"/>
        <pt x="1140" y="101" on="0"/>
        <pt x="1168" y="150" on="0"/>
        <pt x="1168" y="189" on="1"/>
        <pt x="1168" y="694" on="1"/>
        <pt x="501" y="694" on="1"/>
        <pt x="501" y="200" on="1"/>
        <pt x="501" y="165" on="0"/>
        <pt x="524" y="117" on="0"/>
        <pt x="558" y="99" on="1"/>
        <pt x="575" y="90" on="0"/>
        <pt x="662" y="72" on="0"/>
        <pt x="687" y="71" on="1"/>
        <pt x="687" y="0" on="1"/>
        <pt x="98" y="0" on="1"/>
        <pt x="98" y="71" on="1"/>
        <pt x="122" y="73" on="0"/>
        <pt x="213" y="81" on="0"/>
        <pt x="230" y="89" on="1"/>
        <pt x="260" y="101" on="0"/>
        <pt x="288" y="150" on="0"/>
        <pt x="288" y="189" on="1"/>
        <pt x="288" y="1213" on="1"/>
        <pt x="288" y="1245" on="0"/>
        <pt x="262" y="1298" on="0"/>
        <pt x="230" y="1313" on="1"/>
        <pt x="203" y="1326" on="0"/>
        <pt x="126" y="1346" on="0"/>
        <pt x="98" y="1348" on="1"/>
        <pt x="98" y="1419" on="1"/>
        <pt x="687" y="1419" on="1"/>
        <pt x="687" y="1348" on="1"/>
        <pt x="659" y="1347" on="0"/>
        <pt x="578" y="1331" on="0"/>
        <pt x="558" y="1324" on="1"/>
        <pt x="524" y="1312" on="0"/>
        <pt x="501" y="1256" on="0"/>
        <pt x="501" y="1223" on="1"/>
        <pt x="501" y="783" on="1"/>
        <pt x="1168" y="783" on="1"/>
        <pt x="1168" y="1213" on="1"/>
        <pt x="1168" y="1245" on="0"/>
        <pt x="1142" y="1298" on="0"/>
        <pt x="1110" y="1313" on="1"/>
        <pt x="1083" y="1326" on="0"/>
        <pt x="1006" y="1346" on="0"/>
        <pt x="978" y="1348" on="1"/>
        <pt x="978" y="1419" on="1"/>
        <pt x="1567" y="1419" on="1"/>
        <pt x="1567" y="1348" on="1"/>
        <pt x="1539" y="1347" on="0"/>
        <pt x="1458" y="1331" on="0"/>
        <pt x="1438" y="1324" on="1"/>
        <pt x="1404" y="1312" on="0"/>
        <pt x="1381" y="1256" on="0"/>
        <pt x="1381" y="1223" on="1"/>
        <pt x="1381" y="200" on="1"/>
        <pt x="1381" y="165" on="0"/>
        <pt x="1404" y="117" on="0"/>
        <pt x="1438" y="99" on="1"/>
        <pt x="1455" y="90" on="0"/>
        <pt x="1542" y="72" on="0"/>
        <pt x="1567" y="71" on="1"/>
      </contour>
    </TTGlyph>
    <TTGlyph name="H18533" xMin="177" yMin="136" xMax="1058" yMax="1017">
      <contour>
        <pt x="177" y="576" on="1"/>
        <pt x="177" y="759" on="0"/>
        <pt x="435" y="1017" on="0"/>
        <pt x="618" y="1017" on="1"/>
        <pt x="800" y="1017" on="0"/>
        <pt x="1058" y="759" on="0"/>
        <pt x="1058" y="576" on="1"/>
        <pt x="1058" y="394" on="0"/>
        <pt x="800" y="136" on="0"/>
        <pt x="618" y="136" on="1"/>
        <pt x="435" y="136" on="0"/>
        <pt x="177" y="394" on="0"/>
      </contour>
    </TTGlyph>
    <TTGlyph name="H18543" xMin="131" yMin="445" xMax="594" yMax="908">
      <contour>
        <pt x="594" y="908" on="1"/>
        <pt x="594" y="445" on="1"/>
        <pt x="131" y="445" on="1"/>
        <pt x="131" y="908" on="1"/>
      </contour>
    </TTGlyph>
    <TTGlyph name="H18551" xMin="131" yMin="445" xMax="594" yMax="908">
      <contour>
        <pt x="594" y="908" on="1"/>
        <pt x="594" y="445" on="1"/>
        <pt x="131" y="445" on="1"/>
        <pt x="131" y="908" on="1"/>
      </contour>
      <contour>
        <pt x="518" y="832" on="1"/>
        <pt x="207" y="832" on="1"/>
        <pt x="207" y="521" on="1"/>
        <pt x="518" y="521" on="1"/>
      </contour>
    </TTGlyph>
    <TTGlyph name="H22073" xMin="146" yMin="0" xMax="1090" yMax="944">
      <contour>
        <pt x="146" y="944" on="1"/>
        <pt x="1090" y="944" on="1"/>
        <pt x="1090" y="0" on="1"/>
        <pt x="146" y="0" on="1"/>
      </contour>
      <contour>
        <pt x="222" y="868" on="1"/>
        <pt x="222" y="76" on="1"/>
        <pt x="1014" y="76" on="1"/>
        <pt x="1014" y="868" on="1"/>
      </contour>
    </TTGlyph>
    <TTGlyph name="Hbar" xMin="98" yMin="0" xMax="1567" yMax="1419">
      <contour>
        <pt x="1567" y="0" on="1"/>
        <pt x="978" y="0" on="1"/>
        <pt x="978" y="71" on="1"/>
        <pt x="1002" y="73" on="0"/>
        <pt x="1093" y="81" on="0"/>
        <pt x="1110" y="89" on="1"/>
        <pt x="1140" y="101" on="0"/>
        <pt x="1168" y="150" on="0"/>
        <pt x="1168" y="189" on="1"/>
        <pt x="1168" y="694" on="1"/>
        <pt x="501" y="694" on="1"/>
        <pt x="501" y="200" on="1"/>
        <pt x="501" y="165" on="0"/>
        <pt x="524" y="117" on="0"/>
        <pt x="558" y="99" on="1"/>
        <pt x="575" y="90" on="0"/>
        <pt x="662" y="72" on="0"/>
        <pt x="687" y="71" on="1"/>
        <pt x="687" y="0" on="1"/>
        <pt x="98" y="0" on="1"/>
        <pt x="98" y="71" on="1"/>
        <pt x="122" y="73" on="0"/>
        <pt x="213" y="81" on="0"/>
        <pt x="230" y="89" on="1"/>
        <pt x="260" y="101" on="0"/>
        <pt x="288" y="150" on="0"/>
        <pt x="288" y="189" on="1"/>
        <pt x="288" y="1011" on="1"/>
        <pt x="102" y="1011" on="1"/>
        <pt x="102" y="1100" on="1"/>
        <pt x="288" y="1100" on="1"/>
        <pt x="288" y="1213" on="1"/>
        <pt x="288" y="1245" on="0"/>
        <pt x="262" y="1298" on="0"/>
        <pt x="230" y="1313" on="1"/>
        <pt x="203" y="1326" on="0"/>
        <pt x="126" y="1346" on="0"/>
        <pt x="98" y="1348" on="1"/>
        <pt x="98" y="1419" on="1"/>
        <pt x="687" y="1419" on="1"/>
        <pt x="687" y="1348" on="1"/>
        <pt x="659" y="1347" on="0"/>
        <pt x="578" y="1331" on="0"/>
        <pt x="558" y="1324" on="1"/>
        <pt x="524" y="1312" on="0"/>
        <pt x="501" y="1256" on="0"/>
        <pt x="501" y="1223" on="1"/>
        <pt x="501" y="1100" on="1"/>
        <pt x="1168" y="1100" on="1"/>
        <pt x="1168" y="1213" on="1"/>
        <pt x="1168" y="1245" on="0"/>
        <pt x="1142" y="1298" on="0"/>
        <pt x="1110" y="1313" on="1"/>
        <pt x="1083" y="1326" on="0"/>
        <pt x="1006" y="1346" on="0"/>
        <pt x="978" y="1348" on="1"/>
        <pt x="978" y="1419" on="1"/>
        <pt x="1567" y="1419" on="1"/>
        <pt x="1567" y="1348" on="1"/>
        <pt x="1539" y="1347" on="0"/>
        <pt x="1458" y="1331" on="0"/>
        <pt x="1438" y="1324" on="1"/>
        <pt x="1404" y="1312" on="0"/>
        <pt x="1381" y="1256" on="0"/>
        <pt x="1381" y="1223" on="1"/>
        <pt x="1381" y="1100" on="1"/>
        <pt x="1567" y="1100" on="1"/>
        <pt x="1567" y="1011" on="1"/>
        <pt x="1381" y="1011" on="1"/>
        <pt x="1381" y="200" on="1"/>
        <pt x="1381" y="165" on="0"/>
        <pt x="1404" y="117" on="0"/>
        <pt x="1438" y="99" on="1"/>
        <pt x="1455" y="90" on="0"/>
        <pt x="1542" y="72" on="0"/>
        <pt x="1567" y="71" on="1"/>
      </contour>
      <contour>
        <pt x="1168" y="783" on="1"/>
        <pt x="1168" y="1011" on="1"/>
        <pt x="501" y="1011" on="1"/>
        <pt x="501" y="783" on="1"/>
      </contour>
    </TTGlyph>
    <TTGlyph name="Hcircumflex" xMin="98" yMin="0" xMax="1567" yMax="1868">
      <component glyphName="H" x="0" y="0" flags="0x214"/>
      <component glyphName="Circumflex" x="323" y="0" flags="0x14"/>
    </TTGlyph>
    <TTGlyph name="Hungarumlaut" xMin="153" yMin="1507" xMax="954" yMax="1867">
      <contour>
        <pt x="483" y="1678" on="1"/>
        <pt x="418" y="1644" on="0"/>
        <pt x="331" y="1599" on="0"/>
        <pt x="182" y="1507" on="1"/>
        <pt x="153" y="1543" on="1"/>
        <pt x="230" y="1629" on="0"/>
        <pt x="315" y="1729" on="0"/>
        <pt x="367" y="1792" on="1"/>
        <pt x="395" y="1826" on="0"/>
        <pt x="451" y="1867" on="0"/>
        <pt x="477" y="1867" on="1"/>
        <pt x="519" y="1867" on="0"/>
        <pt x="565" y="1815" on="0"/>
        <pt x="565" y="1783" on="1"/>
        <pt x="565" y="1744" on="0"/>
        <pt x="520" y="1697" on="0"/>
      </contour>
      <contour>
        <pt x="872" y="1678" on="1"/>
        <pt x="807" y="1644" on="0"/>
        <pt x="715" y="1599" on="0"/>
        <pt x="566" y="1507" on="1"/>
        <pt x="537" y="1543" on="1"/>
        <pt x="615" y="1630" on="0"/>
        <pt x="708" y="1734" on="0"/>
        <pt x="756" y="1792" on="1"/>
        <pt x="784" y="1826" on="0"/>
        <pt x="840" y="1867" on="0"/>
        <pt x="866" y="1867" on="1"/>
        <pt x="908" y="1867" on="0"/>
        <pt x="954" y="1815" on="0"/>
        <pt x="954" y="1783" on="1"/>
        <pt x="954" y="1744" on="0"/>
        <pt x="909" y="1697" on="0"/>
      </contour>
    </TTGlyph>
    <TTGlyph name="I" xMin="79" yMin="0" xMax="718" yMax="1419">
      <contour>
        <pt x="718" y="0" on="1"/>
        <pt x="79" y="0" on="1"/>
        <pt x="79" y="71" on="1"/>
        <pt x="106" y="73" on="0"/>
        <pt x="208" y="81" on="0"/>
        <pt x="229" y="89" on="1"/>
        <pt x="262" y="102" on="0"/>
        <pt x="292" y="147" on="0"/>
        <pt x="292" y="187" on="1"/>
        <pt x="292" y="1215" on="1"/>
        <pt x="292" y="1250" on="0"/>
        <pt x="270" y="1297" on="0"/>
        <pt x="229" y="1313" on="1"/>
        <pt x="199" y="1325" on="0"/>
        <pt x="108" y="1346" on="0"/>
        <pt x="79" y="1348" on="1"/>
        <pt x="79" y="1419" on="1"/>
        <pt x="718" y="1419" on="1"/>
        <pt x="718" y="1348" on="1"/>
        <pt x="687" y="1347" on="0"/>
        <pt x="601" y="1334" on="0"/>
        <pt x="569" y="1324" on="1"/>
        <pt x="531" y="1312" on="0"/>
        <pt x="505" y="1258" on="0"/>
        <pt x="505" y="1225" on="1"/>
        <pt x="505" y="198" on="1"/>
        <pt x="505" y="165" on="0"/>
        <pt x="534" y="114" on="0"/>
        <pt x="569" y="99" on="1"/>
        <pt x="590" y="91" on="0"/>
        <pt x="685" y="72" on="0"/>
        <pt x="718" y="71" on="1"/>
      </contour>
    </TTGlyph>
    <TTGlyph name="IJ" xMin="79" yMin="-34" xMax="1764" yMax="1419">
      <component glyphName="I" x="0" y="0" flags="0x14"/>
      <component glyphName="J" x="758" y="0" flags="0x14"/>
    </TTGlyph>
    <TTGlyph name="Iacute" xMin="79" yMin="0" xMax="718" yMax="1868">
      <component glyphName="I" x="0" y="0" flags="0x214"/>
      <component glyphName="Acute" x="-89" y="0" flags="0x14"/>
    </TTGlyph>
    <TTGlyph name="Ibreve" xMin="79" yMin="0" xMax="718" yMax="1867">
      <component glyphName="I" x="0" y="0" flags="0x214"/>
      <component glyphName="Breve" x="-114" y="0" flags="0x14"/>
    </TTGlyph>
    <TTGlyph name="Icircumflex" xMin="74" yMin="0" xMax="724" yMax="1868">
      <component glyphName="I" x="0" y="0" flags="0x214"/>
      <component glyphName="Circumflex" x="-113" y="0" flags="0x14"/>
    </TTGlyph>
    <TTGlyph name="Idieresis" xMin="66" yMin="0" xMax="732" yMax="1853">
      <component glyphName="I" x="0" y="0" flags="0x214"/>
      <component glyphName="dieresis" x="-113" y="366" flags="0x14"/>
    </TTGlyph>
    <TTGlyph name="Idotaccent" xMin="79" yMin="0" xMax="718" yMax="1864">
      <component glyphName="I" x="0" y="0" flags="0x214"/>
      <component glyphName="dotaccent" x="-112" y="351" flags="0x14"/>
    </TTGlyph>
    <TTGlyph name="Igrave" xMin="79" yMin="0" xMax="718" yMax="1868">
      <component glyphName="I" x="0" y="0" flags="0x214"/>
      <component glyphName="Grave" x="-94" y="0" flags="0x14"/>
    </TTGlyph>
    <TTGlyph name="Imacron" xMin="77" yMin="0" xMax="721" yMax="1785">
      <contour>
        <pt x="718" y="0" on="1"/>
        <pt x="79" y="0" on="1"/>
        <pt x="79" y="71" on="1"/>
        <pt x="106" y="73" on="0"/>
        <pt x="208" y="81" on="0"/>
        <pt x="229" y="89" on="1"/>
        <pt x="262" y="102" on="0"/>
        <pt x="292" y="147" on="0"/>
        <pt x="292" y="187" on="1"/>
        <pt x="292" y="1215" on="1"/>
        <pt x="292" y="1250" on="0"/>
        <pt x="270" y="1297" on="0"/>
        <pt x="229" y="1313" on="1"/>
        <pt x="199" y="1325" on="0"/>
        <pt x="108" y="1346" on="0"/>
        <pt x="79" y="1348" on="1"/>
        <pt x="79" y="1419" on="1"/>
        <pt x="718" y="1419" on="1"/>
        <pt x="718" y="1348" on="1"/>
        <pt x="687" y="1347" on="0"/>
        <pt x="601" y="1334" on="0"/>
        <pt x="569" y="1324" on="1"/>
        <pt x="531" y="1312" on="0"/>
        <pt x="505" y="1258" on="0"/>
        <pt x="505" y="1225" on="1"/>
        <pt x="505" y="198" on="1"/>
        <pt x="505" y="165" on="0"/>
        <pt x="534" y="114" on="0"/>
        <pt x="569" y="99" on="1"/>
        <pt x="590" y="91" on="0"/>
        <pt x="685" y="72" on="0"/>
        <pt x="718" y="71" on="1"/>
      </contour>
      <contour>
        <pt x="721" y="1657" on="1"/>
        <pt x="77" y="1657" on="1"/>
        <pt x="77" y="1785" on="1"/>
        <pt x="721" y="1785" on="1"/>
      </contour>
    </TTGlyph>
    <TTGlyph name="Iogonek" xMin="79" yMin="-444" xMax="718" yMax="1419">
      <contour>
        <pt x="398" y="0" on="1"/>
        <pt x="79" y="0" on="1"/>
        <pt x="79" y="71" on="1"/>
        <pt x="106" y="73" on="0"/>
        <pt x="208" y="81" on="0"/>
        <pt x="229" y="89" on="1"/>
        <pt x="262" y="102" on="0"/>
        <pt x="292" y="147" on="0"/>
        <pt x="292" y="187" on="1"/>
        <pt x="292" y="1215" on="1"/>
        <pt x="292" y="1250" on="0"/>
        <pt x="270" y="1297" on="0"/>
        <pt x="229" y="1313" on="1"/>
        <pt x="199" y="1325" on="0"/>
        <pt x="108" y="1346" on="0"/>
        <pt x="79" y="1348" on="1"/>
        <pt x="79" y="1419" on="1"/>
        <pt x="718" y="1419" on="1"/>
        <pt x="718" y="1348" on="1"/>
        <pt x="687" y="1347" on="0"/>
        <pt x="601" y="1334" on="0"/>
        <pt x="569" y="1324" on="1"/>
        <pt x="531" y="1312" on="0"/>
        <pt x="505" y="1258" on="0"/>
        <pt x="505" y="1225" on="1"/>
        <pt x="505" y="198" on="1"/>
        <pt x="505" y="165" on="0"/>
        <pt x="534" y="114" on="0"/>
        <pt x="569" y="99" on="1"/>
        <pt x="590" y="91" on="0"/>
        <pt x="685" y="72" on="0"/>
        <pt x="718" y="71" on="1"/>
        <pt x="718" y="0" on="1"/>
        <pt x="475" y="0" on="1"/>
        <pt x="429" y="-44" on="0"/>
        <pt x="382" y="-148" on="0"/>
        <pt x="382" y="-217" on="1"/>
        <pt x="382" y="-253" on="0"/>
        <pt x="403" y="-309" on="0"/>
        <pt x="427" y="-329" on="1"/>
        <pt x="453" y="-351" on="0"/>
        <pt x="542" y="-373" on="0"/>
        <pt x="606" y="-372" on="1"/>
        <pt x="606" y="-444" on="1"/>
        <pt x="491" y="-444" on="1"/>
        <pt x="363" y="-444" on="0"/>
        <pt x="224" y="-339" on="0"/>
        <pt x="224" y="-250" on="1"/>
        <pt x="224" y="-188" on="0"/>
        <pt x="310" y="-61" on="0"/>
      </contour>
    </TTGlyph>
    <TTGlyph name="Iota" xMin="79" yMin="0" xMax="718" yMax="1419">
      <component glyphName="I" x="0" y="0" flags="0x214"/>
    </TTGlyph>
    <TTGlyph name="Iotadieresis" xMin="66" yMin="0" xMax="732" yMax="1853">
      <component glyphName="I" x="0" y="0" flags="0x214"/>
      <component glyphName="dieresis" x="-113" y="366" flags="0x14"/>
    </TTGlyph>
    <TTGlyph name="Iotatonos" xMin="0" yMin="0" xMax="1011" yMax="1489">
      <component glyphName="I" x="293" y="0" flags="0x14"/>
      <component glyphName="tonos" x="-370" y="-69" flags="0x14"/>
    </TTGlyph>
    <TTGlyph name="Itilde" xMin="30" yMin="0" xMax="774" yMax="1858">
      <contour>
        <pt x="718" y="0" on="1"/>
        <pt x="79" y="0" on="1"/>
        <pt x="79" y="71" on="1"/>
        <pt x="106" y="73" on="0"/>
        <pt x="208" y="81" on="0"/>
        <pt x="229" y="89" on="1"/>
        <pt x="262" y="102" on="0"/>
        <pt x="292" y="147" on="0"/>
        <pt x="292" y="187" on="1"/>
        <pt x="292" y="1215" on="1"/>
        <pt x="292" y="1250" on="0"/>
        <pt x="270" y="1297" on="0"/>
        <pt x="229" y="1313" on="1"/>
        <pt x="199" y="1325" on="0"/>
        <pt x="108" y="1346" on="0"/>
        <pt x="79" y="1348" on="1"/>
        <pt x="79" y="1419" on="1"/>
        <pt x="718" y="1419" on="1"/>
        <pt x="718" y="1348" on="1"/>
        <pt x="687" y="1347" on="0"/>
        <pt x="601" y="1334" on="0"/>
        <pt x="569" y="1324" on="1"/>
        <pt x="531" y="1312" on="0"/>
        <pt x="505" y="1258" on="0"/>
        <pt x="505" y="1225" on="1"/>
        <pt x="505" y="198" on="1"/>
        <pt x="505" y="165" on="0"/>
        <pt x="534" y="114" on="0"/>
        <pt x="569" y="99" on="1"/>
        <pt x="590" y="91" on="0"/>
        <pt x="685" y="72" on="0"/>
        <pt x="718" y="71" on="1"/>
      </contour>
      <contour>
        <pt x="774" y="1835" on="1"/>
        <pt x="764" y="1797" on="0"/>
        <pt x="724" y="1717" on="0"/>
        <pt x="689" y="1678" on="1"/>
        <pt x="653" y="1639" on="0"/>
        <pt x="574" y="1592" on="0"/>
        <pt x="519" y="1592" on="1"/>
        <pt x="462" y="1592" on="0"/>
        <pt x="385" y="1624" on="0"/>
        <pt x="355" y="1643" on="1"/>
        <pt x="329" y="1660" on="0"/>
        <pt x="262" y="1695" on="0"/>
        <pt x="229" y="1695" on="1"/>
        <pt x="198" y="1695" on="0"/>
        <pt x="167" y="1679" on="0"/>
        <pt x="150" y="1660" on="1"/>
        <pt x="134" y="1642" on="0"/>
        <pt x="102" y="1583" on="0"/>
        <pt x="88" y="1559" on="1"/>
        <pt x="30" y="1584" on="1"/>
        <pt x="40" y="1616" on="0"/>
        <pt x="88" y="1706" on="0"/>
        <pt x="116" y="1740" on="1"/>
        <pt x="146" y="1776" on="0"/>
        <pt x="232" y="1827" on="0"/>
        <pt x="279" y="1827" on="1"/>
        <pt x="333" y="1827" on="0"/>
        <pt x="409" y="1795" on="0"/>
        <pt x="440" y="1775" on="1"/>
        <pt x="468" y="1757" on="0"/>
        <pt x="526" y="1724" on="0"/>
        <pt x="558" y="1724" on="1"/>
        <pt x="598" y="1724" on="0"/>
        <pt x="647" y="1743" on="0"/>
        <pt x="661" y="1760" on="1"/>
        <pt x="677" y="1779" on="0"/>
        <pt x="698" y="1823" on="0"/>
        <pt x="713" y="1858" on="1"/>
      </contour>
    </TTGlyph>
    <TTGlyph name="J" xMin="11" yMin="-34" xMax="1006" yMax="1419">
      <contour>
        <pt x="1006" y="1348" on="1"/>
        <pt x="978" y="1347" on="0"/>
        <pt x="895" y="1334" on="0"/>
        <pt x="866" y="1324" on="1"/>
        <pt x="832" y="1312" on="0"/>
        <pt x="808" y="1256" on="0"/>
        <pt x="808" y="1223" on="1"/>
        <pt x="808" y="382" on="1"/>
        <pt x="808" y="316" on="0"/>
        <pt x="755" y="168" on="0"/>
        <pt x="704" y="110" on="1"/>
        <pt x="645" y="42" on="0"/>
        <pt x="482" y="-34" on="0"/>
        <pt x="377" y="-34" on="1"/>
        <pt x="214" y="-34" on="0"/>
        <pt x="11" y="149" on="0"/>
        <pt x="11" y="304" on="1"/>
        <pt x="11" y="372" on="0"/>
        <pt x="81" y="477" on="0"/>
        <pt x="148" y="477" on="1"/>
        <pt x="208" y="477" on="0"/>
        <pt x="281" y="410" on="0"/>
        <pt x="281" y="355" on="1"/>
        <pt x="281" y="323" on="0"/>
        <pt x="255" y="259" on="0"/>
        <pt x="239" y="234" on="1"/>
        <pt x="224" y="211" on="0"/>
        <pt x="186" y="149" on="0"/>
        <pt x="178" y="124" on="1"/>
        <pt x="199" y="91" on="0"/>
        <pt x="288" y="41" on="0"/>
        <pt x="363" y="41" on="1"/>
        <pt x="436" y="41" on="0"/>
        <pt x="529" y="108" on="0"/>
        <pt x="552" y="164" on="1"/>
        <pt x="574" y="216" on="0"/>
        <pt x="593" y="368" on="0"/>
        <pt x="593" y="462" on="1"/>
        <pt x="593" y="1213" on="1"/>
        <pt x="593" y="1248" on="0"/>
        <pt x="570" y="1295" on="0"/>
        <pt x="534" y="1313" on="1"/>
        <pt x="503" y="1329" on="0"/>
        <pt x="410" y="1346" on="0"/>
        <pt x="380" y="1348" on="1"/>
        <pt x="380" y="1419" on="1"/>
        <pt x="1006" y="1419" on="1"/>
      </contour>
    </TTGlyph>
    <TTGlyph name="Jcircumflex" xMin="11" yMin="-34" xMax="1006" yMax="1868">
      <component glyphName="J" x="0" y="0" flags="0x214"/>
      <component glyphName="Circumflex" x="169" y="0" flags="0x14"/>
    </TTGlyph>
    <TTGlyph name="K" xMin="102" yMin="0" xMax="1475" yMax="1419">
      <contour>
        <pt x="1475" y="0" on="1"/>
        <pt x="1077" y="0" on="1"/>
        <pt x="962" y="178" on="0"/>
        <pt x="681" y="529" on="0"/>
        <pt x="527" y="694" on="1"/>
        <pt x="501" y="694" on="1"/>
        <pt x="501" y="200" on="1"/>
        <pt x="501" y="167" on="0"/>
        <pt x="526" y="115" on="0"/>
        <pt x="559" y="99" on="1"/>
        <pt x="575" y="92" on="0"/>
        <pt x="662" y="72" on="0"/>
        <pt x="691" y="71" on="1"/>
        <pt x="691" y="0" on="1"/>
        <pt x="102" y="0" on="1"/>
        <pt x="102" y="71" on="1"/>
        <pt x="125" y="73" on="0"/>
        <pt x="213" y="81" on="0"/>
        <pt x="231" y="89" on="1"/>
        <pt x="261" y="102" on="0"/>
        <pt x="288" y="153" on="0"/>
        <pt x="288" y="189" on="1"/>
        <pt x="288" y="1213" on="1"/>
        <pt x="288" y="1247" on="0"/>
        <pt x="265" y="1297" on="0"/>
        <pt x="231" y="1313" on="1"/>
        <pt x="204" y="1326" on="0"/>
        <pt x="130" y="1346" on="0"/>
        <pt x="102" y="1348" on="1"/>
        <pt x="102" y="1419" on="1"/>
        <pt x="691" y="1419" on="1"/>
        <pt x="691" y="1348" on="1"/>
        <pt x="663" y="1347" on="0"/>
        <pt x="579" y="1331" on="0"/>
        <pt x="559" y="1324" on="1"/>
        <pt x="525" y="1312" on="0"/>
        <pt x="501" y="1256" on="0"/>
        <pt x="501" y="1223" on="1"/>
        <pt x="501" y="733" on="1"/>
        <pt x="521" y="733" on="1"/>
        <pt x="611" y="809" on="0"/>
        <pt x="785" y="974" on="0"/>
        <pt x="856" y="1056" on="1"/>
        <pt x="935" y="1147" on="0"/>
        <pt x="1008" y="1256" on="0"/>
        <pt x="1008" y="1298" on="1"/>
        <pt x="1008" y="1313" on="0"/>
        <pt x="971" y="1332" on="0"/>
        <pt x="947" y="1338" on="1"/>
        <pt x="919" y="1344" on="0"/>
        <pt x="875" y="1347" on="0"/>
        <pt x="861" y="1348" on="1"/>
        <pt x="861" y="1419" on="1"/>
        <pt x="1393" y="1419" on="1"/>
        <pt x="1393" y="1348" on="1"/>
        <pt x="1390" y="1348" on="0"/>
        <pt x="1370" y="1346" on="0"/>
        <pt x="1357" y="1345" on="1"/>
        <pt x="1343" y="1344" on="0"/>
        <pt x="1315" y="1338" on="0"/>
        <pt x="1293" y="1334" on="1"/>
        <pt x="1258" y="1326" on="0"/>
        <pt x="1183" y="1291" on="0"/>
        <pt x="1159" y="1265" on="1"/>
        <pt x="1056" y="1148" on="0"/>
        <pt x="832" y="898" on="0"/>
        <pt x="722" y="795" on="1"/>
        <pt x="874" y="623" on="0"/>
        <pt x="1073" y="375" on="0"/>
        <pt x="1185" y="234" on="1"/>
        <pt x="1228" y="180" on="0"/>
        <pt x="1314" y="115" on="0"/>
        <pt x="1345" y="99" on="1"/>
        <pt x="1371" y="86" on="0"/>
        <pt x="1449" y="72" on="0"/>
        <pt x="1475" y="71" on="1"/>
      </contour>
    </TTGlyph>
    <TTGlyph name="Kappa" xMin="102" yMin="0" xMax="1475" yMax="1419">
      <component glyphName="K" x="0" y="0" flags="0x214"/>
    </TTGlyph>
    <TTGlyph name="Kcommaaccent" xMin="102" yMin="-444" xMax="1475" yMax="1419">
      <component glyphName="K" x="0" y="0" flags="0x214"/>
      <component glyphName="undercommaaccent" x="314" y="0" flags="0x14"/>
    </TTGlyph>
    <TTGlyph name="L" xMin="98" yMin="0" xMax="1237" yMax="1419">
      <contour>
        <pt x="1237" y="422" on="1"/>
        <pt x="1207" y="0" on="1"/>
        <pt x="98" y="0" on="1"/>
        <pt x="98" y="71" on="1"/>
        <pt x="122" y="73" on="0"/>
        <pt x="213" y="83" on="0"/>
        <pt x="231" y="91" on="1"/>
        <pt x="261" y="104" on="0"/>
        <pt x="288" y="154" on="0"/>
        <pt x="288" y="193" on="1"/>
        <pt x="288" y="1209" on="1"/>
        <pt x="288" y="1243" on="0"/>
        <pt x="265" y="1295" on="0"/>
        <pt x="231" y="1311" on="1"/>
        <pt x="208" y="1323" on="0"/>
        <pt x="125" y="1346" on="0"/>
        <pt x="98" y="1348" on="1"/>
        <pt x="98" y="1419" on="1"/>
        <pt x="697" y="1419" on="1"/>
        <pt x="697" y="1348" on="1"/>
        <pt x="669" y="1347" on="0"/>
        <pt x="580" y="1329" on="0"/>
        <pt x="560" y="1322" on="1"/>
        <pt x="526" y="1310" on="0"/>
        <pt x="501" y="1252" on="0"/>
        <pt x="501" y="1219" on="1"/>
        <pt x="501" y="266" on="1"/>
        <pt x="501" y="200" on="0"/>
        <pt x="514" y="127" on="0"/>
        <pt x="538" y="107" on="1"/>
        <pt x="561" y="89" on="0"/>
        <pt x="652" y="78" on="0"/>
        <pt x="734" y="78" on="1"/>
        <pt x="771" y="78" on="0"/>
        <pt x="851" y="82" on="0"/>
        <pt x="887" y="88" on="1"/>
        <pt x="922" y="94" on="0"/>
        <pt x="981" y="115" on="0"/>
        <pt x="995" y="131" on="1"/>
        <pt x="1036" y="177" on="0"/>
        <pt x="1145" y="364" on="0"/>
        <pt x="1166" y="422" on="1"/>
      </contour>
    </TTGlyph>
    <TTGlyph name="Lacute" xMin="98" yMin="0" xMax="1237" yMax="1868">
      <component glyphName="L" x="0" y="0" flags="0x214"/>
      <component glyphName="Acute" x="158" y="0" flags="0x14"/>
    </TTGlyph>
    <TTGlyph name="Lambda" xMin="-41" yMin="0" xMax="1427" yMax="1439">
      <contour>
        <pt x="1427" y="0" on="1"/>
        <pt x="836" y="0" on="1"/>
        <pt x="836" y="71" on="1"/>
        <pt x="924" y="78" on="0"/>
        <pt x="1016" y="108" on="0"/>
        <pt x="1016" y="128" on="1"/>
        <pt x="1016" y="137" on="0"/>
        <pt x="1012" y="163" on="0"/>
        <pt x="1008" y="173" on="1"/>
        <pt x="636" y="1129" on="1"/>
        <pt x="550" y="906" on="0"/>
        <pt x="337" y="354" on="0"/>
        <pt x="311" y="273" on="1"/>
        <pt x="298" y="233" on="0"/>
        <pt x="288" y="177" on="0"/>
        <pt x="288" y="159" on="1"/>
        <pt x="288" y="122" on="0"/>
        <pt x="399" y="78" on="0"/>
        <pt x="493" y="71" on="1"/>
        <pt x="493" y="0" on="1"/>
        <pt x="-41" y="0" on="1"/>
        <pt x="-41" y="71" on="1"/>
        <pt x="-15" y="73" on="0"/>
        <pt x="63" y="92" on="0"/>
        <pt x="88" y="108" on="1"/>
        <pt x="128" y="135" on="0"/>
        <pt x="172" y="194" on="0"/>
        <pt x="193" y="246" on="1"/>
        <pt x="312" y="542" on="0"/>
        <pt x="558" y="1173" on="0"/>
        <pt x="662" y="1439" on="1"/>
        <pt x="742" y="1439" on="1"/>
        <pt x="1218" y="215" on="1"/>
        <pt x="1233" y="177" on="0"/>
        <pt x="1271" y="128" on="0"/>
        <pt x="1305" y="105" on="1"/>
        <pt x="1328" y="91" on="0"/>
        <pt x="1402" y="72" on="0"/>
        <pt x="1427" y="71" on="1"/>
      </contour>
    </TTGlyph>
    <TTGlyph name="Lcaron" xMin="98" yMin="0" xMax="1237" yMax="1433">
      <component glyphName="L" x="0" y="0" flags="0x214"/>
      <component glyphName="quoteright" x="753" y="-96" flags="0x14"/>
    </TTGlyph>
    <TTGlyph name="Lcommaaccent" xMin="98" yMin="-444" xMax="1237" yMax="1419">
      <component glyphName="L" x="0" y="0" flags="0x214"/>
      <component glyphName="undercommaaccent" x="210" y="0" flags="0x14"/>
    </TTGlyph>
    <TTGlyph name="Ldot" xMin="98" yMin="0" xMax="1237" yMax="1419">
      <contour>
        <pt x="1237" y="422" on="1"/>
        <pt x="1207" y="0" on="1"/>
        <pt x="98" y="0" on="1"/>
        <pt x="98" y="71" on="1"/>
        <pt x="122" y="73" on="0"/>
        <pt x="213" y="83" on="0"/>
        <pt x="231" y="91" on="1"/>
        <pt x="261" y="104" on="0"/>
        <pt x="288" y="154" on="0"/>
        <pt x="288" y="193" on="1"/>
        <pt x="288" y="1209" on="1"/>
        <pt x="288" y="1243" on="0"/>
        <pt x="265" y="1295" on="0"/>
        <pt x="231" y="1311" on="1"/>
        <pt x="208" y="1323" on="0"/>
        <pt x="125" y="1346" on="0"/>
        <pt x="98" y="1348" on="1"/>
        <pt x="98" y="1419" on="1"/>
        <pt x="697" y="1419" on="1"/>
        <pt x="697" y="1348" on="1"/>
        <pt x="669" y="1347" on="0"/>
        <pt x="580" y="1329" on="0"/>
        <pt x="560" y="1322" on="1"/>
        <pt x="526" y="1310" on="0"/>
        <pt x="501" y="1252" on="0"/>
        <pt x="501" y="1219" on="1"/>
        <pt x="501" y="266" on="1"/>
        <pt x="501" y="200" on="0"/>
        <pt x="514" y="127" on="0"/>
        <pt x="538" y="107" on="1"/>
        <pt x="561" y="89" on="0"/>
        <pt x="652" y="78" on="0"/>
        <pt x="734" y="78" on="1"/>
        <pt x="771" y="78" on="0"/>
        <pt x="851" y="82" on="0"/>
        <pt x="887" y="88" on="1"/>
        <pt x="922" y="94" on="0"/>
        <pt x="981" y="115" on="0"/>
        <pt x="995" y="131" on="1"/>
        <pt x="1036" y="177" on="0"/>
        <pt x="1145" y="364" on="0"/>
        <pt x="1166" y="422" on="1"/>
      </contour>
      <contour>
        <pt x="1151" y="724" on="1"/>
        <pt x="1151" y="668" on="0"/>
        <pt x="1070" y="589" on="0"/>
        <pt x="1014" y="589" on="1"/>
        <pt x="958" y="589" on="0"/>
        <pt x="877" y="668" on="0"/>
        <pt x="877" y="724" on="1"/>
        <pt x="877" y="780" on="0"/>
        <pt x="958" y="861" on="0"/>
        <pt x="1014" y="861" on="1"/>
        <pt x="1070" y="861" on="0"/>
        <pt x="1151" y="780" on="0"/>
      </contour>
    </TTGlyph>
    <TTGlyph name="Lslash" xMin="90" yMin="0" xMax="1237" yMax="1419">
      <contour>
        <pt x="1237" y="422" on="1"/>
        <pt x="1207" y="0" on="1"/>
        <pt x="98" y="0" on="1"/>
        <pt x="98" y="71" on="1"/>
        <pt x="122" y="73" on="0"/>
        <pt x="213" y="83" on="0"/>
        <pt x="231" y="91" on="1"/>
        <pt x="261" y="104" on="0"/>
        <pt x="288" y="154" on="0"/>
        <pt x="288" y="193" on="1"/>
        <pt x="288" y="625" on="1"/>
        <pt x="125" y="557" on="1"/>
        <pt x="90" y="644" on="1"/>
        <pt x="288" y="725" on="1"/>
        <pt x="288" y="1209" on="1"/>
        <pt x="288" y="1243" on="0"/>
        <pt x="265" y="1295" on="0"/>
        <pt x="231" y="1311" on="1"/>
        <pt x="208" y="1323" on="0"/>
        <pt x="125" y="1346" on="0"/>
        <pt x="98" y="1348" on="1"/>
        <pt x="98" y="1419" on="1"/>
        <pt x="697" y="1419" on="1"/>
        <pt x="697" y="1348" on="1"/>
        <pt x="669" y="1347" on="0"/>
        <pt x="580" y="1329" on="0"/>
        <pt x="560" y="1322" on="1"/>
        <pt x="526" y="1310" on="0"/>
        <pt x="501" y="1252" on="0"/>
        <pt x="501" y="1219" on="1"/>
        <pt x="501" y="806" on="1"/>
        <pt x="772" y="919" on="1"/>
        <pt x="807" y="832" on="1"/>
        <pt x="501" y="707" on="1"/>
        <pt x="501" y="266" on="1"/>
        <pt x="501" y="200" on="0"/>
        <pt x="514" y="127" on="0"/>
        <pt x="538" y="107" on="1"/>
        <pt x="561" y="89" on="0"/>
        <pt x="652" y="78" on="0"/>
        <pt x="734" y="78" on="1"/>
        <pt x="771" y="78" on="0"/>
        <pt x="851" y="82" on="0"/>
        <pt x="887" y="88" on="1"/>
        <pt x="922" y="94" on="0"/>
        <pt x="981" y="115" on="0"/>
        <pt x="995" y="131" on="1"/>
        <pt x="1036" y="177" on="0"/>
        <pt x="1145" y="364" on="0"/>
        <pt x="1166" y="422" on="1"/>
      </contour>
    </TTGlyph>
    <TTGlyph name="M" xMin="48" yMin="0" xMax="1806" yMax="1419">
      <contour>
        <pt x="1806" y="0" on="1"/>
        <pt x="1179" y="0" on="1"/>
        <pt x="1179" y="71" on="1"/>
        <pt x="1213" y="72" on="0"/>
        <pt x="1320" y="84" on="0"/>
        <pt x="1340" y="95" on="1"/>
        <pt x="1371" y="114" on="0"/>
        <pt x="1400" y="163" on="0"/>
        <pt x="1400" y="200" on="1"/>
        <pt x="1400" y="1232" on="1"/>
        <pt x="1385" y="1232" on="1"/>
        <pt x="901" y="23" on="1"/>
        <pt x="851" y="23" on="1"/>
        <pt x="390" y="1257" on="1"/>
        <pt x="377" y="1257" on="1"/>
        <pt x="377" y="410" on="1"/>
        <pt x="377" y="287" on="0"/>
        <pt x="408" y="159" on="0"/>
        <pt x="440" y="131" on="1"/>
        <pt x="462" y="110" on="0"/>
        <pt x="600" y="72" on="0"/>
        <pt x="621" y="71" on="1"/>
        <pt x="621" y="0" on="1"/>
        <pt x="48" y="0" on="1"/>
        <pt x="48" y="71" on="1"/>
        <pt x="93" y="75" on="0"/>
        <pt x="192" y="97" on="0"/>
        <pt x="219" y="119" on="1"/>
        <pt x="254" y="147" on="0"/>
        <pt x="280" y="263" on="0"/>
        <pt x="280" y="399" on="1"/>
        <pt x="280" y="1125" on="1"/>
        <pt x="280" y="1188" on="0"/>
        <pt x="250" y="1268" on="0"/>
        <pt x="222" y="1293" on="1"/>
        <pt x="191" y="1320" on="0"/>
        <pt x="101" y="1346" on="0"/>
        <pt x="57" y="1348" on="1"/>
        <pt x="57" y="1419" on="1"/>
        <pt x="541" y="1419" on="1"/>
        <pt x="947" y="355" on="1"/>
        <pt x="1294" y="1245" on="1"/>
        <pt x="1313" y="1294" on="0"/>
        <pt x="1340" y="1401" on="0"/>
        <pt x="1341" y="1419" on="1"/>
        <pt x="1804" y="1419" on="1"/>
        <pt x="1804" y="1348" on="1"/>
        <pt x="1776" y="1347" on="0"/>
        <pt x="1689" y="1331" on="0"/>
        <pt x="1669" y="1324" on="1"/>
        <pt x="1635" y="1312" on="0"/>
        <pt x="1611" y="1256" on="0"/>
        <pt x="1611" y="1223" on="1"/>
        <pt x="1611" y="200" on="1"/>
        <pt x="1611" y="165" on="0"/>
        <pt x="1635" y="117" on="0"/>
        <pt x="1669" y="99" on="1"/>
        <pt x="1687" y="89" on="0"/>
        <pt x="1779" y="72" on="0"/>
        <pt x="1806" y="71" on="1"/>
      </contour>
    </TTGlyph>
    <TTGlyph name="Mu" xMin="48" yMin="0" xMax="1806" yMax="1419">
      <component glyphName="M" x="0" y="0" flags="0x214"/>
    </TTGlyph>
    <TTGlyph name="N" xMin="24" yMin="-14" xMax="1554" yMax="1419">
      <contour>
        <pt x="1554" y="1348" on="1"/>
        <pt x="1526" y="1347" on="0"/>
        <pt x="1410" y="1317" on="0"/>
        <pt x="1385" y="1301" on="1"/>
        <pt x="1349" y="1276" on="0"/>
        <pt x="1324" y="1134" on="0"/>
        <pt x="1324" y="1025" on="1"/>
        <pt x="1324" y="-14" on="1"/>
        <pt x="1237" y="-14" on="1"/>
        <pt x="377" y="1147" on="1"/>
        <pt x="377" y="415" on="1"/>
        <pt x="377" y="292" on="0"/>
        <pt x="408" y="160" on="0"/>
        <pt x="440" y="132" on="1"/>
        <pt x="463" y="110" on="0"/>
        <pt x="607" y="72" on="0"/>
        <pt x="630" y="71" on="1"/>
        <pt x="630" y="0" on="1"/>
        <pt x="48" y="0" on="1"/>
        <pt x="48" y="71" on="1"/>
        <pt x="75" y="73" on="0"/>
        <pt x="203" y="108" on="0"/>
        <pt x="219" y="122" on="1"/>
        <pt x="254" y="150" on="0"/>
        <pt x="280" y="265" on="0"/>
        <pt x="280" y="404" on="1"/>
        <pt x="280" y="1103" on="1"/>
        <pt x="280" y="1149" on="0"/>
        <pt x="248" y="1241" on="0"/>
        <pt x="221" y="1266" on="1"/>
        <pt x="185" y="1299" on="0"/>
        <pt x="62" y="1346" on="0"/>
        <pt x="24" y="1348" on="1"/>
        <pt x="24" y="1419" on="1"/>
        <pt x="429" y="1419" on="1"/>
        <pt x="1227" y="337" on="1"/>
        <pt x="1227" y="1012" on="1"/>
        <pt x="1227" y="1136" on="0"/>
        <pt x="1195" y="1269" on="0"/>
        <pt x="1165" y="1291" on="1"/>
        <pt x="1137" y="1310" on="0"/>
        <pt x="1010" y="1346" on="0"/>
        <pt x="977" y="1348" on="1"/>
        <pt x="977" y="1419" on="1"/>
        <pt x="1554" y="1419" on="1"/>
      </contour>
    </TTGlyph>
    <TTGlyph name="Nacute" xMin="24" yMin="-14" xMax="1554" yMax="1868">
      <component glyphName="N" x="0" y="0" flags="0x214"/>
      <component glyphName="Acute" x="368" y="0" flags="0x14"/>
    </TTGlyph>
    <TTGlyph name="Ncaron" xMin="24" yMin="-14" xMax="1554" yMax="1868">
      <component glyphName="N" x="0" y="0" flags="0x214"/>
      <component glyphName="Caron" x="269" y="0" flags="0x14"/>
    </TTGlyph>
    <TTGlyph name="Ncommaaccent" xMin="24" yMin="-444" xMax="1554" yMax="1419">
      <component glyphName="N" x="0" y="0" flags="0x214"/>
      <component glyphName="undercommaaccent" x="294" y="0" flags="0x14"/>
    </TTGlyph>
    <TTGlyph name="Ntilde" xMin="24" yMin="-14" xMax="1554" yMax="1858">
      <component glyphName="N" x="0" y="0" flags="0x214"/>
      <component glyphName="tilde" x="300" y="368" flags="0x14"/>
    </TTGlyph>
    <TTGlyph name="Nu" xMin="24" yMin="-14" xMax="1554" yMax="1419">
      <component glyphName="N" x="0" y="0" flags="0x214"/>
    </TTGlyph>
    <TTGlyph name="O" xMin="80" yMin="-34" xMax="1444" yMax="1453">
      <contour>
        <pt x="1244" y="1251" on="1"/>
        <pt x="1338" y="1153" on="0"/>
        <pt x="1444" y="876" on="0"/>
        <pt x="1444" y="708" on="1"/>
        <pt x="1444" y="539" on="0"/>
        <pt x="1336" y="263" on="0"/>
        <pt x="1240" y="166" on="1"/>
        <pt x="1147" y="70" on="0"/>
        <pt x="901" y="-34" on="0"/>
        <pt x="762" y="-34" on="1"/>
        <pt x="614" y="-34" on="0"/>
        <pt x="363" y="77" on="0"/>
        <pt x="273" y="176" on="1"/>
        <pt x="183" y="273" on="0"/>
        <pt x="80" y="550" on="0"/>
        <pt x="80" y="708" on="1"/>
        <pt x="80" y="881" on="0"/>
        <pt x="188" y="1152" on="0"/>
        <pt x="283" y="1251" on="1"/>
        <pt x="377" y="1349" on="0"/>
        <pt x="626" y="1453" on="0"/>
        <pt x="762" y="1453" on="1"/>
        <pt x="903" y="1453" on="0"/>
        <pt x="1153" y="1347" on="0"/>
      </contour>
      <contour>
        <pt x="1095" y="245" on="1"/>
        <pt x="1151" y="336" on="0"/>
        <pt x="1202" y="566" on="0"/>
        <pt x="1202" y="708" on="1"/>
        <pt x="1202" y="854" on="0"/>
        <pt x="1145" y="1098" on="0"/>
        <pt x="1090" y="1184" on="1"/>
        <pt x="1035" y="1269" on="0"/>
        <pt x="869" y="1364" on="0"/>
        <pt x="762" y="1364" on="1"/>
        <pt x="642" y="1364" on="0"/>
        <pt x="474" y="1254" on="0"/>
        <pt x="421" y="1162" on="1"/>
        <pt x="371" y="1074" on="0"/>
        <pt x="322" y="838" on="0"/>
        <pt x="322" y="708" on="1"/>
        <pt x="322" y="564" on="0"/>
        <pt x="374" y="332" on="0"/>
        <pt x="430" y="242" on="1"/>
        <pt x="484" y="154" on="0"/>
        <pt x="648" y="55" on="0"/>
        <pt x="762" y="55" on="1"/>
        <pt x="869" y="55" on="0"/>
        <pt x="1041" y="155" on="0"/>
      </contour>
    </TTGlyph>
    <TTGlyph name="OE" xMin="80" yMin="0" xMax="1996" yMax="1419">
      <contour>
        <pt x="1003" y="87" on="1"/>
        <pt x="1003" y="1331" on="1"/>
        <pt x="962" y="1333" on="0"/>
        <pt x="875" y="1336" on="0"/>
        <pt x="848" y="1336" on="1"/>
        <pt x="732" y="1336" on="0"/>
        <pt x="546" y="1267" on="0"/>
        <pt x="473" y="1190" on="1"/>
        <pt x="403" y="1117" on="0"/>
        <pt x="322" y="879" on="0"/>
        <pt x="322" y="717" on="1"/>
        <pt x="322" y="433" on="0"/>
        <pt x="621" y="82" on="0"/>
        <pt x="864" y="82" on="1"/>
        <pt x="891" y="82" on="0"/>
        <pt x="962" y="85" on="0"/>
      </contour>
      <contour>
        <pt x="1216" y="269" on="1"/>
        <pt x="1216" y="207" on="0"/>
        <pt x="1234" y="130" on="0"/>
        <pt x="1260" y="112" on="1"/>
        <pt x="1287" y="93" on="0"/>
        <pt x="1376" y="82" on="0"/>
        <pt x="1459" y="82" on="1"/>
        <pt x="1492" y="82" on="0"/>
        <pt x="1597" y="82" on="0"/>
        <pt x="1632" y="86" on="1"/>
        <pt x="1673" y="91" on="0"/>
        <pt x="1746" y="111" on="0"/>
        <pt x="1763" y="129" on="1"/>
        <pt x="1809" y="177" on="0"/>
        <pt x="1910" y="372" on="0"/>
        <pt x="1924" y="418" on="1"/>
        <pt x="1996" y="418" on="1"/>
        <pt x="1969" y="0" on="1"/>
        <pt x="815" y="0" on="1"/>
        <pt x="602" y="0" on="0"/>
        <pt x="243" y="199" on="0"/>
        <pt x="157" y="366" on="1"/>
        <pt x="121" y="436" on="0"/>
        <pt x="80" y="612" on="0"/>
        <pt x="80" y="719" on="1"/>
        <pt x="80" y="897" on="0"/>
        <pt x="212" y="1162" on="0"/>
        <pt x="323" y="1250" on="1"/>
        <pt x="431" y="1336" on="0"/>
        <pt x="709" y="1419" on="0"/>
        <pt x="850" y="1419" on="1"/>
        <pt x="1889" y="1419" on="1"/>
        <pt x="1889" y="1077" on="1"/>
        <pt x="1814" y="1077" on="1"/>
        <pt x="1795" y="1152" on="0"/>
        <pt x="1661" y="1324" on="0"/>
        <pt x="1601" y="1332" on="1"/>
        <pt x="1570" y="1336" on="0"/>
        <pt x="1484" y="1340" on="0"/>
        <pt x="1429" y="1340" on="1"/>
        <pt x="1216" y="1340" on="1"/>
        <pt x="1216" y="776" on="1"/>
        <pt x="1366" y="776" on="1"/>
        <pt x="1438" y="776" on="0"/>
        <pt x="1510" y="801" on="0"/>
        <pt x="1541" y="839" on="1"/>
        <pt x="1563" y="868" on="0"/>
        <pt x="1594" y="965" on="0"/>
        <pt x="1599" y="1008" on="1"/>
        <pt x="1674" y="1008" on="1"/>
        <pt x="1674" y="453" on="1"/>
        <pt x="1599" y="453" on="1"/>
        <pt x="1595" y="501" on="0"/>
        <pt x="1560" y="608" on="0"/>
        <pt x="1541" y="632" on="1"/>
        <pt x="1512" y="669" on="0"/>
        <pt x="1433" y="695" on="0"/>
        <pt x="1366" y="695" on="1"/>
        <pt x="1216" y="695" on="1"/>
      </contour>
    </TTGlyph>
    <TTGlyph name="Oacute" xMin="80" yMin="-34" xMax="1444" yMax="1868">
      <component glyphName="O" x="0" y="0" flags="0x214"/>
      <component glyphName="Acute" x="280" y="0" flags="0x14"/>
    </TTGlyph>
    <TTGlyph name="Obreve" xMin="80" yMin="-34" xMax="1444" yMax="1867">
      <component glyphName="O" x="0" y="0" flags="0x214"/>
      <component glyphName="Breve" x="250" y="0" flags="0x14"/>
    </TTGlyph>
    <TTGlyph name="Ocircumflex" xMin="80" yMin="-34" xMax="1444" yMax="1868">
      <component glyphName="O" x="0" y="0" flags="0x214"/>
      <component glyphName="Circumflex" x="250" y="0" flags="0x14"/>
    </TTGlyph>
    <TTGlyph name="Odieresis" xMin="80" yMin="-34" xMax="1444" yMax="1853">
      <component glyphName="O" x="0" y="0" flags="0x214"/>
      <component glyphName="Dieresis" x="250" y="0" flags="0x14"/>
    </TTGlyph>
    <TTGlyph name="Ograve" xMin="80" yMin="-34" xMax="1444" yMax="1868">
      <component glyphName="O" x="0" y="0" flags="0x214"/>
      <component glyphName="Grave" x="263" y="0" flags="0x14"/>
    </TTGlyph>
    <TTGlyph name="Ohm" xMin="6" yMin="0" xMax="1593" yMax="1453">
      <contour>
        <pt x="1101" y="179" on="1"/>
        <pt x="1324" y="179" on="1"/>
        <pt x="1393" y="179" on="0"/>
        <pt x="1499" y="312" on="0"/>
        <pt x="1531" y="388" on="1"/>
        <pt x="1593" y="366" on="1"/>
        <pt x="1476" y="0" on="1"/>
        <pt x="913" y="0" on="1"/>
        <pt x="913" y="68" on="1"/>
        <pt x="974" y="155" on="0"/>
        <pt x="1093" y="334" on="0"/>
        <pt x="1127" y="410" on="1"/>
        <pt x="1168" y="499" on="0"/>
        <pt x="1208" y="663" on="0"/>
        <pt x="1208" y="781" on="1"/>
        <pt x="1208" y="864" on="0"/>
        <pt x="1173" y="1083" on="0"/>
        <pt x="1132" y="1163" on="1"/>
        <pt x="1077" y="1267" on="0"/>
        <pt x="911" y="1364" on="0"/>
        <pt x="799" y="1364" on="1"/>
        <pt x="684" y="1364" on="0"/>
        <pt x="517" y="1258" on="0"/>
        <pt x="468" y="1162" on="1"/>
        <pt x="427" y="1083" on="0"/>
        <pt x="391" y="878" on="0"/>
        <pt x="391" y="781" on="1"/>
        <pt x="391" y="676" on="0"/>
        <pt x="431" y="498" on="0"/>
        <pt x="473" y="408" on="1"/>
        <pt x="511" y="326" on="0"/>
        <pt x="609" y="177" on="0"/>
        <pt x="686" y="68" on="1"/>
        <pt x="686" y="0" on="1"/>
        <pt x="123" y="0" on="1"/>
        <pt x="6" y="366" on="1"/>
        <pt x="68" y="388" on="1"/>
        <pt x="83" y="353" on="0"/>
        <pt x="122" y="282" on="0"/>
        <pt x="149" y="250" on="1"/>
        <pt x="175" y="218" on="0"/>
        <pt x="235" y="179" on="0"/>
        <pt x="275" y="179" on="1"/>
        <pt x="498" y="179" on="1"/>
        <pt x="498" y="212" on="1"/>
        <pt x="426" y="293" on="0"/>
        <pt x="289" y="458" on="0"/>
        <pt x="247" y="531" on="1"/>
        <pt x="201" y="610" on="0"/>
        <pt x="150" y="785" on="0"/>
        <pt x="150" y="893" on="1"/>
        <pt x="150" y="1127" on="0"/>
        <pt x="529" y="1453" on="0"/>
        <pt x="799" y="1453" on="1"/>
        <pt x="1069" y="1453" on="0"/>
        <pt x="1449" y="1127" on="0"/>
        <pt x="1449" y="893" on="1"/>
        <pt x="1449" y="787" on="0"/>
        <pt x="1398" y="608" on="0"/>
        <pt x="1353" y="531" on="1"/>
        <pt x="1307" y="453" on="0"/>
        <pt x="1179" y="298" on="0"/>
        <pt x="1101" y="212" on="1"/>
      </contour>
    </TTGlyph>
    <TTGlyph name="Ohungarumlaut" xMin="80" yMin="-34" xMax="1444" yMax="1867">
      <component glyphName="O" x="0" y="0" flags="0x214"/>
      <component glyphName="Hungarumlaut" x="353" y="0" flags="0x14"/>
    </TTGlyph>
    <TTGlyph name="Omacron" xMin="80" yMin="-34" xMax="1444" yMax="1785">
      <component glyphName="O" x="0" y="0" flags="0x214"/>
      <component glyphName="macron" x="251" y="366" flags="0x14"/>
    </TTGlyph>
    <TTGlyph name="Omega" xMin="30" yMin="0" xMax="1566" yMax="1453">
      <contour>
        <pt x="1566" y="388" on="1"/>
        <pt x="1497" y="0" on="1"/>
        <pt x="907" y="0" on="1"/>
        <pt x="907" y="68" on="1"/>
        <pt x="968" y="155" on="0"/>
        <pt x="1087" y="331" on="0"/>
        <pt x="1124" y="410" on="1"/>
        <pt x="1166" y="499" on="0"/>
        <pt x="1208" y="663" on="0"/>
        <pt x="1208" y="781" on="1"/>
        <pt x="1208" y="864" on="0"/>
        <pt x="1173" y="1083" on="0"/>
        <pt x="1132" y="1163" on="1"/>
        <pt x="1076" y="1269" on="0"/>
        <pt x="908" y="1364" on="0"/>
        <pt x="799" y="1364" on="1"/>
        <pt x="690" y="1364" on="0"/>
        <pt x="520" y="1264" on="0"/>
        <pt x="468" y="1162" on="1"/>
        <pt x="427" y="1083" on="0"/>
        <pt x="391" y="878" on="0"/>
        <pt x="391" y="781" on="1"/>
        <pt x="391" y="671" on="0"/>
        <pt x="435" y="492" on="0"/>
        <pt x="476" y="408" on="1"/>
        <pt x="515" y="325" on="0"/>
        <pt x="636" y="147" on="0"/>
        <pt x="692" y="68" on="1"/>
        <pt x="692" y="0" on="1"/>
        <pt x="99" y="0" on="1"/>
        <pt x="30" y="388" on="1"/>
        <pt x="99" y="388" on="1"/>
        <pt x="115" y="349" on="0"/>
        <pt x="142" y="284" on="0"/>
        <pt x="165" y="249" on="1"/>
        <pt x="186" y="216" on="0"/>
        <pt x="238" y="176" on="0"/>
        <pt x="278" y="176" on="1"/>
        <pt x="508" y="176" on="1"/>
        <pt x="508" y="209" on="1"/>
        <pt x="443" y="282" on="0"/>
        <pt x="293" y="463" on="0"/>
        <pt x="252" y="530" on="1"/>
        <pt x="205" y="606" on="0"/>
        <pt x="150" y="789" on="0"/>
        <pt x="150" y="893" on="1"/>
        <pt x="150" y="1008" on="0"/>
        <pt x="244" y="1205" on="0"/>
        <pt x="332" y="1285" on="1"/>
        <pt x="416" y="1361" on="0"/>
        <pt x="659" y="1453" on="0"/>
        <pt x="799" y="1453" on="1"/>
        <pt x="945" y="1453" on="0"/>
        <pt x="1186" y="1360" on="0"/>
        <pt x="1271" y="1283" on="1"/>
        <pt x="1356" y="1205" on="0"/>
        <pt x="1449" y="1004" on="0"/>
        <pt x="1449" y="893" on="1"/>
        <pt x="1449" y="789" on="0"/>
        <pt x="1397" y="610" on="0"/>
        <pt x="1348" y="529" on="1"/>
        <pt x="1298" y="448" on="0"/>
        <pt x="1159" y="284" on="0"/>
        <pt x="1091" y="209" on="1"/>
        <pt x="1091" y="176" on="1"/>
        <pt x="1318" y="176" on="1"/>
        <pt x="1355" y="176" on="0"/>
        <pt x="1411" y="217" on="0"/>
        <pt x="1431" y="249" on="1"/>
        <pt x="1454" y="285" on="0"/>
        <pt x="1482" y="351" on="0"/>
        <pt x="1497" y="388" on="1"/>
      </contour>
    </TTGlyph>
    <TTGlyph name="Omegatonos" xMin="0" yMin="0" xMax="1766" yMax="1489">
      <component glyphName="Omega" x="200" y="0" flags="0x14"/>
      <component glyphName="tonos" x="-370" y="-69" flags="0x14"/>
    </TTGlyph>
    <TTGlyph name="Omicron" xMin="80" yMin="-34" xMax="1444" yMax="1453">
      <component glyphName="O" x="0" y="0" flags="0x214"/>
    </TTGlyph>
    <TTGlyph name="Omicrontonos" xMin="0" yMin="-34" xMax="1664" yMax="1489">
      <component glyphName="O" x="220" y="0" flags="0x14"/>
      <component glyphName="tonos" x="-370" y="-69" flags="0x14"/>
    </TTGlyph>
    <TTGlyph name="Oslash" xMin="80" yMin="-85" xMax="1444" yMax="1476">
      <contour>
        <pt x="1444" y="708" on="1"/>
        <pt x="1444" y="537" on="0"/>
        <pt x="1333" y="260" on="0"/>
        <pt x="1240" y="165" on="1"/>
        <pt x="1147" y="69" on="0"/>
        <pt x="901" y="-35" on="0"/>
        <pt x="762" y="-35" on="1"/>
        <pt x="634" y="-35" on="0"/>
        <pt x="414" y="51" on="0"/>
        <pt x="329" y="125" on="1"/>
        <pt x="155" y="-85" on="1"/>
        <pt x="91" y="-35" on="1"/>
        <pt x="272" y="180" on="1"/>
        <pt x="182" y="279" on="0"/>
        <pt x="80" y="552" on="0"/>
        <pt x="80" y="708" on="1"/>
        <pt x="80" y="881" on="0"/>
        <pt x="188" y="1152" on="0"/>
        <pt x="283" y="1251" on="1"/>
        <pt x="377" y="1350" on="0"/>
        <pt x="627" y="1454" on="0"/>
        <pt x="762" y="1454" on="1"/>
        <pt x="884" y="1454" on="0"/>
        <pt x="1105" y="1371" on="0"/>
        <pt x="1195" y="1293" on="1"/>
        <pt x="1346" y="1476" on="1"/>
        <pt x="1411" y="1424" on="1"/>
        <pt x="1253" y="1236" on="1"/>
        <pt x="1341" y="1138" on="0"/>
        <pt x="1444" y="873" on="0"/>
      </contour>
      <contour>
        <pt x="1098" y="1176" on="1"/>
        <pt x="1040" y="1269" on="0"/>
        <pt x="872" y="1365" on="0"/>
        <pt x="762" y="1365" on="1"/>
        <pt x="643" y="1365" on="0"/>
        <pt x="475" y="1258" on="0"/>
        <pt x="419" y="1162" on="1"/>
        <pt x="369" y="1076" on="0"/>
        <pt x="319" y="837" on="0"/>
        <pt x="319" y="708" on="1"/>
        <pt x="319" y="592" on="0"/>
        <pt x="352" y="392" on="0"/>
        <pt x="385" y="315" on="1"/>
      </contour>
      <contour>
        <pt x="1098" y="244" on="1"/>
        <pt x="1153" y="336" on="0"/>
        <pt x="1205" y="566" on="0"/>
        <pt x="1205" y="708" on="1"/>
        <pt x="1205" y="822" on="0"/>
        <pt x="1173" y="1023" on="0"/>
        <pt x="1140" y="1102" on="1"/>
        <pt x="426" y="243" on="1"/>
        <pt x="480" y="155" on="0"/>
        <pt x="649" y="54" on="0"/>
        <pt x="762" y="54" on="1"/>
        <pt x="871" y="54" on="0"/>
        <pt x="1041" y="151" on="0"/>
      </contour>
    </TTGlyph>
    <TTGlyph name="Oslashacute" xMin="80" yMin="-85" xMax="1444" yMax="1868">
      <component glyphName="Oslash" x="0" y="0" flags="0x214"/>
      <component glyphName="Acute" x="280" y="0" flags="0x14"/>
    </TTGlyph>
    <TTGlyph name="Otilde" xMin="80" yMin="-34" xMax="1444" yMax="1858">
      <component glyphName="O" x="0" y="0" flags="0x214"/>
      <component glyphName="tilde" x="250" y="368" flags="0x14"/>
    </TTGlyph>
    <TTGlyph name="P" xMin="91" yMin="0" xMax="1184" yMax="1419">
      <contour>
        <pt x="1184" y="1069" on="1"/>
        <pt x="1184" y="958" on="0"/>
        <pt x="1097" y="787" on="0"/>
        <pt x="1020" y="731" on="1"/>
        <pt x="944" y="675" on="0"/>
        <pt x="762" y="623" on="0"/>
        <pt x="660" y="623" on="1"/>
        <pt x="501" y="623" on="1"/>
        <pt x="501" y="193" on="1"/>
        <pt x="501" y="158" on="0"/>
        <pt x="524" y="105" on="0"/>
        <pt x="560" y="91" on="1"/>
        <pt x="578" y="84" on="0"/>
        <pt x="669" y="72" on="0"/>
        <pt x="707" y="71" on="1"/>
        <pt x="707" y="0" on="1"/>
        <pt x="98" y="0" on="1"/>
        <pt x="98" y="71" on="1"/>
        <pt x="122" y="73" on="0"/>
        <pt x="213" y="83" on="0"/>
        <pt x="231" y="91" on="1"/>
        <pt x="261" y="104" on="0"/>
        <pt x="288" y="154" on="0"/>
        <pt x="288" y="193" on="1"/>
        <pt x="288" y="1217" on="1"/>
        <pt x="288" y="1252" on="0"/>
        <pt x="268" y="1308" on="0"/>
        <pt x="231" y="1322" on="1"/>
        <pt x="193" y="1335" on="0"/>
        <pt x="118" y="1346" on="0"/>
        <pt x="91" y="1348" on="1"/>
        <pt x="91" y="1419" on="1"/>
        <pt x="739" y="1419" on="1"/>
        <pt x="937" y="1419" on="0"/>
        <pt x="1184" y="1228" on="0"/>
      </contour>
      <contour>
        <pt x="880" y="827" on="1"/>
        <pt x="914" y="875" on="0"/>
        <pt x="936" y="978" on="0"/>
        <pt x="936" y="1019" on="1"/>
        <pt x="936" y="1076" on="0"/>
        <pt x="909" y="1194" on="0"/>
        <pt x="876" y="1238" on="1"/>
        <pt x="841" y="1285" on="0"/>
        <pt x="727" y="1337" on="0"/>
        <pt x="642" y="1337" on="1"/>
        <pt x="501" y="1337" on="1"/>
        <pt x="501" y="710" on="1"/>
        <pt x="603" y="710" on="1"/>
        <pt x="711" y="710" on="0"/>
        <pt x="846" y="777" on="0"/>
      </contour>
    </TTGlyph>
    <TTGlyph name="Phi" xMin="67" yMin="-10" xMax="1503" yMax="1433">
      <contour>
        <pt x="367" y="462" on="1"/>
        <pt x="418" y="376" on="0"/>
        <pt x="578" y="300" on="0"/>
        <pt x="681" y="300" on="1"/>
        <pt x="681" y="1132" on="1"/>
        <pt x="639" y="1132" on="1"/>
        <pt x="548" y="1132" on="0"/>
        <pt x="417" y="1060" on="0"/>
        <pt x="374" y="994" on="1"/>
        <pt x="338" y="937" on="0"/>
        <pt x="304" y="790" on="0"/>
        <pt x="304" y="715" on="1"/>
        <pt x="304" y="663" on="0"/>
        <pt x="323" y="538" on="0"/>
      </contour>
      <contour>
        <pt x="1202" y="462" on="1"/>
        <pt x="1241" y="529" on="0"/>
        <pt x="1266" y="666" on="0"/>
        <pt x="1266" y="715" on="1"/>
        <pt x="1266" y="779" on="0"/>
        <pt x="1232" y="937" on="0"/>
        <pt x="1196" y="994" on="1"/>
        <pt x="1158" y="1054" on="0"/>
        <pt x="1028" y="1132" on="0"/>
        <pt x="931" y="1132" on="1"/>
        <pt x="889" y="1132" on="1"/>
        <pt x="889" y="300" on="1"/>
        <pt x="998" y="300" on="0"/>
        <pt x="1157" y="387" on="0"/>
      </contour>
      <contour>
        <pt x="1325" y="351" on="1"/>
        <pt x="1243" y="287" on="0"/>
        <pt x="1020" y="219" on="0"/>
        <pt x="888" y="219" on="1"/>
        <pt x="888" y="174" on="1"/>
        <pt x="888" y="139" on="0"/>
        <pt x="911" y="93" on="0"/>
        <pt x="947" y="79" on="1"/>
        <pt x="965" y="72" on="0"/>
        <pt x="1054" y="61" on="0"/>
        <pt x="1092" y="60" on="1"/>
        <pt x="1092" y="-10" on="1"/>
        <pt x="491" y="-10" on="1"/>
        <pt x="491" y="60" on="1"/>
        <pt x="515" y="62" on="0"/>
        <pt x="606" y="71" on="0"/>
        <pt x="624" y="79" on="1"/>
        <pt x="654" y="92" on="0"/>
        <pt x="682" y="138" on="0"/>
        <pt x="682" y="174" on="1"/>
        <pt x="682" y="219" on="1"/>
        <pt x="550" y="219" on="0"/>
        <pt x="325" y="285" on="0"/>
        <pt x="242" y="351" on="1"/>
        <pt x="160" y="417" on="0"/>
        <pt x="67" y="611" on="0"/>
        <pt x="67" y="739" on="1"/>
        <pt x="67" y="837" on="0"/>
        <pt x="134" y="1003" on="0"/>
        <pt x="210" y="1071" on="1"/>
        <pt x="283" y="1136" on="0"/>
        <pt x="515" y="1211" on="0"/>
        <pt x="672" y="1211" on="1"/>
        <pt x="682" y="1211" on="1"/>
        <pt x="682" y="1238" on="1"/>
        <pt x="682" y="1271" on="0"/>
        <pt x="659" y="1317" on="0"/>
        <pt x="624" y="1332" on="1"/>
        <pt x="595" y="1345" on="0"/>
        <pt x="518" y="1361" on="0"/>
        <pt x="489" y="1363" on="1"/>
        <pt x="489" y="1433" on="1"/>
        <pt x="1081" y="1433" on="1"/>
        <pt x="1081" y="1363" on="1"/>
        <pt x="1052" y="1362" on="0"/>
        <pt x="976" y="1353" on="0"/>
        <pt x="947" y="1343" on="1"/>
        <pt x="913" y="1331" on="0"/>
        <pt x="888" y="1282" on="0"/>
        <pt x="888" y="1248" on="1"/>
        <pt x="888" y="1211" on="1"/>
        <pt x="898" y="1211" on="1"/>
        <pt x="1055" y="1211" on="0"/>
        <pt x="1285" y="1137" on="0"/>
        <pt x="1360" y="1071" on="1"/>
        <pt x="1434" y="1005" on="0"/>
        <pt x="1503" y="835" on="0"/>
        <pt x="1503" y="739" on="1"/>
        <pt x="1503" y="613" on="0"/>
        <pt x="1406" y="415" on="0"/>
      </contour>
    </TTGlyph>
    <TTGlyph name="Pi" xMin="98" yMin="0" xMax="1553" yMax="1419">
      <contour>
        <pt x="1553" y="0" on="1"/>
        <pt x="964" y="0" on="1"/>
        <pt x="964" y="71" on="1"/>
        <pt x="988" y="73" on="0"/>
        <pt x="1079" y="81" on="0"/>
        <pt x="1096" y="89" on="1"/>
        <pt x="1126" y="101" on="0"/>
        <pt x="1154" y="150" on="0"/>
        <pt x="1154" y="189" on="1"/>
        <pt x="1154" y="1329" on="1"/>
        <pt x="501" y="1329" on="1"/>
        <pt x="501" y="200" on="1"/>
        <pt x="501" y="165" on="0"/>
        <pt x="524" y="117" on="0"/>
        <pt x="558" y="99" on="1"/>
        <pt x="575" y="90" on="0"/>
        <pt x="662" y="72" on="0"/>
        <pt x="687" y="71" on="1"/>
        <pt x="687" y="0" on="1"/>
        <pt x="98" y="0" on="1"/>
        <pt x="98" y="71" on="1"/>
        <pt x="122" y="73" on="0"/>
        <pt x="213" y="81" on="0"/>
        <pt x="230" y="89" on="1"/>
        <pt x="260" y="101" on="0"/>
        <pt x="288" y="150" on="0"/>
        <pt x="288" y="189" on="1"/>
        <pt x="288" y="1213" on="1"/>
        <pt x="288" y="1245" on="0"/>
        <pt x="262" y="1298" on="0"/>
        <pt x="230" y="1313" on="1"/>
        <pt x="203" y="1326" on="0"/>
        <pt x="126" y="1346" on="0"/>
        <pt x="98" y="1348" on="1"/>
        <pt x="98" y="1419" on="1"/>
        <pt x="1553" y="1419" on="1"/>
        <pt x="1553" y="1348" on="1"/>
        <pt x="1525" y="1347" on="0"/>
        <pt x="1444" y="1331" on="0"/>
        <pt x="1424" y="1324" on="1"/>
        <pt x="1390" y="1312" on="0"/>
        <pt x="1367" y="1256" on="0"/>
        <pt x="1367" y="1223" on="1"/>
        <pt x="1367" y="200" on="1"/>
        <pt x="1367" y="165" on="0"/>
        <pt x="1390" y="117" on="0"/>
        <pt x="1424" y="99" on="1"/>
        <pt x="1441" y="90" on="0"/>
        <pt x="1528" y="72" on="0"/>
        <pt x="1553" y="71" on="1"/>
      </contour>
    </TTGlyph>
    <TTGlyph name="Psi" xMin="32" yMin="0" xMax="1759" yMax="1419">
      <contour>
        <pt x="1759" y="1348" on="1"/>
        <pt x="1736" y="1346" on="0"/>
        <pt x="1662" y="1335" on="0"/>
        <pt x="1631" y="1324" on="1"/>
        <pt x="1594" y="1311" on="0"/>
        <pt x="1574" y="1253" on="0"/>
        <pt x="1574" y="1223" on="1"/>
        <pt x="1574" y="930" on="1"/>
        <pt x="1574" y="804" on="0"/>
        <pt x="1492" y="623" on="0"/>
        <pt x="1416" y="566" on="1"/>
        <pt x="1341" y="509" on="0"/>
        <pt x="1131" y="452" on="0"/>
        <pt x="1002" y="448" on="1"/>
        <pt x="1002" y="208" on="1"/>
        <pt x="1002" y="172" on="0"/>
        <pt x="1031" y="119" on="0"/>
        <pt x="1066" y="103" on="1"/>
        <pt x="1083" y="95" on="0"/>
        <pt x="1197" y="72" on="0"/>
        <pt x="1223" y="71" on="1"/>
        <pt x="1223" y="0" on="1"/>
        <pt x="569" y="0" on="1"/>
        <pt x="569" y="71" on="1"/>
        <pt x="596" y="73" on="0"/>
        <pt x="704" y="84" on="0"/>
        <pt x="726" y="93" on="1"/>
        <pt x="762" y="108" on="0"/>
        <pt x="789" y="160" on="0"/>
        <pt x="789" y="198" on="1"/>
        <pt x="789" y="448" on="1"/>
        <pt x="661" y="452" on="0"/>
        <pt x="453" y="507" on="0"/>
        <pt x="376" y="565" on="1"/>
        <pt x="300" y="624" on="0"/>
        <pt x="217" y="800" on="0"/>
        <pt x="217" y="930" on="1"/>
        <pt x="217" y="1213" on="1"/>
        <pt x="217" y="1248" on="0"/>
        <pt x="194" y="1295" on="0"/>
        <pt x="159" y="1315" on="1"/>
        <pt x="132" y="1330" on="0"/>
        <pt x="55" y="1346" on="0"/>
        <pt x="32" y="1348" on="1"/>
        <pt x="32" y="1419" on="1"/>
        <pt x="431" y="1419" on="1"/>
        <pt x="431" y="912" on="1"/>
        <pt x="431" y="836" on="0"/>
        <pt x="460" y="712" on="0"/>
        <pt x="502" y="656" on="1"/>
        <pt x="542" y="604" on="0"/>
        <pt x="683" y="537" on="0"/>
        <pt x="789" y="532" on="1"/>
        <pt x="789" y="1213" on="1"/>
        <pt x="789" y="1245" on="0"/>
        <pt x="764" y="1298" on="0"/>
        <pt x="732" y="1313" on="1"/>
        <pt x="705" y="1326" on="0"/>
        <pt x="632" y="1346" on="0"/>
        <pt x="604" y="1348" on="1"/>
        <pt x="604" y="1419" on="1"/>
        <pt x="1183" y="1419" on="1"/>
        <pt x="1183" y="1348" on="1"/>
        <pt x="1154" y="1347" on="0"/>
        <pt x="1078" y="1331" on="0"/>
        <pt x="1058" y="1324" on="1"/>
        <pt x="1024" y="1312" on="0"/>
        <pt x="1002" y="1258" on="0"/>
        <pt x="1002" y="1223" on="1"/>
        <pt x="1002" y="532" on="1"/>
        <pt x="1112" y="539" on="0"/>
        <pt x="1250" y="604" on="0"/>
        <pt x="1290" y="657" on="1"/>
        <pt x="1328" y="707" on="0"/>
        <pt x="1360" y="838" on="0"/>
        <pt x="1360" y="912" on="1"/>
        <pt x="1360" y="1419" on="1"/>
        <pt x="1759" y="1419" on="1"/>
      </contour>
    </TTGlyph>
    <TTGlyph name="Q" xMin="80" yMin="-385" xMax="1444" yMax="1453">
      <contour>
        <pt x="1244" y="1251" on="1"/>
        <pt x="1338" y="1153" on="0"/>
        <pt x="1444" y="876" on="0"/>
        <pt x="1444" y="708" on="1"/>
        <pt x="1444" y="574" on="0"/>
        <pt x="1374" y="346" on="0"/>
        <pt x="1310" y="256" on="1"/>
        <pt x="1249" y="170" on="0"/>
        <pt x="1081" y="42" on="0"/>
        <pt x="977" y="5" on="1"/>
        <pt x="979" y="-105" on="0"/>
        <pt x="1133" y="-280" on="0"/>
        <pt x="1222" y="-280" on="1"/>
        <pt x="1304" y="-280" on="0"/>
        <pt x="1390" y="-269" on="0"/>
        <pt x="1418" y="-264" on="1"/>
        <pt x="1418" y="-343" on="1"/>
        <pt x="1373" y="-356" on="0"/>
        <pt x="1238" y="-385" on="0"/>
        <pt x="1118" y="-385" on="1"/>
        <pt x="1051" y="-385" on="0"/>
        <pt x="923" y="-346" on="0"/>
        <pt x="871" y="-303" on="1"/>
        <pt x="819" y="-260" on="0"/>
        <pt x="750" y="-128" on="0"/>
        <pt x="740" y="-32" on="1"/>
        <pt x="597" y="-27" on="0"/>
        <pt x="353" y="86" on="0"/>
        <pt x="266" y="184" on="1"/>
        <pt x="178" y="283" on="0"/>
        <pt x="80" y="550" on="0"/>
        <pt x="80" y="708" on="1"/>
        <pt x="80" y="881" on="0"/>
        <pt x="188" y="1152" on="0"/>
        <pt x="283" y="1251" on="1"/>
        <pt x="377" y="1349" on="0"/>
        <pt x="626" y="1453" on="0"/>
        <pt x="762" y="1453" on="1"/>
        <pt x="903" y="1453" on="0"/>
        <pt x="1153" y="1347" on="0"/>
      </contour>
      <contour>
        <pt x="1095" y="245" on="1"/>
        <pt x="1151" y="336" on="0"/>
        <pt x="1202" y="566" on="0"/>
        <pt x="1202" y="708" on="1"/>
        <pt x="1202" y="854" on="0"/>
        <pt x="1145" y="1098" on="0"/>
        <pt x="1090" y="1184" on="1"/>
        <pt x="1035" y="1269" on="0"/>
        <pt x="869" y="1364" on="0"/>
        <pt x="762" y="1364" on="1"/>
        <pt x="642" y="1364" on="0"/>
        <pt x="474" y="1254" on="0"/>
        <pt x="421" y="1162" on="1"/>
        <pt x="371" y="1074" on="0"/>
        <pt x="322" y="838" on="0"/>
        <pt x="322" y="708" on="1"/>
        <pt x="322" y="564" on="0"/>
        <pt x="374" y="332" on="0"/>
        <pt x="430" y="242" on="1"/>
        <pt x="484" y="154" on="0"/>
        <pt x="648" y="55" on="0"/>
        <pt x="762" y="55" on="1"/>
        <pt x="869" y="55" on="0"/>
        <pt x="1041" y="155" on="0"/>
      </contour>
    </TTGlyph>
    <TTGlyph name="R" xMin="98" yMin="0" xMax="1480" yMax="1419">
      <contour>
        <pt x="1480" y="0" on="1"/>
        <pt x="1098" y="0" on="1"/>
        <pt x="971" y="199" on="0"/>
        <pt x="766" y="489" on="0"/>
        <pt x="646" y="643" on="1"/>
        <pt x="501" y="643" on="1"/>
        <pt x="501" y="193" on="1"/>
        <pt x="501" y="158" on="0"/>
        <pt x="523" y="105" on="0"/>
        <pt x="559" y="91" on="1"/>
        <pt x="577" y="84" on="0"/>
        <pt x="667" y="72" on="0"/>
        <pt x="698" y="71" on="1"/>
        <pt x="698" y="0" on="1"/>
        <pt x="98" y="0" on="1"/>
        <pt x="98" y="71" on="1"/>
        <pt x="122" y="73" on="0"/>
        <pt x="213" y="83" on="0"/>
        <pt x="231" y="91" on="1"/>
        <pt x="261" y="104" on="0"/>
        <pt x="288" y="154" on="0"/>
        <pt x="288" y="193" on="1"/>
        <pt x="288" y="1219" on="1"/>
        <pt x="288" y="1254" on="0"/>
        <pt x="268" y="1308" on="0"/>
        <pt x="231" y="1322" on="1"/>
        <pt x="206" y="1331" on="0"/>
        <pt x="126" y="1346" on="0"/>
        <pt x="98" y="1348" on="1"/>
        <pt x="98" y="1419" on="1"/>
        <pt x="753" y="1419" on="1"/>
        <pt x="843" y="1419" on="0"/>
        <pt x="1001" y="1382" on="0"/>
        <pt x="1065" y="1341" on="1"/>
        <pt x="1127" y="1301" on="0"/>
        <pt x="1201" y="1172" on="0"/>
        <pt x="1201" y="1081" on="1"/>
        <pt x="1201" y="999" on="0"/>
        <pt x="1151" y="873" on="0"/>
        <pt x="1102" y="827" on="1"/>
        <pt x="1057" y="784" on="0"/>
        <pt x="931" y="721" on="0"/>
        <pt x="855" y="699" on="1"/>
        <pt x="960" y="560" on="0"/>
        <pt x="1099" y="370" on="0"/>
        <pt x="1200" y="234" on="1"/>
        <pt x="1244" y="174" on="0"/>
        <pt x="1315" y="117" on="0"/>
        <pt x="1350" y="99" on="1"/>
        <pt x="1376" y="86" on="0"/>
        <pt x="1454" y="72" on="0"/>
        <pt x="1480" y="71" on="1"/>
      </contour>
      <contour>
        <pt x="954" y="1058" on="1"/>
        <pt x="954" y="1187" on="0"/>
        <pt x="806" y="1338" on="0"/>
        <pt x="671" y="1338" on="1"/>
        <pt x="501" y="1338" on="1"/>
        <pt x="501" y="729" on="1"/>
        <pt x="632" y="729" on="1"/>
        <pt x="770" y="729" on="0"/>
        <pt x="954" y="906" on="0"/>
      </contour>
    </TTGlyph>
    <TTGlyph name="Racute" xMin="98" yMin="0" xMax="1480" yMax="1868">
      <component glyphName="R" x="0" y="0" flags="0x214"/>
      <component glyphName="Acute" x="268" y="0" flags="0x14"/>
    </TTGlyph>
    <TTGlyph name="Rcaron" xMin="98" yMin="0" xMax="1480" yMax="1868">
      <component glyphName="R" x="0" y="0" flags="0x214"/>
      <component glyphName="Caron" x="147" y="0" flags="0x14"/>
    </TTGlyph>
    <TTGlyph name="Rcommaaccent" xMin="98" yMin="-444" xMax="1480" yMax="1419">
      <component glyphName="R" x="0" y="0" flags="0x214"/>
      <component glyphName="undercommaaccent" x="299" y="0" flags="0x14"/>
    </TTGlyph>
    <TTGlyph name="Rho" xMin="91" yMin="0" xMax="1184" yMax="1419">
      <component glyphName="P" x="0" y="0" flags="0x214"/>
    </TTGlyph>
    <TTGlyph name="S" xMin="94" yMin="-29" xMax="1069" yMax="1451">
      <contour>
        <pt x="981" y="651" on="1"/>
        <pt x="1026" y="601" on="0"/>
        <pt x="1069" y="482" on="0"/>
        <pt x="1069" y="403" on="1"/>
        <pt x="1069" y="215" on="0"/>
        <pt x="791" y="-29" on="0"/>
        <pt x="585" y="-29" on="1"/>
        <pt x="490" y="-29" on="0"/>
        <pt x="300" y="30" on="0"/>
        <pt x="231" y="72" on="1"/>
        <pt x="188" y="-1" on="1"/>
        <pt x="108" y="-1" on="1"/>
        <pt x="94" y="485" on="1"/>
        <pt x="175" y="485" on="1"/>
        <pt x="200" y="395" on="0"/>
        <pt x="267" y="250" on="0"/>
        <pt x="322" y="187" on="1"/>
        <pt x="374" y="128" on="0"/>
        <pt x="513" y="58" on="0"/>
        <pt x="605" y="58" on="1"/>
        <pt x="674" y="58" on="0"/>
        <pt x="777" y="94" on="0"/>
        <pt x="809" y="127" on="1"/>
        <pt x="841" y="160" on="0"/>
        <pt x="872" y="249" on="0"/>
        <pt x="872" y="307" on="1"/>
        <pt x="872" y="392" on="0"/>
        <pt x="776" y="539" on="0"/>
        <pt x="681" y="577" on="1"/>
        <pt x="616" y="603" on="0"/>
        <pt x="448" y="666" on="0"/>
        <pt x="387" y="694" on="1"/>
        <pt x="267" y="748" on="0"/>
        <pt x="134" y="923" on="0"/>
        <pt x="134" y="1064" on="1"/>
        <pt x="134" y="1145" on="0"/>
        <pt x="200" y="1285" on="0"/>
        <pt x="261" y="1340" on="1"/>
        <pt x="319" y="1392" on="0"/>
        <pt x="477" y="1451" on="0"/>
        <pt x="563" y="1451" on="1"/>
        <pt x="661" y="1451" on="0"/>
        <pt x="816" y="1391" on="0"/>
        <pt x="880" y="1351" on="1"/>
        <pt x="921" y="1419" on="1"/>
        <pt x="1001" y="1419" on="1"/>
        <pt x="1009" y="948" on="1"/>
        <pt x="928" y="948" on="1"/>
        <pt x="906" y="1029" on="0"/>
        <pt x="851" y="1177" on="0"/>
        <pt x="807" y="1237" on="1"/>
        <pt x="764" y="1295" on="0"/>
        <pt x="640" y="1364" on="0"/>
        <pt x="550" y="1364" on="1"/>
        <pt x="455" y="1364" on="0"/>
        <pt x="321" y="1242" on="0"/>
        <pt x="321" y="1154" on="1"/>
        <pt x="321" y="1062" on="0"/>
        <pt x="407" y="941" on="0"/>
        <pt x="489" y="902" on="1"/>
        <pt x="562" y="867" on="0"/>
        <pt x="703" y="816" on="0"/>
        <pt x="769" y="787" on="1"/>
        <pt x="829" y="761" on="0"/>
        <pt x="940" y="695" on="0"/>
      </contour>
    </TTGlyph>
    <TTGlyph name="Sacute" xMin="94" yMin="-29" xMax="1069" yMax="1868">
      <component glyphName="S" x="0" y="0" flags="0x214"/>
      <component glyphName="Acute" x="124" y="0" flags="0x14"/>
    </TTGlyph>
    <TTGlyph name="Scaron" xMin="94" yMin="-29" xMax="1069" yMax="1868">
      <component glyphName="S" x="0" y="0" flags="0x214"/>
      <component glyphName="Caron" x="71" y="0" flags="0x14"/>
    </TTGlyph>
    <TTGlyph name="Scedilla" xMin="94" yMin="-444" xMax="1069" yMax="1451">
      <contour>
        <pt x="675" y="-282" on="1"/>
        <pt x="675" y="-233" on="0"/>
        <pt x="565" y="-207" on="0"/>
        <pt x="510" y="-207" on="1"/>
        <pt x="510" y="-192" on="0"/>
        <pt x="510" y="-36" on="0"/>
        <pt x="510" y="-24" on="1"/>
        <pt x="433" y="-15" on="0"/>
        <pt x="295" y="34" on="0"/>
        <pt x="231" y="72" on="1"/>
        <pt x="188" y="-1" on="1"/>
        <pt x="108" y="-1" on="1"/>
        <pt x="94" y="485" on="1"/>
        <pt x="175" y="485" on="1"/>
        <pt x="200" y="395" on="0"/>
        <pt x="267" y="250" on="0"/>
        <pt x="322" y="187" on="1"/>
        <pt x="374" y="128" on="0"/>
        <pt x="513" y="58" on="0"/>
        <pt x="605" y="58" on="1"/>
        <pt x="674" y="58" on="0"/>
        <pt x="777" y="94" on="0"/>
        <pt x="809" y="127" on="1"/>
        <pt x="841" y="160" on="0"/>
        <pt x="872" y="249" on="0"/>
        <pt x="872" y="307" on="1"/>
        <pt x="872" y="392" on="0"/>
        <pt x="776" y="539" on="0"/>
        <pt x="681" y="577" on="1"/>
        <pt x="616" y="603" on="0"/>
        <pt x="448" y="666" on="0"/>
        <pt x="387" y="694" on="1"/>
        <pt x="267" y="748" on="0"/>
        <pt x="134" y="923" on="0"/>
        <pt x="134" y="1064" on="1"/>
        <pt x="134" y="1145" on="0"/>
        <pt x="200" y="1285" on="0"/>
        <pt x="261" y="1340" on="1"/>
        <pt x="319" y="1392" on="0"/>
        <pt x="477" y="1451" on="0"/>
        <pt x="563" y="1451" on="1"/>
        <pt x="661" y="1451" on="0"/>
        <pt x="816" y="1391" on="0"/>
        <pt x="880" y="1351" on="1"/>
        <pt x="921" y="1419" on="1"/>
        <pt x="1001" y="1419" on="1"/>
        <pt x="1009" y="948" on="1"/>
        <pt x="928" y="948" on="1"/>
        <pt x="906" y="1029" on="0"/>
        <pt x="851" y="1177" on="0"/>
        <pt x="807" y="1237" on="1"/>
        <pt x="764" y="1295" on="0"/>
        <pt x="640" y="1364" on="0"/>
        <pt x="550" y="1364" on="1"/>
        <pt x="455" y="1364" on="0"/>
        <pt x="321" y="1242" on="0"/>
        <pt x="321" y="1154" on="1"/>
        <pt x="321" y="1062" on="0"/>
        <pt x="407" y="941" on="0"/>
        <pt x="489" y="902" on="1"/>
        <pt x="562" y="867" on="0"/>
        <pt x="703" y="816" on="0"/>
        <pt x="769" y="787" on="1"/>
        <pt x="829" y="761" on="0"/>
        <pt x="940" y="695" on="0"/>
        <pt x="981" y="651" on="1"/>
        <pt x="1026" y="601" on="0"/>
        <pt x="1069" y="482" on="0"/>
        <pt x="1069" y="403" on="1"/>
        <pt x="1069" y="218" on="0"/>
        <pt x="799" y="-28" on="0"/>
        <pt x="589" y="-28" on="1"/>
        <pt x="589" y="-99" on="1"/>
        <pt x="634" y="-99" on="0"/>
        <pt x="706" y="-110" on="0"/>
        <pt x="743" y="-129" on="1"/>
        <pt x="776" y="-146" on="0"/>
        <pt x="819" y="-204" on="0"/>
        <pt x="819" y="-248" on="1"/>
        <pt x="819" y="-306" on="0"/>
        <pt x="755" y="-386" on="0"/>
        <pt x="698" y="-408" on="1"/>
        <pt x="645" y="-429" on="0"/>
        <pt x="509" y="-444" on="0"/>
        <pt x="420" y="-444" on="1"/>
        <pt x="420" y="-372" on="1"/>
        <pt x="461" y="-372" on="0"/>
        <pt x="560" y="-369" on="0"/>
        <pt x="591" y="-362" on="1"/>
        <pt x="631" y="-353" on="0"/>
        <pt x="675" y="-316" on="0"/>
      </contour>
    </TTGlyph>
    <TTGlyph name="Scircumflex" xMin="94" yMin="-29" xMax="1069" yMax="1868">
      <component glyphName="S" x="0" y="0" flags="0x214"/>
      <component glyphName="Circumflex" x="79" y="0" flags="0x14"/>
    </TTGlyph>
    <TTGlyph name="Scommaaccent" xMin="94" yMin="-444" xMax="1069" yMax="1451">
      <component glyphName="S" x="0" y="0" flags="0x214"/>
      <component glyphName="undercommaaccent" x="101" y="0" flags="0x14"/>
    </TTGlyph>
    <TTGlyph name="Sigma" xMin="24" yMin="0" xMax="1201" yMax="1419">
      <contour>
        <pt x="1201" y="443" on="1"/>
        <pt x="1154" y="0" on="1"/>
        <pt x="24" y="0" on="1"/>
        <pt x="24" y="35" on="1"/>
        <pt x="595" y="671" on="1"/>
        <pt x="40" y="1384" on="1"/>
        <pt x="40" y="1419" on="1"/>
        <pt x="1110" y="1419" on="1"/>
        <pt x="1110" y="1042" on="1"/>
        <pt x="1039" y="1042" on="1"/>
        <pt x="1017" y="1142" on="0"/>
        <pt x="892" y="1319" on="0"/>
        <pt x="825" y="1330" on="1"/>
        <pt x="795" y="1335" on="0"/>
        <pt x="684" y="1340" on="0"/>
        <pt x="649" y="1340" on="1"/>
        <pt x="340" y="1340" on="1"/>
        <pt x="785" y="768" on="1"/>
        <pt x="785" y="752" on="1"/>
        <pt x="265" y="176" on="1"/>
        <pt x="918" y="176" on="1"/>
        <pt x="963" y="176" on="0"/>
        <pt x="1033" y="230" on="0"/>
        <pt x="1058" y="272" on="1"/>
        <pt x="1081" y="310" on="0"/>
        <pt x="1117" y="403" on="0"/>
        <pt x="1131" y="443" on="1"/>
      </contour>
    </TTGlyph>
    <TTGlyph name="T" xMin="15" yMin="0" xMax="1251" yMax="1419">
      <contour>
        <pt x="1251" y="1034" on="1"/>
        <pt x="1182" y="1034" on="1"/>
        <pt x="1173" y="1070" on="0"/>
        <pt x="1126" y="1169" on="0"/>
        <pt x="1097" y="1213" on="1"/>
        <pt x="1067" y="1259" on="0"/>
        <pt x="996" y="1328" on="0"/>
        <pt x="963" y="1333" on="1"/>
        <pt x="932" y="1337" on="0"/>
        <pt x="838" y="1341" on="0"/>
        <pt x="798" y="1341" on="1"/>
        <pt x="740" y="1341" on="1"/>
        <pt x="740" y="206" on="1"/>
        <pt x="740" y="173" on="0"/>
        <pt x="768" y="118" on="0"/>
        <pt x="803" y="103" on="1"/>
        <pt x="821" y="96" on="0"/>
        <pt x="936" y="72" on="0"/>
        <pt x="968" y="71" on="1"/>
        <pt x="968" y="0" on="1"/>
        <pt x="298" y="0" on="1"/>
        <pt x="298" y="71" on="1"/>
        <pt x="326" y="73" on="0"/>
        <pt x="441" y="85" on="0"/>
        <pt x="463" y="94" on="1"/>
        <pt x="496" y="107" on="0"/>
        <pt x="527" y="156" on="0"/>
        <pt x="527" y="197" on="1"/>
        <pt x="527" y="1341" on="1"/>
        <pt x="469" y="1341" on="1"/>
        <pt x="438" y="1341" on="0"/>
        <pt x="346" y="1338" on="0"/>
        <pt x="304" y="1333" on="1"/>
        <pt x="271" y="1329" on="0"/>
        <pt x="200" y="1258" on="0"/>
        <pt x="170" y="1213" on="1"/>
        <pt x="140" y="1168" on="0"/>
        <pt x="94" y="1067" on="0"/>
        <pt x="85" y="1034" on="1"/>
        <pt x="15" y="1034" on="1"/>
        <pt x="15" y="1419" on="1"/>
        <pt x="1251" y="1419" on="1"/>
      </contour>
    </TTGlyph>
    <TTGlyph name="Tau" xMin="15" yMin="0" xMax="1251" yMax="1419">
      <component glyphName="T" x="0" y="0" flags="0x214"/>
    </TTGlyph>
    <TTGlyph name="Tbar" xMin="15" yMin="0" xMax="1251" yMax="1419">
      <contour>
        <pt x="1251" y="1034" on="1"/>
        <pt x="1182" y="1034" on="1"/>
        <pt x="1173" y="1070" on="0"/>
        <pt x="1126" y="1169" on="0"/>
        <pt x="1097" y="1213" on="1"/>
        <pt x="1067" y="1259" on="0"/>
        <pt x="996" y="1328" on="0"/>
        <pt x="963" y="1333" on="1"/>
        <pt x="932" y="1337" on="0"/>
        <pt x="838" y="1341" on="0"/>
        <pt x="798" y="1341" on="1"/>
        <pt x="740" y="1341" on="1"/>
        <pt x="740" y="784" on="1"/>
        <pt x="1051" y="784" on="1"/>
        <pt x="1051" y="693" on="1"/>
        <pt x="740" y="693" on="1"/>
        <pt x="740" y="206" on="1"/>
        <pt x="740" y="173" on="0"/>
        <pt x="768" y="118" on="0"/>
        <pt x="803" y="103" on="1"/>
        <pt x="821" y="96" on="0"/>
        <pt x="936" y="72" on="0"/>
        <pt x="968" y="71" on="1"/>
        <pt x="968" y="0" on="1"/>
        <pt x="298" y="0" on="1"/>
        <pt x="298" y="71" on="1"/>
        <pt x="326" y="73" on="0"/>
        <pt x="441" y="85" on="0"/>
        <pt x="463" y="94" on="1"/>
        <pt x="496" y="107" on="0"/>
        <pt x="527" y="156" on="0"/>
        <pt x="527" y="197" on="1"/>
        <pt x="527" y="693" on="1"/>
        <pt x="216" y="693" on="1"/>
        <pt x="216" y="784" on="1"/>
        <pt x="527" y="784" on="1"/>
        <pt x="527" y="1341" on="1"/>
        <pt x="469" y="1341" on="1"/>
        <pt x="438" y="1341" on="0"/>
        <pt x="346" y="1338" on="0"/>
        <pt x="304" y="1333" on="1"/>
        <pt x="271" y="1329" on="0"/>
        <pt x="200" y="1258" on="0"/>
        <pt x="170" y="1213" on="1"/>
        <pt x="140" y="1168" on="0"/>
        <pt x="94" y="1067" on="0"/>
        <pt x="85" y="1034" on="1"/>
        <pt x="15" y="1034" on="1"/>
        <pt x="15" y="1419" on="1"/>
        <pt x="1251" y="1419" on="1"/>
      </contour>
    </TTGlyph>
    <TTGlyph name="Tcaron" xMin="15" yMin="0" xMax="1251" yMax="1868">
      <component glyphName="T" x="0" y="0" flags="0x214"/>
      <component glyphName="Caron" x="122" y="0" flags="0x14"/>
    </TTGlyph>
    <TTGlyph name="Tcommaaccent" xMin="15" yMin="-444" xMax="1251" yMax="1419">
      <component glyphName="T" x="0" y="0" flags="0x214"/>
      <component glyphName="undercommaaccent" x="160" y="0" flags="0x14"/>
    </TTGlyph>
    <TTGlyph name="Theta" xMin="80" yMin="-34" xMax="1444" yMax="1453">
      <contour>
        <pt x="1244" y="1251" on="1"/>
        <pt x="1338" y="1153" on="0"/>
        <pt x="1444" y="876" on="0"/>
        <pt x="1444" y="708" on="1"/>
        <pt x="1444" y="539" on="0"/>
        <pt x="1336" y="263" on="0"/>
        <pt x="1240" y="166" on="1"/>
        <pt x="1147" y="70" on="0"/>
        <pt x="901" y="-34" on="0"/>
        <pt x="762" y="-34" on="1"/>
        <pt x="614" y="-34" on="0"/>
        <pt x="363" y="77" on="0"/>
        <pt x="273" y="176" on="1"/>
        <pt x="183" y="273" on="0"/>
        <pt x="80" y="550" on="0"/>
        <pt x="80" y="708" on="1"/>
        <pt x="80" y="881" on="0"/>
        <pt x="188" y="1152" on="0"/>
        <pt x="283" y="1251" on="1"/>
        <pt x="377" y="1349" on="0"/>
        <pt x="626" y="1453" on="0"/>
        <pt x="762" y="1453" on="1"/>
        <pt x="903" y="1453" on="0"/>
        <pt x="1153" y="1347" on="0"/>
      </contour>
      <contour>
        <pt x="1097" y="244" on="1"/>
        <pt x="1153" y="335" on="0"/>
        <pt x="1205" y="565" on="0"/>
        <pt x="1205" y="708" on="1"/>
        <pt x="1205" y="853" on="0"/>
        <pt x="1147" y="1100" on="0"/>
        <pt x="1091" y="1184" on="1"/>
        <pt x="1035" y="1270" on="0"/>
        <pt x="870" y="1364" on="0"/>
        <pt x="762" y="1364" on="1"/>
        <pt x="642" y="1364" on="0"/>
        <pt x="473" y="1254" on="0"/>
        <pt x="420" y="1162" on="1"/>
        <pt x="368" y="1073" on="0"/>
        <pt x="319" y="837" on="0"/>
        <pt x="319" y="708" on="1"/>
        <pt x="319" y="561" on="0"/>
        <pt x="375" y="326" on="0"/>
        <pt x="428" y="242" on="1"/>
        <pt x="483" y="154" on="0"/>
        <pt x="648" y="55" on="0"/>
        <pt x="762" y="55" on="1"/>
        <pt x="873" y="55" on="0"/>
        <pt x="1044" y="157" on="0"/>
      </contour>
      <contour>
        <pt x="1046" y="481" on="1"/>
        <pt x="980" y="481" on="1"/>
        <pt x="972" y="524" on="0"/>
        <pt x="952" y="583" on="0"/>
        <pt x="939" y="602" on="1"/>
        <pt x="928" y="620" on="0"/>
        <pt x="844" y="633" on="0"/>
        <pt x="762" y="633" on="1"/>
        <pt x="658" y="633" on="0"/>
        <pt x="596" y="618" on="0"/>
        <pt x="585" y="602" on="1"/>
        <pt x="569" y="579" on="0"/>
        <pt x="551" y="518" on="0"/>
        <pt x="544" y="481" on="1"/>
        <pt x="478" y="481" on="1"/>
        <pt x="478" y="936" on="1"/>
        <pt x="544" y="936" on="1"/>
        <pt x="551" y="896" on="0"/>
        <pt x="570" y="840" on="0"/>
        <pt x="585" y="817" on="1"/>
        <pt x="596" y="799" on="0"/>
        <pt x="665" y="786" on="0"/>
        <pt x="762" y="786" on="1"/>
        <pt x="852" y="786" on="0"/>
        <pt x="928" y="799" on="0"/>
        <pt x="939" y="817" on="1"/>
        <pt x="957" y="845" on="0"/>
        <pt x="974" y="903" on="0"/>
        <pt x="980" y="936" on="1"/>
        <pt x="1046" y="936" on="1"/>
      </contour>
    </TTGlyph>
    <TTGlyph name="Thorn" xMin="96" yMin="0" xMax="1189" yMax="1419">
      <contour>
        <pt x="1189" y="757" on="1"/>
        <pt x="1189" y="643" on="0"/>
        <pt x="1101" y="477" on="0"/>
        <pt x="1029" y="425" on="1"/>
        <pt x="957" y="374" on="0"/>
        <pt x="774" y="323" on="0"/>
        <pt x="670" y="323" on="1"/>
        <pt x="501" y="323" on="1"/>
        <pt x="501" y="193" on="1"/>
        <pt x="501" y="158" on="0"/>
        <pt x="523" y="105" on="0"/>
        <pt x="559" y="91" on="1"/>
        <pt x="577" y="84" on="0"/>
        <pt x="666" y="72" on="0"/>
        <pt x="704" y="71" on="1"/>
        <pt x="704" y="0" on="1"/>
        <pt x="98" y="0" on="1"/>
        <pt x="98" y="71" on="1"/>
        <pt x="122" y="73" on="0"/>
        <pt x="213" y="83" on="0"/>
        <pt x="231" y="91" on="1"/>
        <pt x="261" y="104" on="0"/>
        <pt x="288" y="154" on="0"/>
        <pt x="288" y="193" on="1"/>
        <pt x="288" y="1215" on="1"/>
        <pt x="288" y="1248" on="0"/>
        <pt x="266" y="1298" on="0"/>
        <pt x="231" y="1313" on="1"/>
        <pt x="202" y="1326" on="0"/>
        <pt x="125" y="1346" on="0"/>
        <pt x="96" y="1348" on="1"/>
        <pt x="96" y="1419" on="1"/>
        <pt x="693" y="1419" on="1"/>
        <pt x="693" y="1348" on="1"/>
        <pt x="664" y="1347" on="0"/>
        <pt x="579" y="1331" on="0"/>
        <pt x="559" y="1324" on="1"/>
        <pt x="525" y="1312" on="0"/>
        <pt x="501" y="1259" on="0"/>
        <pt x="501" y="1225" on="1"/>
        <pt x="501" y="1132" on="1"/>
        <pt x="753" y="1132" on="1"/>
        <pt x="942" y="1132" on="0"/>
        <pt x="1189" y="926" on="0"/>
      </contour>
      <contour>
        <pt x="886" y="529" on="1"/>
        <pt x="920" y="579" on="0"/>
        <pt x="941" y="683" on="0"/>
        <pt x="941" y="725" on="1"/>
        <pt x="941" y="783" on="0"/>
        <pt x="913" y="903" on="0"/>
        <pt x="879" y="948" on="1"/>
        <pt x="842" y="996" on="0"/>
        <pt x="727" y="1049" on="0"/>
        <pt x="642" y="1049" on="1"/>
        <pt x="501" y="1049" on="1"/>
        <pt x="501" y="411" on="1"/>
        <pt x="610" y="411" on="1"/>
        <pt x="718" y="411" on="0"/>
        <pt x="852" y="479" on="0"/>
      </contour>
    </TTGlyph>
    <TTGlyph name="U" xMin="74" yMin="-34" xMax="1533" yMax="1419">
      <contour>
        <pt x="1533" y="1348" on="1"/>
        <pt x="1505" y="1347" on="0"/>
        <pt x="1397" y="1325" on="0"/>
        <pt x="1363" y="1303" on="1"/>
        <pt x="1329" y="1280" on="0"/>
        <pt x="1303" y="1136" on="0"/>
        <pt x="1303" y="1032" on="1"/>
        <pt x="1303" y="415" on="1"/>
        <pt x="1303" y="297" on="0"/>
        <pt x="1205" y="123" on="0"/>
        <pt x="1125" y="67" on="1"/>
        <pt x="1046" y="13" on="0"/>
        <pt x="871" y="-34" on="0"/>
        <pt x="791" y="-34" on="1"/>
        <pt x="663" y="-34" on="0"/>
        <pt x="463" y="33" on="0"/>
        <pt x="395" y="90" on="1"/>
        <pt x="328" y="147" on="0"/>
        <pt x="260" y="294" on="0"/>
        <pt x="260" y="374" on="1"/>
        <pt x="260" y="1213" on="1"/>
        <pt x="260" y="1248" on="0"/>
        <pt x="237" y="1295" on="0"/>
        <pt x="202" y="1315" on="1"/>
        <pt x="177" y="1329" on="0"/>
        <pt x="99" y="1346" on="0"/>
        <pt x="74" y="1348" on="1"/>
        <pt x="74" y="1419" on="1"/>
        <pt x="665" y="1419" on="1"/>
        <pt x="665" y="1348" on="1"/>
        <pt x="637" y="1347" on="0"/>
        <pt x="552" y="1331" on="0"/>
        <pt x="532" y="1324" on="1"/>
        <pt x="498" y="1312" on="0"/>
        <pt x="475" y="1256" on="0"/>
        <pt x="475" y="1223" on="1"/>
        <pt x="475" y="439" on="1"/>
        <pt x="475" y="382" on="0"/>
        <pt x="500" y="257" on="0"/>
        <pt x="537" y="203" on="1"/>
        <pt x="576" y="148" on="0"/>
        <pt x="710" y="78" on="0"/>
        <pt x="827" y="78" on="1"/>
        <pt x="937" y="78" on="0"/>
        <pt x="1086" y="148" on="0"/>
        <pt x="1129" y="205" on="1"/>
        <pt x="1170" y="259" on="0"/>
        <pt x="1204" y="377" on="0"/>
        <pt x="1204" y="437" on="1"/>
        <pt x="1204" y="1019" on="1"/>
        <pt x="1204" y="1130" on="0"/>
        <pt x="1172" y="1271" on="0"/>
        <pt x="1141" y="1293" on="1"/>
        <pt x="1106" y="1318" on="0"/>
        <pt x="985" y="1346" on="0"/>
        <pt x="953" y="1348" on="1"/>
        <pt x="953" y="1419" on="1"/>
        <pt x="1533" y="1419" on="1"/>
      </contour>
    </TTGlyph>
    <TTGlyph name="Uacute" xMin="74" yMin="-34" xMax="1533" yMax="1868">
      <component glyphName="U" x="0" y="0" flags="0x214"/>
      <component glyphName="Acute" x="327" y="0" flags="0x14"/>
    </TTGlyph>
    <TTGlyph name="Ubreve" xMin="74" yMin="-34" xMax="1533" yMax="1867">
      <component glyphName="U" x="0" y="0" flags="0x214"/>
      <component glyphName="Breve" x="306" y="0" flags="0x14"/>
    </TTGlyph>
    <TTGlyph name="Ucircumflex" xMin="74" yMin="-34" xMax="1533" yMax="1868">
      <component glyphName="U" x="0" y="0" flags="0x214"/>
      <component glyphName="Circumflex" x="298" y="0" flags="0x14"/>
    </TTGlyph>
    <TTGlyph name="Udieresis" xMin="74" yMin="-34" xMax="1533" yMax="1853">
      <component glyphName="U" x="0" y="0" flags="0x214"/>
      <component glyphName="Dieresis" x="303" y="0" flags="0x14"/>
    </TTGlyph>
    <TTGlyph name="Ugrave" xMin="74" yMin="-34" xMax="1533" yMax="1868">
      <component glyphName="U" x="0" y="0" flags="0x214"/>
      <component glyphName="Grave" x="253" y="0" flags="0x14"/>
    </TTGlyph>
    <TTGlyph name="Uhungarumlaut" xMin="74" yMin="-34" xMax="1533" yMax="1867">
      <component glyphName="U" x="0" y="0" flags="0x214"/>
      <component glyphName="Hungarumlaut" x="335" y="0" flags="0x14"/>
    </TTGlyph>
    <TTGlyph name="Umacron" xMin="74" yMin="-34" xMax="1533" yMax="1785">
      <component glyphName="U" x="0" y="0" flags="0x214"/>
      <component glyphName="macron" x="299" y="366" flags="0x14"/>
    </TTGlyph>
    <TTGlyph name="Uogonek" xMin="74" yMin="-444" xMax="1533" yMax="1419">
      <contour>
        <pt x="1007" y="-351" on="0"/>
        <pt x="1096" y="-373" on="0"/>
        <pt x="1160" y="-372" on="1"/>
        <pt x="1160" y="-444" on="1"/>
        <pt x="1045" y="-444" on="1"/>
        <pt x="917" y="-444" on="0"/>
        <pt x="778" y="-339" on="0"/>
        <pt x="778" y="-250" on="1"/>
        <pt x="778" y="-193" on="0"/>
        <pt x="848" y="-80" on="0"/>
        <pt x="927" y="-18" on="1"/>
        <pt x="891" y="-26" on="0"/>
        <pt x="827" y="-33" on="0"/>
        <pt x="791" y="-33" on="1"/>
        <pt x="663" y="-33" on="0"/>
        <pt x="463" y="33" on="0"/>
        <pt x="395" y="91" on="1"/>
        <pt x="327" y="149" on="0"/>
        <pt x="260" y="294" on="0"/>
        <pt x="260" y="374" on="1"/>
        <pt x="260" y="1213" on="1"/>
        <pt x="260" y="1248" on="0"/>
        <pt x="237" y="1295" on="0"/>
        <pt x="202" y="1315" on="1"/>
        <pt x="177" y="1329" on="0"/>
        <pt x="99" y="1346" on="0"/>
        <pt x="74" y="1348" on="1"/>
        <pt x="74" y="1419" on="1"/>
        <pt x="665" y="1419" on="1"/>
        <pt x="665" y="1348" on="1"/>
        <pt x="637" y="1347" on="0"/>
        <pt x="552" y="1331" on="0"/>
        <pt x="532" y="1324" on="1"/>
        <pt x="498" y="1312" on="0"/>
        <pt x="475" y="1256" on="0"/>
        <pt x="475" y="1223" on="1"/>
        <pt x="475" y="439" on="1"/>
        <pt x="475" y="382" on="0"/>
        <pt x="500" y="257" on="0"/>
        <pt x="537" y="203" on="1"/>
        <pt x="576" y="148" on="0"/>
        <pt x="710" y="78" on="0"/>
        <pt x="827" y="78" on="1"/>
        <pt x="937" y="78" on="0"/>
        <pt x="1086" y="148" on="0"/>
        <pt x="1129" y="205" on="1"/>
        <pt x="1170" y="259" on="0"/>
        <pt x="1204" y="377" on="0"/>
        <pt x="1204" y="437" on="1"/>
        <pt x="1204" y="1019" on="1"/>
        <pt x="1204" y="1130" on="0"/>
        <pt x="1172" y="1271" on="0"/>
        <pt x="1141" y="1293" on="1"/>
        <pt x="1106" y="1318" on="0"/>
        <pt x="985" y="1346" on="0"/>
        <pt x="953" y="1348" on="1"/>
        <pt x="953" y="1419" on="1"/>
        <pt x="1533" y="1419" on="1"/>
        <pt x="1533" y="1348" on="1"/>
        <pt x="1505" y="1347" on="0"/>
        <pt x="1397" y="1325" on="0"/>
        <pt x="1363" y="1303" on="1"/>
        <pt x="1329" y="1280" on="0"/>
        <pt x="1303" y="1136" on="0"/>
        <pt x="1303" y="1032" on="1"/>
        <pt x="1303" y="415" on="1"/>
        <pt x="1303" y="297" on="0"/>
        <pt x="1205" y="123" on="0"/>
        <pt x="1125" y="67" on="1"/>
        <pt x="1110" y="57" on="0"/>
        <pt x="1085" y="41" on="0"/>
        <pt x="1067" y="32" on="1"/>
        <pt x="1008" y="-16" on="0"/>
        <pt x="936" y="-130" on="0"/>
        <pt x="936" y="-217" on="1"/>
        <pt x="936" y="-253" on="0"/>
        <pt x="955" y="-308" on="0"/>
        <pt x="981" y="-329" on="1"/>
      </contour>
    </TTGlyph>
    <TTGlyph name="Upsilon" xMin="-44" yMin="0" xMax="1314" yMax="1419">
      <component glyphName="Y" x="0" y="0" flags="0x214"/>
    </TTGlyph>
    <TTGlyph name="Upsilondieresis" xMin="-44" yMin="0" xMax="1314" yMax="1853">
      <component glyphName="Y" x="0" y="0" flags="0x214"/>
      <component glyphName="Dieresis" x="157" y="0" flags="0x14"/>
    </TTGlyph>
    <TTGlyph name="Upsilontonos" xMin="0" yMin="0" xMax="1694" yMax="1489">
      <component glyphName="Y" x="380" y="0" flags="0x14"/>
      <component glyphName="tonos" x="-370" y="-69" flags="0x14"/>
    </TTGlyph>
    <TTGlyph name="Uring" xMin="74" yMin="-34" xMax="1533" yMax="1864">
      <component glyphName="U" x="0" y="0" flags="0x214"/>
      <component glyphName="ring" x="296" y="305" flags="0x14"/>
    </TTGlyph>
    <TTGlyph name="Utilde" xMin="74" yMin="-34" xMax="1533" yMax="1858">
      <component glyphName="U" x="0" y="0" flags="0x214"/>
      <component glyphName="tilde" x="304" y="368" flags="0x14"/>
    </TTGlyph>
    <TTGlyph name="V" xMin="-38" yMin="-18" xMax="1407" yMax="1419">
      <contour>
        <pt x="1407" y="1348" on="1"/>
        <pt x="1381" y="1347" on="0"/>
        <pt x="1307" y="1326" on="0"/>
        <pt x="1283" y="1311" on="1"/>
        <pt x="1249" y="1290" on="0"/>
        <pt x="1208" y="1224" on="0"/>
        <pt x="1188" y="1179" on="1"/>
        <pt x="1121" y="1020" on="0"/>
        <pt x="853" y="347" on="0"/>
        <pt x="711" y="-18" on="1"/>
        <pt x="628" y="-18" on="1"/>
        <pt x="484" y="369" on="0"/>
        <pt x="216" y="1087" on="0"/>
        <pt x="168" y="1213" on="1"/>
        <pt x="156" y="1244" on="0"/>
        <pt x="116" y="1291" on="0"/>
        <pt x="83" y="1312" on="1"/>
        <pt x="56" y="1329" on="0"/>
        <pt x="-10" y="1346" on="0"/>
        <pt x="-38" y="1348" on="1"/>
        <pt x="-38" y="1419" on="1"/>
        <pt x="549" y="1419" on="1"/>
        <pt x="549" y="1348" on="1"/>
        <pt x="474" y="1344" on="0"/>
        <pt x="371" y="1322" on="0"/>
        <pt x="371" y="1294" on="1"/>
        <pt x="371" y="1283" on="0"/>
        <pt x="379" y="1253" on="0"/>
        <pt x="382" y="1244" on="1"/>
        <pt x="419" y="1146" on="0"/>
        <pt x="585" y="703" on="0"/>
        <pt x="738" y="294" on="1"/>
        <pt x="814" y="479" on="0"/>
        <pt x="1012" y="983" on="0"/>
        <pt x="1046" y="1077" on="1"/>
        <pt x="1079" y="1168" on="0"/>
        <pt x="1090" y="1238" on="0"/>
        <pt x="1090" y="1260" on="1"/>
        <pt x="1090" y="1283" on="0"/>
        <pt x="1049" y="1314" on="0"/>
        <pt x="1015" y="1325" on="1"/>
        <pt x="982" y="1335" on="0"/>
        <pt x="914" y="1345" on="0"/>
        <pt x="879" y="1348" on="1"/>
        <pt x="879" y="1419" on="1"/>
        <pt x="1407" y="1419" on="1"/>
      </contour>
    </TTGlyph>
    <TTGlyph name="W" xMin="-4" yMin="-18" xMax="2028" yMax="1419">
      <contour>
        <pt x="2028" y="1348" on="1"/>
        <pt x="2003" y="1347" on="0"/>
        <pt x="1937" y="1326" on="0"/>
        <pt x="1909" y="1309" on="1"/>
        <pt x="1874" y="1287" on="0"/>
        <pt x="1831" y="1230" on="0"/>
        <pt x="1815" y="1179" on="1"/>
        <pt x="1744" y="948" on="0"/>
        <pt x="1556" y="331" on="0"/>
        <pt x="1447" y="-18" on="1"/>
        <pt x="1355" y="-18" on="1"/>
        <pt x="997" y="1074" on="1"/>
        <pt x="624" y="-18" on="1"/>
        <pt x="536" y="-18" on="1"/>
        <pt x="437" y="332" on="0"/>
        <pt x="225" y="1085" on="0"/>
        <pt x="189" y="1213" on="1"/>
        <pt x="180" y="1244" on="0"/>
        <pt x="145" y="1292" on="0"/>
        <pt x="115" y="1312" on="1"/>
        <pt x="90" y="1329" on="0"/>
        <pt x="23" y="1346" on="0"/>
        <pt x="-4" y="1348" on="1"/>
        <pt x="-4" y="1419" on="1"/>
        <pt x="575" y="1419" on="1"/>
        <pt x="575" y="1348" on="1"/>
        <pt x="499" y="1344" on="0"/>
        <pt x="392" y="1322" on="0"/>
        <pt x="392" y="1296" on="1"/>
        <pt x="392" y="1286" on="0"/>
        <pt x="398" y="1253" on="0"/>
        <pt x="400" y="1243" on="1"/>
        <pt x="423" y="1155" on="0"/>
        <pt x="540" y="750" on="0"/>
        <pt x="655" y="346" on="1"/>
        <pt x="1009" y="1399" on="1"/>
        <pt x="1107" y="1399" on="1"/>
        <pt x="1464" y="323" on="1"/>
        <pt x="1536" y="571" on="0"/>
        <pt x="1640" y="942" on="0"/>
        <pt x="1674" y="1074" on="1"/>
        <pt x="1698" y="1167" on="0"/>
        <pt x="1710" y="1236" on="0"/>
        <pt x="1710" y="1260" on="1"/>
        <pt x="1710" y="1294" on="0"/>
        <pt x="1617" y="1340" on="0"/>
        <pt x="1513" y="1348" on="1"/>
        <pt x="1513" y="1419" on="1"/>
        <pt x="2028" y="1419" on="1"/>
      </contour>
    </TTGlyph>
    <TTGlyph name="Wacute" xMin="-4" yMin="-18" xMax="2028" yMax="1868">
      <component glyphName="W" x="0" y="0" flags="0x214"/>
      <component glyphName="Acute" x="614" y="0" flags="0x14"/>
    </TTGlyph>
    <TTGlyph name="Wcircumflex" xMin="-4" yMin="-18" xMax="2028" yMax="1868">
      <component glyphName="W" x="0" y="0" flags="0x214"/>
      <component glyphName="Circumflex" x="547" y="0" flags="0x14"/>
    </TTGlyph>
    <TTGlyph name="Wdieresis" xMin="-4" yMin="-18" xMax="2028" yMax="1853">
      <component glyphName="W" x="0" y="0" flags="0x214"/>
      <component glyphName="Dieresis" x="545" y="0" flags="0x14"/>
    </TTGlyph>
    <TTGlyph name="Wgrave" xMin="-4" yMin="-18" xMax="2028" yMax="1868">
      <component glyphName="W" x="0" y="0" flags="0x214"/>
      <component glyphName="Grave" x="478" y="0" flags="0x14"/>
    </TTGlyph>
    <TTGlyph name="X" xMin="13" yMin="0" xMax="1457" yMax="1419">
      <contour>
        <pt x="1457" y="0" on="1"/>
        <pt x="793" y="0" on="1"/>
        <pt x="793" y="71" on="1"/>
        <pt x="875" y="73" on="0"/>
        <pt x="976" y="100" on="0"/>
        <pt x="976" y="128" on="1"/>
        <pt x="976" y="143" on="0"/>
        <pt x="930" y="237" on="0"/>
        <pt x="894" y="295" on="1"/>
        <pt x="854" y="359" on="0"/>
        <pt x="744" y="532" on="0"/>
        <pt x="690" y="611" on="1"/>
        <pt x="602" y="495" on="0"/>
        <pt x="378" y="168" on="0"/>
        <pt x="378" y="139" on="1"/>
        <pt x="378" y="106" on="0"/>
        <pt x="439" y="75" on="0"/>
        <pt x="543" y="71" on="1"/>
        <pt x="543" y="0" on="1"/>
        <pt x="13" y="0" on="1"/>
        <pt x="13" y="71" on="1"/>
        <pt x="39" y="73" on="0"/>
        <pt x="120" y="84" on="0"/>
        <pt x="146" y="97" on="1"/>
        <pt x="198" y="125" on="0"/>
        <pt x="261" y="190" on="0"/>
        <pt x="293" y="234" on="1"/>
        <pt x="357" y="322" on="0"/>
        <pt x="557" y="585" on="0"/>
        <pt x="634" y="693" on="1"/>
        <pt x="576" y="778" on="0"/>
        <pt x="396" y="1039" on="0"/>
        <pt x="294" y="1188" on="1"/>
        <pt x="251" y="1251" on="0"/>
        <pt x="202" y="1303" on="0"/>
        <pt x="161" y="1322" on="1"/>
        <pt x="137" y="1333" on="0"/>
        <pt x="52" y="1346" on="0"/>
        <pt x="27" y="1348" on="1"/>
        <pt x="27" y="1419" on="1"/>
        <pt x="684" y="1419" on="1"/>
        <pt x="684" y="1348" on="1"/>
        <pt x="626" y="1346" on="0"/>
        <pt x="501" y="1321" on="0"/>
        <pt x="501" y="1295" on="1"/>
        <pt x="501" y="1276" on="0"/>
        <pt x="551" y="1181" on="0"/>
        <pt x="585" y="1127" on="1"/>
        <pt x="620" y="1071" on="0"/>
        <pt x="706" y="935" on="0"/>
        <pt x="768" y="846" on="1"/>
        <pt x="881" y="999" on="0"/>
        <pt x="1045" y="1245" on="0"/>
        <pt x="1045" y="1282" on="1"/>
        <pt x="1045" y="1314" on="0"/>
        <pt x="970" y="1344" on="0"/>
        <pt x="881" y="1348" on="1"/>
        <pt x="881" y="1419" on="1"/>
        <pt x="1410" y="1419" on="1"/>
        <pt x="1410" y="1348" on="1"/>
        <pt x="1385" y="1347" on="0"/>
        <pt x="1304" y="1334" on="0"/>
        <pt x="1277" y="1322" on="1"/>
        <pt x="1225" y="1297" on="0"/>
        <pt x="1174" y="1239" on="0"/>
        <pt x="1131" y="1184" on="1"/>
        <pt x="1051" y="1081" on="0"/>
        <pt x="916" y="900" on="0"/>
        <pt x="821" y="770" on="1"/>
        <pt x="901" y="656" on="0"/>
        <pt x="1098" y="366" on="0"/>
        <pt x="1188" y="234" on="1"/>
        <pt x="1219" y="189" on="0"/>
        <pt x="1299" y="108" on="0"/>
        <pt x="1324" y="93" on="1"/>
        <pt x="1348" y="79" on="0"/>
        <pt x="1429" y="72" on="0"/>
        <pt x="1457" y="71" on="1"/>
      </contour>
    </TTGlyph>
    <TTGlyph name="Xi" xMin="116" yMin="0" xMax="1304" yMax="1419">
      <contour>
        <pt x="1274" y="989" on="1"/>
        <pt x="1204" y="989" on="1"/>
        <pt x="1193" y="1020" on="0"/>
        <pt x="1162" y="1120" on="0"/>
        <pt x="1144" y="1153" on="1"/>
        <pt x="1121" y="1193" on="0"/>
        <pt x="1064" y="1242" on="0"/>
        <pt x="1011" y="1243" on="1"/>
        <pt x="915" y="1245" on="0"/>
        <pt x="772" y="1248" on="0"/>
        <pt x="706" y="1248" on="1"/>
        <pt x="613" y="1248" on="0"/>
        <pt x="471" y="1244" on="0"/>
        <pt x="409" y="1243" on="1"/>
        <pt x="370" y="1243" on="0"/>
        <pt x="304" y="1201" on="0"/>
        <pt x="277" y="1153" on="1"/>
        <pt x="257" y="1117" on="0"/>
        <pt x="227" y="1018" on="0"/>
        <pt x="216" y="989" on="1"/>
        <pt x="146" y="989" on="1"/>
        <pt x="173" y="1419" on="1"/>
        <pt x="1247" y="1419" on="1"/>
      </contour>
      <contour>
        <pt x="1027" y="470" on="1"/>
        <pt x="957" y="470" on="1"/>
        <pt x="950" y="505" on="0"/>
        <pt x="929" y="572" on="0"/>
        <pt x="915" y="594" on="1"/>
        <pt x="901" y="618" on="0"/>
        <pt x="803" y="630" on="0"/>
        <pt x="710" y="630" on="1"/>
        <pt x="614" y="630" on="0"/>
        <pt x="519" y="617" on="0"/>
        <pt x="505" y="594" on="1"/>
        <pt x="488" y="566" on="0"/>
        <pt x="471" y="508" on="0"/>
        <pt x="463" y="470" on="1"/>
        <pt x="393" y="470" on="1"/>
        <pt x="393" y="949" on="1"/>
        <pt x="463" y="949" on="1"/>
        <pt x="471" y="907" on="0"/>
        <pt x="488" y="853" on="0"/>
        <pt x="505" y="825" on="1"/>
        <pt x="518" y="802" on="0"/>
        <pt x="616" y="789" on="0"/>
        <pt x="710" y="789" on="1"/>
        <pt x="799" y="789" on="0"/>
        <pt x="903" y="803" on="0"/>
        <pt x="915" y="825" on="1"/>
        <pt x="927" y="846" on="0"/>
        <pt x="948" y="903" on="0"/>
        <pt x="957" y="949" on="1"/>
        <pt x="1027" y="949" on="1"/>
      </contour>
      <contour>
        <pt x="1304" y="433" on="1"/>
        <pt x="1257" y="0" on="1"/>
        <pt x="163" y="0" on="1"/>
        <pt x="116" y="433" on="1"/>
        <pt x="186" y="433" on="1"/>
        <pt x="201" y="391" on="0"/>
        <pt x="230" y="313" on="0"/>
        <pt x="257" y="269" on="1"/>
        <pt x="281" y="232" on="0"/>
        <pt x="353" y="179" on="0"/>
        <pt x="399" y="179" on="1"/>
        <pt x="474" y="178" on="0"/>
        <pt x="626" y="174" on="0"/>
        <pt x="706" y="174" on="1"/>
        <pt x="781" y="174" on="0"/>
        <pt x="929" y="177" on="0"/>
        <pt x="1021" y="179" on="1"/>
        <pt x="1068" y="180" on="0"/>
        <pt x="1139" y="229" on="0"/>
        <pt x="1164" y="269" on="1"/>
        <pt x="1191" y="314" on="0"/>
        <pt x="1224" y="404" on="0"/>
        <pt x="1234" y="433" on="1"/>
      </contour>
    </TTGlyph>
    <TTGlyph name="Y" xMin="-44" yMin="0" xMax="1314" yMax="1419">
      <contour>
        <pt x="1314" y="1348" on="1"/>
        <pt x="1297" y="1347" on="0"/>
        <pt x="1223" y="1322" on="0"/>
        <pt x="1207" y="1310" on="1"/>
        <pt x="1168" y="1286" on="0"/>
        <pt x="1140" y="1260" on="0"/>
        <pt x="1100" y="1205" on="1"/>
        <pt x="1022" y="1095" on="0"/>
        <pt x="890" y="869" on="0"/>
        <pt x="791" y="695" on="1"/>
        <pt x="754" y="631" on="0"/>
        <pt x="730" y="553" on="0"/>
        <pt x="730" y="479" on="1"/>
        <pt x="730" y="208" on="1"/>
        <pt x="730" y="172" on="0"/>
        <pt x="759" y="119" on="0"/>
        <pt x="794" y="103" on="1"/>
        <pt x="815" y="95" on="0"/>
        <pt x="923" y="72" on="0"/>
        <pt x="956" y="71" on="1"/>
        <pt x="956" y="0" on="1"/>
        <pt x="292" y="0" on="1"/>
        <pt x="292" y="71" on="1"/>
        <pt x="320" y="73" on="0"/>
        <pt x="432" y="84" on="0"/>
        <pt x="454" y="93" on="1"/>
        <pt x="490" y="108" on="0"/>
        <pt x="517" y="160" on="0"/>
        <pt x="517" y="198" on="1"/>
        <pt x="517" y="543" on="1"/>
        <pt x="517" y="559" on="0"/>
        <pt x="478" y="644" on="0"/>
        <pt x="451" y="696" on="1"/>
        <pt x="391" y="812" on="0"/>
        <pt x="245" y="1082" on="0"/>
        <pt x="191" y="1178" on="1"/>
        <pt x="158" y="1235" on="0"/>
        <pt x="107" y="1293" on="0"/>
        <pt x="74" y="1315" on="1"/>
        <pt x="50" y="1330" on="0"/>
        <pt x="-17" y="1346" on="0"/>
        <pt x="-44" y="1348" on="1"/>
        <pt x="-44" y="1419" on="1"/>
        <pt x="561" y="1419" on="1"/>
        <pt x="561" y="1348" on="1"/>
        <pt x="459" y="1346" on="0"/>
        <pt x="375" y="1322" on="0"/>
        <pt x="375" y="1300" on="1"/>
        <pt x="375" y="1294" on="0"/>
        <pt x="387" y="1264" on="0"/>
        <pt x="398" y="1241" on="1"/>
        <pt x="411" y="1215" on="0"/>
        <pt x="447" y="1148" on="0"/>
        <pt x="463" y="1117" on="1"/>
        <pt x="510" y="1028" on="0"/>
        <pt x="608" y="851" on="0"/>
        <pt x="687" y="709" on="1"/>
        <pt x="844" y="962" on="0"/>
        <pt x="1009" y="1245" on="0"/>
        <pt x="1009" y="1273" on="1"/>
        <pt x="1009" y="1296" on="0"/>
        <pt x="975" y="1324" on="0"/>
        <pt x="947" y="1332" on="1"/>
        <pt x="918" y="1340" on="0"/>
        <pt x="850" y="1345" on="0"/>
        <pt x="821" y="1348" on="1"/>
        <pt x="821" y="1419" on="1"/>
        <pt x="1314" y="1419" on="1"/>
      </contour>
    </TTGlyph>
    <TTGlyph name="Yacute" xMin="-44" yMin="0" xMax="1314" yMax="1868">
      <component glyphName="Y" x="0" y="0" flags="0x214"/>
      <component glyphName="Acute" x="238" y="0" flags="0x14"/>
    </TTGlyph>
    <TTGlyph name="Ycircumflex" xMin="-44" yMin="0" xMax="1314" yMax="1868">
      <component glyphName="Y" x="0" y="0" flags="0x214"/>
      <component glyphName="Circumflex" x="165" y="0" flags="0x14"/>
    </TTGlyph>
    <TTGlyph name="Ydieresis" xMin="-44" yMin="0" xMax="1314" yMax="1853">
      <component glyphName="Y" x="0" y="0" flags="0x214"/>
      <component glyphName="Dieresis" x="157" y="0" flags="0x14"/>
    </TTGlyph>
    <TTGlyph name="Ygrave" xMin="-44" yMin="0" xMax="1314" yMax="1868">
      <component glyphName="Y" x="0" y="0" flags="0x214"/>
      <component glyphName="Grave" x="103" y="0" flags="0x14"/>
    </TTGlyph>
    <TTGlyph name="Z" xMin="27" yMin="0" xMax="1214" yMax="1419">
      <contour>
        <pt x="1214" y="443" on="1"/>
        <pt x="1167" y="0" on="1"/>
        <pt x="27" y="0" on="1"/>
        <pt x="27" y="35" on="1"/>
        <pt x="920" y="1340" on="1"/>
        <pt x="593" y="1340" on="1"/>
        <pt x="536" y="1340" on="0"/>
        <pt x="459" y="1336" on="0"/>
        <pt x="427" y="1330" on="1"/>
        <pt x="361" y="1317" on="0"/>
        <pt x="196" y="1125" on="0"/>
        <pt x="154" y="1018" on="1"/>
        <pt x="84" y="1018" on="1"/>
        <pt x="127" y="1419" on="1"/>
        <pt x="1190" y="1419" on="1"/>
        <pt x="1190" y="1384" on="1"/>
        <pt x="297" y="79" on="1"/>
        <pt x="634" y="79" on="1"/>
        <pt x="719" y="79" on="0"/>
        <pt x="911" y="103" on="0"/>
        <pt x="940" y="132" on="1"/>
        <pt x="1005" y="194" on="0"/>
        <pt x="1117" y="374" on="0"/>
        <pt x="1144" y="443" on="1"/>
      </contour>
    </TTGlyph>
    <TTGlyph name="Zacute" xMin="27" yMin="0" xMax="1214" yMax="1868">
      <component glyphName="Z" x="0" y="0" flags="0x214"/>
      <component glyphName="Acute" x="214" y="0" flags="0x14"/>
    </TTGlyph>
    <TTGlyph name="Zcaron" xMin="27" yMin="0" xMax="1214" yMax="1868">
      <component glyphName="Z" x="0" y="0" flags="0x214"/>
      <component glyphName="Caron" x="116" y="0" flags="0x14"/>
    </TTGlyph>
    <TTGlyph name="Zdotaccent" xMin="27" yMin="0" xMax="1214" yMax="1864">
      <component glyphName="Z" x="0" y="0" flags="0x214"/>
      <component glyphName="dotaccent" x="125" y="351" flags="0x14"/>
    </TTGlyph>
    <TTGlyph name="Zeta" xMin="27" yMin="0" xMax="1214" yMax="1419">
      <component glyphName="Z" x="0" y="0" flags="0x214"/>
    </TTGlyph>
    <TTGlyph name="a" xMin="80" yMin="-25" xMax="1006" yMax="1014">
      <contour>
        <pt x="1006" y="18" on="1"/>
        <pt x="959" y="1" on="0"/>
        <pt x="888" y="-20" on="0"/>
        <pt x="843" y="-20" on="1"/>
        <pt x="765" y="-20" on="0"/>
        <pt x="672" y="53" on="0"/>
        <pt x="659" y="123" on="1"/>
        <pt x="653" y="123" on="1"/>
        <pt x="588" y="51" on="0"/>
        <pt x="439" y="-25" on="0"/>
        <pt x="334" y="-25" on="1"/>
        <pt x="223" y="-25" on="0"/>
        <pt x="80" y="111" on="0"/>
        <pt x="80" y="221" on="1"/>
        <pt x="80" y="278" on="0"/>
        <pt x="112" y="368" on="0"/>
        <pt x="144" y="404" on="1"/>
        <pt x="169" y="434" on="0"/>
        <pt x="251" y="481" on="0"/>
        <pt x="287" y="495" on="1"/>
        <pt x="332" y="512" on="0"/>
        <pt x="607" y="604" on="0"/>
        <pt x="655" y="630" on="1"/>
        <pt x="655" y="729" on="1"/>
        <pt x="655" y="742" on="0"/>
        <pt x="644" y="816" on="0"/>
        <pt x="626" y="849" on="1"/>
        <pt x="606" y="886" on="0"/>
        <pt x="533" y="941" on="0"/>
        <pt x="466" y="941" on="1"/>
        <pt x="420" y="941" on="0"/>
        <pt x="341" y="910" on="0"/>
        <pt x="325" y="893" on="1"/>
        <pt x="325" y="873" on="0"/>
        <pt x="344" y="795" on="0"/>
        <pt x="344" y="762" on="1"/>
        <pt x="344" y="727" on="0"/>
        <pt x="281" y="669" on="0"/>
        <pt x="225" y="669" on="1"/>
        <pt x="175" y="669" on="0"/>
        <pt x="128" y="740" on="0"/>
        <pt x="128" y="784" on="1"/>
        <pt x="128" y="830" on="0"/>
        <pt x="193" y="914" on="0"/>
        <pt x="245" y="947" on="1"/>
        <pt x="290" y="975" on="0"/>
        <pt x="418" y="1014" on="0"/>
        <pt x="479" y="1014" on="1"/>
        <pt x="563" y="1014" on="0"/>
        <pt x="688" y="991" on="0"/>
        <pt x="739" y="953" on="1"/>
        <pt x="790" y="916" on="0"/>
        <pt x="843" y="789" on="0"/>
        <pt x="843" y="689" on="1"/>
        <pt x="843" y="546" on="0"/>
        <pt x="837" y="325" on="0"/>
        <pt x="837" y="194" on="1"/>
        <pt x="837" y="155" on="0"/>
        <pt x="864" y="109" on="0"/>
        <pt x="892" y="93" on="1"/>
        <pt x="907" y="84" on="0"/>
        <pt x="972" y="82" on="0"/>
        <pt x="1006" y="82" on="1"/>
      </contour>
      <contour>
        <pt x="657" y="546" on="1"/>
        <pt x="572" y="521" on="0"/>
        <pt x="444" y="473" on="0"/>
        <pt x="389" y="437" on="1"/>
        <pt x="339" y="403" on="0"/>
        <pt x="281" y="310" on="0"/>
        <pt x="281" y="246" on="1"/>
        <pt x="281" y="163" on="0"/>
        <pt x="368" y="85" on="0"/>
        <pt x="435" y="85" on="1"/>
        <pt x="506" y="85" on="0"/>
        <pt x="614" y="154" on="0"/>
        <pt x="651" y="201" on="1"/>
      </contour>
    </TTGlyph>
    <TTGlyph name="aacute" xMin="80" yMin="-25" xMax="1006" yMax="1538">
      <component glyphName="a" x="0" y="0" flags="0x214"/>
      <component glyphName="acute" x="42" y="0" flags="0x14"/>
    </TTGlyph>
    <TTGlyph name="abreve" xMin="80" yMin="-25" xMax="1006" yMax="1507">
      <component glyphName="a" x="0" y="0" flags="0x214"/>
      <component glyphName="breve" x="-18" y="0" flags="0x14"/>
    </TTGlyph>
    <TTGlyph name="acircumflex" xMin="80" yMin="-25" xMax="1006" yMax="1548">
      <component glyphName="a" x="0" y="0" flags="0x214"/>
      <component glyphName="circumflex" x="-20" y="6" flags="0x14"/>
    </TTGlyph>
    <TTGlyph name="acute" xMin="285" yMin="1110" xMax="696" yMax="1538">
      <contour>
        <pt x="696" y="1460" on="1"/>
        <pt x="696" y="1422" on="0"/>
        <pt x="661" y="1374" on="0"/>
        <pt x="627" y="1347" on="1"/>
        <pt x="577" y="1307" on="0"/>
        <pt x="416" y="1183" on="0"/>
        <pt x="323" y="1110" on="1"/>
        <pt x="285" y="1142" on="1"/>
        <pt x="375" y="1275" on="0"/>
        <pt x="446" y="1384" on="0"/>
        <pt x="487" y="1450" on="1"/>
        <pt x="518" y="1501" on="0"/>
        <pt x="576" y="1538" on="0"/>
        <pt x="614" y="1538" on="1"/>
        <pt x="650" y="1538" on="0"/>
        <pt x="696" y="1489" on="0"/>
      </contour>
    </TTGlyph>
    <TTGlyph name="adieresis" xMin="80" yMin="-25" xMax="1006" yMax="1487">
      <component glyphName="a" x="0" y="0" flags="0x214"/>
      <component glyphName="dieresis" x="-19" y="0" flags="0x14"/>
    </TTGlyph>
    <TTGlyph name="ae" xMin="81" yMin="-26" xMax="1468" yMax="1014">
      <contour>
        <pt x="1468" y="233" on="1"/>
        <pt x="1410" y="110" on="0"/>
        <pt x="1207" y="-26" on="0"/>
        <pt x="1084" y="-26" on="1"/>
        <pt x="957" y="-26" on="0"/>
        <pt x="781" y="65" on="0"/>
        <pt x="712" y="162" on="1"/>
        <pt x="706" y="162" on="1"/>
        <pt x="629" y="62" on="0"/>
        <pt x="456" y="-26" on="0"/>
        <pt x="339" y="-26" on="1"/>
        <pt x="226" y="-26" on="0"/>
        <pt x="81" y="107" on="0"/>
        <pt x="81" y="220" on="1"/>
        <pt x="81" y="281" on="0"/>
        <pt x="115" y="374" on="0"/>
        <pt x="144" y="409" on="1"/>
        <pt x="172" y="442" on="0"/>
        <pt x="245" y="486" on="0"/>
        <pt x="283" y="502" on="1"/>
        <pt x="421" y="557" on="0"/>
        <pt x="573" y="601" on="0"/>
        <pt x="642" y="622" on="1"/>
        <pt x="642" y="729" on="1"/>
        <pt x="642" y="743" on="0"/>
        <pt x="631" y="813" on="0"/>
        <pt x="613" y="850" on="1"/>
        <pt x="595" y="886" on="0"/>
        <pt x="526" y="941" on="0"/>
        <pt x="468" y="941" on="1"/>
        <pt x="418" y="941" on="0"/>
        <pt x="339" y="910" on="0"/>
        <pt x="323" y="893" on="1"/>
        <pt x="323" y="873" on="0"/>
        <pt x="342" y="795" on="0"/>
        <pt x="342" y="762" on="1"/>
        <pt x="342" y="727" on="0"/>
        <pt x="279" y="669" on="0"/>
        <pt x="223" y="669" on="1"/>
        <pt x="173" y="669" on="0"/>
        <pt x="126" y="740" on="0"/>
        <pt x="126" y="784" on="1"/>
        <pt x="126" y="832" on="0"/>
        <pt x="190" y="913" on="0"/>
        <pt x="241" y="946" on="1"/>
        <pt x="287" y="976" on="0"/>
        <pt x="418" y="1014" on="0"/>
        <pt x="472" y="1014" on="1"/>
        <pt x="572" y="1014" on="0"/>
        <pt x="734" y="964" on="0"/>
        <pt x="783" y="893" on="1"/>
        <pt x="834" y="946" on="0"/>
        <pt x="983" y="1014" on="0"/>
        <pt x="1063" y="1014" on="1"/>
        <pt x="1167" y="1014" on="0"/>
        <pt x="1311" y="947" on="0"/>
        <pt x="1355" y="892" on="1"/>
        <pt x="1401" y="836" on="0"/>
        <pt x="1443" y="691" on="0"/>
        <pt x="1443" y="607" on="1"/>
        <pt x="1443" y="549" on="1"/>
        <pt x="825" y="549" on="1"/>
        <pt x="825" y="321" on="0"/>
        <pt x="974" y="84" on="0"/>
        <pt x="1131" y="84" on="1"/>
        <pt x="1235" y="84" on="0"/>
        <pt x="1355" y="187" on="0"/>
        <pt x="1398" y="276" on="1"/>
      </contour>
      <contour>
        <pt x="1246" y="631" on="1"/>
        <pt x="1246" y="671" on="0"/>
        <pt x="1230" y="795" on="0"/>
        <pt x="1213" y="833" on="1"/>
        <pt x="1192" y="879" on="0"/>
        <pt x="1115" y="939" on="0"/>
        <pt x="1051" y="939" on="1"/>
        <pt x="951" y="939" on="0"/>
        <pt x="826" y="758" on="0"/>
        <pt x="825" y="631" on="1"/>
      </contour>
      <contour>
        <pt x="644" y="194" on="1"/>
        <pt x="644" y="537" on="1"/>
        <pt x="564" y="521" on="0"/>
        <pt x="442" y="479" on="0"/>
        <pt x="388" y="442" on="1"/>
        <pt x="337" y="407" on="0"/>
        <pt x="281" y="311" on="0"/>
        <pt x="281" y="248" on="1"/>
        <pt x="281" y="165" on="0"/>
        <pt x="360" y="86" on="0"/>
        <pt x="425" y="86" on="1"/>
        <pt x="501" y="86" on="0"/>
        <pt x="609" y="151" on="0"/>
      </contour>
    </TTGlyph>
    <TTGlyph name="aeacute" xMin="81" yMin="-26" xMax="1468" yMax="1538">
      <component glyphName="ae" x="0" y="0" flags="0x214"/>
      <component glyphName="acute" x="384" y="0" flags="0x14"/>
    </TTGlyph>
    <TTGlyph name="afii00208" xMin="232" yMin="497" xMax="1523" yMax="622">
      <contour>
        <pt x="1523" y="497" on="1"/>
        <pt x="232" y="497" on="1"/>
        <pt x="232" y="622" on="1"/>
        <pt x="1523" y="622" on="1"/>
      </contour>
    </TTGlyph>
    <TTGlyph name="afii10017" xMin="-41" yMin="0" xMax="1421" yMax="1439">
      <component glyphName="A" x="0" y="0" flags="0x214"/>
    </TTGlyph>
    <TTGlyph name="afii10018" xMin="95" yMin="0" xMax="1254" yMax="1419">
      <contour>
        <pt x="1006" y="435" on="1"/>
        <pt x="1006" y="571" on="0"/>
        <pt x="823" y="732" on="0"/>
        <pt x="672" y="732" on="1"/>
        <pt x="603" y="732" on="0"/>
        <pt x="522" y="729" on="0"/>
        <pt x="501" y="728" on="1"/>
        <pt x="501" y="208" on="1"/>
        <pt x="501" y="142" on="0"/>
        <pt x="579" y="79" on="0"/>
        <pt x="694" y="79" on="1"/>
        <pt x="846" y="79" on="0"/>
        <pt x="1006" y="262" on="0"/>
      </contour>
      <contour>
        <pt x="1254" y="418" on="1"/>
        <pt x="1254" y="311" on="0"/>
        <pt x="1169" y="149" on="0"/>
        <pt x="1097" y="98" on="1"/>
        <pt x="1029" y="49" on="0"/>
        <pt x="858" y="0" on="0"/>
        <pt x="767" y="0" on="1"/>
        <pt x="95" y="0" on="1"/>
        <pt x="95" y="71" on="1"/>
        <pt x="119" y="73" on="0"/>
        <pt x="211" y="86" on="0"/>
        <pt x="231" y="95" on="1"/>
        <pt x="262" y="109" on="0"/>
        <pt x="288" y="156" on="0"/>
        <pt x="288" y="193" on="1"/>
        <pt x="288" y="1213" on="1"/>
        <pt x="288" y="1247" on="0"/>
        <pt x="265" y="1299" on="0"/>
        <pt x="231" y="1315" on="1"/>
        <pt x="201" y="1330" on="0"/>
        <pt x="127" y="1346" on="0"/>
        <pt x="102" y="1348" on="1"/>
        <pt x="102" y="1419" on="1"/>
        <pt x="1168" y="1419" on="1"/>
        <pt x="1168" y="1072" on="1"/>
        <pt x="1093" y="1072" on="1"/>
        <pt x="1072" y="1151" on="0"/>
        <pt x="939" y="1324" on="0"/>
        <pt x="880" y="1332" on="1"/>
        <pt x="849" y="1336" on="0"/>
        <pt x="763" y="1340" on="0"/>
        <pt x="708" y="1340" on="1"/>
        <pt x="501" y="1340" on="1"/>
        <pt x="501" y="816" on="1"/>
        <pt x="550" y="817" on="0"/>
        <pt x="648" y="819" on="0"/>
        <pt x="694" y="819" on="1"/>
        <pt x="807" y="819" on="0"/>
        <pt x="1010" y="778" on="0"/>
        <pt x="1088" y="730" on="1"/>
        <pt x="1165" y="683" on="0"/>
        <pt x="1254" y="528" on="0"/>
      </contour>
    </TTGlyph>
    <TTGlyph name="afii10019" xMin="95" yMin="0" xMax="1248" yMax="1419">
      <component glyphName="B" x="0" y="0" flags="0x214"/>
    </TTGlyph>
    <TTGlyph name="afii10020" xMin="86" yMin="0" xMax="1179" yMax="1419">
      <contour>
        <pt x="1179" y="1022" on="1"/>
        <pt x="1104" y="1022" on="1"/>
        <pt x="1094" y="1061" on="0"/>
        <pt x="1060" y="1149" on="0"/>
        <pt x="1026" y="1205" on="1"/>
        <pt x="994" y="1257" on="0"/>
        <pt x="927" y="1325" on="0"/>
        <pt x="883" y="1331" on="1"/>
        <pt x="849" y="1336" on="0"/>
        <pt x="750" y="1340" on="0"/>
        <pt x="705" y="1340" on="1"/>
        <pt x="501" y="1340" on="1"/>
        <pt x="501" y="202" on="1"/>
        <pt x="501" y="168" on="0"/>
        <pt x="533" y="117" on="0"/>
        <pt x="565" y="101" on="1"/>
        <pt x="585" y="92" on="0"/>
        <pt x="690" y="72" on="0"/>
        <pt x="723" y="71" on="1"/>
        <pt x="723" y="0" on="1"/>
        <pt x="86" y="0" on="1"/>
        <pt x="86" y="71" on="1"/>
        <pt x="116" y="73" on="0"/>
        <pt x="216" y="82" on="0"/>
        <pt x="231" y="89" on="1"/>
        <pt x="261" y="102" on="0"/>
        <pt x="288" y="153" on="0"/>
        <pt x="288" y="189" on="1"/>
        <pt x="288" y="1213" on="1"/>
        <pt x="288" y="1246" on="0"/>
        <pt x="266" y="1297" on="0"/>
        <pt x="231" y="1313" on="1"/>
        <pt x="204" y="1326" on="0"/>
        <pt x="113" y="1346" on="0"/>
        <pt x="86" y="1348" on="1"/>
        <pt x="86" y="1419" on="1"/>
        <pt x="1179" y="1419" on="1"/>
      </contour>
    </TTGlyph>
    <TTGlyph name="afii10021" xMin="-1" yMin="-331" xMax="1393" yMax="1419">
      <contour>
        <pt x="978" y="177" on="1"/>
        <pt x="978" y="1335" on="1"/>
        <pt x="580" y="1335" on="1"/>
        <pt x="580" y="978" on="0"/>
        <pt x="401" y="312" on="0"/>
        <pt x="265" y="87" on="1"/>
        <pt x="885" y="87" on="1"/>
        <pt x="933" y="87" on="0"/>
        <pt x="978" y="131" on="0"/>
      </contour>
      <contour>
        <pt x="300" y="3" on="1"/>
        <pt x="260" y="-2" on="0"/>
        <pt x="185" y="-83" on="0"/>
        <pt x="155" y="-135" on="1"/>
        <pt x="127" y="-183" on="0"/>
        <pt x="83" y="-300" on="0"/>
        <pt x="74" y="-331" on="1"/>
        <pt x="-1" y="-331" on="1"/>
        <pt x="-1" y="87" on="1"/>
        <pt x="137" y="87" on="1"/>
        <pt x="258" y="269" on="0"/>
        <pt x="457" y="897" on="0"/>
        <pt x="457" y="1142" on="1"/>
        <pt x="457" y="1217" on="0"/>
        <pt x="430" y="1296" on="0"/>
        <pt x="392" y="1314" on="1"/>
        <pt x="367" y="1326" on="0"/>
        <pt x="259" y="1345" on="0"/>
        <pt x="234" y="1348" on="1"/>
        <pt x="234" y="1419" on="1"/>
        <pt x="1377" y="1419" on="1"/>
        <pt x="1377" y="1348" on="1"/>
        <pt x="1349" y="1347" on="0"/>
        <pt x="1268" y="1331" on="0"/>
        <pt x="1248" y="1324" on="1"/>
        <pt x="1214" y="1312" on="0"/>
        <pt x="1191" y="1256" on="0"/>
        <pt x="1191" y="1223" on="1"/>
        <pt x="1191" y="185" on="1"/>
        <pt x="1191" y="129" on="0"/>
        <pt x="1247" y="86" on="0"/>
        <pt x="1309" y="86" on="1"/>
        <pt x="1393" y="86" on="1"/>
        <pt x="1393" y="-331" on="1"/>
        <pt x="1318" y="-331" on="1"/>
        <pt x="1308" y="-292" on="0"/>
        <pt x="1276" y="-198" on="0"/>
        <pt x="1242" y="-135" on="1"/>
        <pt x="1212" y="-79" on="0"/>
        <pt x="1146" y="-3" on="0"/>
        <pt x="1102" y="3" on="1"/>
      </contour>
    </TTGlyph>
    <TTGlyph name="afii10022" xMin="86" yMin="0" xMax="1291" yMax="1419">
      <component glyphName="E" x="0" y="0" flags="0x214"/>
    </TTGlyph>
    <TTGlyph name="afii10023" xMin="86" yMin="0" xMax="1291" yMax="1853">
      <component glyphName="E" x="0" y="0" flags="0x214"/>
      <component glyphName="Dieresis" x="176" y="0" flags="0x14"/>
    </TTGlyph>
    <TTGlyph name="afii10024" xMin="-24" yMin="0" xMax="2040" yMax="1432">
      <contour>
        <pt x="2040" y="0" on="1"/>
        <pt x="1649" y="0" on="1"/>
        <pt x="1608" y="116" on="0"/>
        <pt x="1530" y="307" on="0"/>
        <pt x="1489" y="397" on="1"/>
        <pt x="1423" y="546" on="0"/>
        <pt x="1288" y="654" on="0"/>
        <pt x="1175" y="654" on="1"/>
        <pt x="1114" y="654" on="1"/>
        <pt x="1114" y="200" on="1"/>
        <pt x="1114" y="167" on="0"/>
        <pt x="1139" y="115" on="0"/>
        <pt x="1172" y="99" on="1"/>
        <pt x="1188" y="92" on="0"/>
        <pt x="1275" y="72" on="0"/>
        <pt x="1304" y="71" on="1"/>
        <pt x="1304" y="0" on="1"/>
        <pt x="716" y="0" on="1"/>
        <pt x="716" y="71" on="1"/>
        <pt x="739" y="73" on="0"/>
        <pt x="827" y="81" on="0"/>
        <pt x="845" y="89" on="1"/>
        <pt x="875" y="102" on="0"/>
        <pt x="902" y="153" on="0"/>
        <pt x="902" y="189" on="1"/>
        <pt x="902" y="654" on="1"/>
        <pt x="841" y="654" on="1"/>
        <pt x="726" y="654" on="0"/>
        <pt x="595" y="553" on="0"/>
        <pt x="525" y="397" on="1"/>
        <pt x="485" y="310" on="0"/>
        <pt x="399" y="94" on="0"/>
        <pt x="365" y="0" on="1"/>
        <pt x="-24" y="0" on="1"/>
        <pt x="-24" y="71" on="1"/>
        <pt x="-1" y="74" on="0"/>
        <pt x="55" y="79" on="0"/>
        <pt x="83" y="84" on="1"/>
        <pt x="125" y="92" on="0"/>
        <pt x="179" y="144" on="0"/>
        <pt x="205" y="201" on="1"/>
        <pt x="227" y="251" on="0"/>
        <pt x="293" y="388" on="0"/>
        <pt x="322" y="452" on="1"/>
        <pt x="373" y="564" on="0"/>
        <pt x="518" y="697" on="0"/>
        <pt x="623" y="726" on="1"/>
        <pt x="623" y="740" on="1"/>
        <pt x="583" y="776" on="0"/>
        <pt x="525" y="854" on="0"/>
        <pt x="503" y="899" on="1"/>
        <pt x="482" y="941" on="0"/>
        <pt x="454" y="1023" on="0"/>
        <pt x="440" y="1068" on="1"/>
        <pt x="430" y="1102" on="0"/>
        <pt x="404" y="1189" on="0"/>
        <pt x="391" y="1219" on="1"/>
        <pt x="376" y="1252" on="0"/>
        <pt x="336" y="1307" on="0"/>
        <pt x="308" y="1325" on="1"/>
        <pt x="297" y="1303" on="0"/>
        <pt x="263" y="1244" on="0"/>
        <pt x="248" y="1229" on="1"/>
        <pt x="227" y="1208" on="0"/>
        <pt x="187" y="1188" on="0"/>
        <pt x="148" y="1188" on="1"/>
        <pt x="94" y="1188" on="0"/>
        <pt x="44" y="1261" on="0"/>
        <pt x="44" y="1302" on="1"/>
        <pt x="44" y="1328" on="0"/>
        <pt x="63" y="1372" on="0"/>
        <pt x="84" y="1392" on="1"/>
        <pt x="104" y="1410" on="0"/>
        <pt x="169" y="1432" on="0"/>
        <pt x="213" y="1432" on="1"/>
        <pt x="277" y="1432" on="0"/>
        <pt x="379" y="1387" on="0"/>
        <pt x="420" y="1346" on="1"/>
        <pt x="474" y="1291" on="0"/>
        <pt x="540" y="1135" on="0"/>
        <pt x="563" y="1061" on="1"/>
        <pt x="591" y="972" on="0"/>
        <pt x="633" y="850" on="0"/>
        <pt x="684" y="800" on="1"/>
        <pt x="716" y="769" on="0"/>
        <pt x="785" y="737" on="0"/>
        <pt x="822" y="737" on="1"/>
        <pt x="902" y="737" on="1"/>
        <pt x="902" y="1213" on="1"/>
        <pt x="902" y="1247" on="0"/>
        <pt x="879" y="1297" on="0"/>
        <pt x="845" y="1313" on="1"/>
        <pt x="818" y="1326" on="0"/>
        <pt x="744" y="1346" on="0"/>
        <pt x="716" y="1348" on="1"/>
        <pt x="716" y="1419" on="1"/>
        <pt x="1304" y="1419" on="1"/>
        <pt x="1304" y="1348" on="1"/>
        <pt x="1276" y="1347" on="0"/>
        <pt x="1192" y="1331" on="0"/>
        <pt x="1172" y="1324" on="1"/>
        <pt x="1138" y="1312" on="0"/>
        <pt x="1114" y="1256" on="0"/>
        <pt x="1114" y="1223" on="1"/>
        <pt x="1114" y="737" on="1"/>
        <pt x="1194" y="737" on="1"/>
        <pt x="1231" y="737" on="0"/>
        <pt x="1302" y="769" on="0"/>
        <pt x="1332" y="800" on="1"/>
        <pt x="1375" y="844" on="0"/>
        <pt x="1429" y="979" on="0"/>
        <pt x="1454" y="1061" on="1"/>
        <pt x="1477" y="1136" on="0"/>
        <pt x="1544" y="1292" on="0"/>
        <pt x="1596" y="1346" on="1"/>
        <pt x="1635" y="1386" on="0"/>
        <pt x="1741" y="1432" on="0"/>
        <pt x="1803" y="1432" on="1"/>
        <pt x="1846" y="1432" on="0"/>
        <pt x="1910" y="1411" on="0"/>
        <pt x="1932" y="1392" on="1"/>
        <pt x="1952" y="1375" on="0"/>
        <pt x="1972" y="1329" on="0"/>
        <pt x="1972" y="1302" on="1"/>
        <pt x="1972" y="1280" on="0"/>
        <pt x="1959" y="1238" on="0"/>
        <pt x="1947" y="1224" on="1"/>
        <pt x="1933" y="1207" on="0"/>
        <pt x="1899" y="1188" on="0"/>
        <pt x="1868" y="1188" on="1"/>
        <pt x="1835" y="1188" on="0"/>
        <pt x="1786" y="1210" on="0"/>
        <pt x="1768" y="1229" on="1"/>
        <pt x="1750" y="1248" on="0"/>
        <pt x="1721" y="1299" on="0"/>
        <pt x="1708" y="1325" on="1"/>
        <pt x="1680" y="1307" on="0"/>
        <pt x="1641" y="1252" on="0"/>
        <pt x="1626" y="1220" on="1"/>
        <pt x="1613" y="1192" on="0"/>
        <pt x="1586" y="1101" on="0"/>
        <pt x="1576" y="1071" on="1"/>
        <pt x="1566" y="1038" on="0"/>
        <pt x="1532" y="938" on="0"/>
        <pt x="1514" y="903" on="1"/>
        <pt x="1493" y="861" on="0"/>
        <pt x="1434" y="777" on="0"/>
        <pt x="1393" y="740" on="1"/>
        <pt x="1393" y="726" on="1"/>
        <pt x="1499" y="696" on="0"/>
        <pt x="1647" y="559" on="0"/>
        <pt x="1696" y="452" on="1"/>
        <pt x="1724" y="391" on="0"/>
        <pt x="1791" y="250" on="0"/>
        <pt x="1813" y="201" on="1"/>
        <pt x="1837" y="149" on="0"/>
        <pt x="1891" y="94" on="0"/>
        <pt x="1923" y="87" on="1"/>
        <pt x="1953" y="81" on="0"/>
        <pt x="2018" y="73" on="0"/>
        <pt x="2040" y="71" on="1"/>
      </contour>
    </TTGlyph>
    <TTGlyph name="afii10025" xMin="42" yMin="-33" xMax="1160" yMax="1450">
      <contour>
        <pt x="1020" y="681" on="1"/>
        <pt x="1082" y="639" on="0"/>
        <pt x="1160" y="513" on="0"/>
        <pt x="1160" y="413" on="1"/>
        <pt x="1160" y="216" on="0"/>
        <pt x="818" y="-33" on="0"/>
        <pt x="547" y="-33" on="1"/>
        <pt x="423" y="-33" on="0"/>
        <pt x="235" y="26" on="0"/>
        <pt x="172" y="72" on="1"/>
        <pt x="108" y="120" on="0"/>
        <pt x="42" y="241" on="0"/>
        <pt x="42" y="307" on="1"/>
        <pt x="42" y="363" on="0"/>
        <pt x="102" y="449" on="0"/>
        <pt x="159" y="449" on="1"/>
        <pt x="224" y="449" on="0"/>
        <pt x="287" y="385" on="0"/>
        <pt x="287" y="339" on="1"/>
        <pt x="287" y="305" on="0"/>
        <pt x="259" y="195" on="0"/>
        <pt x="253" y="174" on="1"/>
        <pt x="261" y="162" on="0"/>
        <pt x="308" y="120" on="0"/>
        <pt x="344" y="101" on="1"/>
        <pt x="379" y="81" on="0"/>
        <pt x="482" y="52" on="0"/>
        <pt x="546" y="52" on="1"/>
        <pt x="619" y="52" on="0"/>
        <pt x="755" y="93" on="0"/>
        <pt x="804" y="135" on="1"/>
        <pt x="855" y="179" on="0"/>
        <pt x="914" y="310" on="0"/>
        <pt x="914" y="407" on="1"/>
        <pt x="914" y="458" on="0"/>
        <pt x="887" y="565" on="0"/>
        <pt x="854" y="604" on="1"/>
        <pt x="819" y="645" on="0"/>
        <pt x="700" y="695" on="0"/>
        <pt x="607" y="695" on="1"/>
        <pt x="463" y="695" on="1"/>
        <pt x="463" y="802" on="1"/>
        <pt x="569" y="802" on="1"/>
        <pt x="724" y="802" on="0"/>
        <pt x="860" y="960" on="0"/>
        <pt x="860" y="1115" on="1"/>
        <pt x="860" y="1168" on="0"/>
        <pt x="834" y="1258" on="0"/>
        <pt x="806" y="1291" on="1"/>
        <pt x="777" y="1325" on="0"/>
        <pt x="684" y="1365" on="0"/>
        <pt x="616" y="1365" on="1"/>
        <pt x="521" y="1365" on="0"/>
        <pt x="387" y="1290" on="0"/>
        <pt x="339" y="1223" on="1"/>
        <pt x="294" y="1161" on="0"/>
        <pt x="238" y="992" on="0"/>
        <pt x="219" y="913" on="1"/>
        <pt x="137" y="913" on="1"/>
        <pt x="145" y="1419" on="1"/>
        <pt x="225" y="1419" on="1"/>
        <pt x="267" y="1351" on="1"/>
        <pt x="330" y="1390" on="0"/>
        <pt x="529" y="1450" on="0"/>
        <pt x="637" y="1450" on="1"/>
        <pt x="750" y="1450" on="0"/>
        <pt x="950" y="1393" on="0"/>
        <pt x="1018" y="1324" on="1"/>
        <pt x="1068" y="1271" on="0"/>
        <pt x="1102" y="1159" on="0"/>
        <pt x="1102" y="1121" on="1"/>
        <pt x="1102" y="1076" on="0"/>
        <pt x="1070" y="970" on="0"/>
        <pt x="1029" y="923" on="1"/>
        <pt x="989" y="876" on="0"/>
        <pt x="857" y="797" on="0"/>
        <pt x="760" y="773" on="1"/>
        <pt x="760" y="760" on="1"/>
        <pt x="819" y="758" on="0"/>
        <pt x="962" y="720" on="0"/>
      </contour>
    </TTGlyph>
    <TTGlyph name="afii10026" xMin="98" yMin="0" xMax="1574" yMax="1419">
      <contour>
        <pt x="1574" y="0" on="1"/>
        <pt x="987" y="0" on="1"/>
        <pt x="987" y="71" on="1"/>
        <pt x="1011" y="73" on="0"/>
        <pt x="1104" y="81" on="0"/>
        <pt x="1121" y="89" on="1"/>
        <pt x="1151" y="101" on="0"/>
        <pt x="1179" y="150" on="0"/>
        <pt x="1179" y="189" on="1"/>
        <pt x="1179" y="1074" on="1"/>
        <pt x="493" y="218" on="1"/>
        <pt x="493" y="195" on="1"/>
        <pt x="493" y="160" on="0"/>
        <pt x="516" y="117" on="0"/>
        <pt x="550" y="99" on="1"/>
        <pt x="567" y="90" on="0"/>
        <pt x="659" y="72" on="0"/>
        <pt x="685" y="71" on="1"/>
        <pt x="685" y="0" on="1"/>
        <pt x="98" y="0" on="1"/>
        <pt x="98" y="71" on="1"/>
        <pt x="122" y="73" on="0"/>
        <pt x="213" y="81" on="0"/>
        <pt x="230" y="89" on="1"/>
        <pt x="260" y="101" on="0"/>
        <pt x="288" y="150" on="0"/>
        <pt x="288" y="189" on="1"/>
        <pt x="288" y="1213" on="1"/>
        <pt x="288" y="1245" on="0"/>
        <pt x="262" y="1298" on="0"/>
        <pt x="230" y="1313" on="1"/>
        <pt x="203" y="1326" on="0"/>
        <pt x="126" y="1346" on="0"/>
        <pt x="98" y="1348" on="1"/>
        <pt x="98" y="1419" on="1"/>
        <pt x="685" y="1419" on="1"/>
        <pt x="685" y="1348" on="1"/>
        <pt x="657" y="1347" on="0"/>
        <pt x="574" y="1331" on="0"/>
        <pt x="554" y="1324" on="1"/>
        <pt x="520" y="1312" on="0"/>
        <pt x="497" y="1256" on="0"/>
        <pt x="497" y="1223" on="1"/>
        <pt x="497" y="360" on="1"/>
        <pt x="1183" y="1215" on="1"/>
        <pt x="1183" y="1251" on="0"/>
        <pt x="1157" y="1298" on="0"/>
        <pt x="1125" y="1313" on="1"/>
        <pt x="1100" y="1325" on="0"/>
        <pt x="1012" y="1346" on="0"/>
        <pt x="987" y="1348" on="1"/>
        <pt x="987" y="1419" on="1"/>
        <pt x="1574" y="1419" on="1"/>
        <pt x="1574" y="1348" on="1"/>
        <pt x="1546" y="1347" on="0"/>
        <pt x="1465" y="1331" on="0"/>
        <pt x="1445" y="1324" on="1"/>
        <pt x="1411" y="1312" on="0"/>
        <pt x="1388" y="1256" on="0"/>
        <pt x="1388" y="1223" on="1"/>
        <pt x="1388" y="200" on="1"/>
        <pt x="1388" y="165" on="0"/>
        <pt x="1411" y="117" on="0"/>
        <pt x="1445" y="99" on="1"/>
        <pt x="1462" y="90" on="0"/>
        <pt x="1549" y="72" on="0"/>
        <pt x="1574" y="71" on="1"/>
      </contour>
    </TTGlyph>
    <TTGlyph name="afii10027" xMin="98" yMin="0" xMax="1574" yMax="1868">
      <contour>
        <pt x="1574" y="0" on="1"/>
        <pt x="987" y="0" on="1"/>
        <pt x="987" y="71" on="1"/>
        <pt x="1011" y="73" on="0"/>
        <pt x="1104" y="81" on="0"/>
        <pt x="1121" y="89" on="1"/>
        <pt x="1151" y="101" on="0"/>
        <pt x="1179" y="150" on="0"/>
        <pt x="1179" y="189" on="1"/>
        <pt x="1179" y="1074" on="1"/>
        <pt x="493" y="218" on="1"/>
        <pt x="493" y="195" on="1"/>
        <pt x="493" y="160" on="0"/>
        <pt x="516" y="117" on="0"/>
        <pt x="550" y="99" on="1"/>
        <pt x="567" y="90" on="0"/>
        <pt x="659" y="72" on="0"/>
        <pt x="685" y="71" on="1"/>
        <pt x="685" y="0" on="1"/>
        <pt x="98" y="0" on="1"/>
        <pt x="98" y="71" on="1"/>
        <pt x="122" y="73" on="0"/>
        <pt x="213" y="81" on="0"/>
        <pt x="230" y="89" on="1"/>
        <pt x="260" y="101" on="0"/>
        <pt x="288" y="150" on="0"/>
        <pt x="288" y="189" on="1"/>
        <pt x="288" y="1213" on="1"/>
        <pt x="288" y="1245" on="0"/>
        <pt x="262" y="1298" on="0"/>
        <pt x="230" y="1313" on="1"/>
        <pt x="203" y="1326" on="0"/>
        <pt x="126" y="1346" on="0"/>
        <pt x="98" y="1348" on="1"/>
        <pt x="98" y="1419" on="1"/>
        <pt x="685" y="1419" on="1"/>
        <pt x="685" y="1348" on="1"/>
        <pt x="657" y="1347" on="0"/>
        <pt x="574" y="1331" on="0"/>
        <pt x="554" y="1324" on="1"/>
        <pt x="520" y="1312" on="0"/>
        <pt x="497" y="1256" on="0"/>
        <pt x="497" y="1223" on="1"/>
        <pt x="497" y="360" on="1"/>
        <pt x="1183" y="1215" on="1"/>
        <pt x="1183" y="1251" on="0"/>
        <pt x="1157" y="1298" on="0"/>
        <pt x="1125" y="1313" on="1"/>
        <pt x="1100" y="1325" on="0"/>
        <pt x="1012" y="1346" on="0"/>
        <pt x="987" y="1348" on="1"/>
        <pt x="987" y="1419" on="1"/>
        <pt x="1574" y="1419" on="1"/>
        <pt x="1574" y="1348" on="1"/>
        <pt x="1546" y="1347" on="0"/>
        <pt x="1465" y="1331" on="0"/>
        <pt x="1445" y="1324" on="1"/>
        <pt x="1411" y="1312" on="0"/>
        <pt x="1388" y="1256" on="0"/>
        <pt x="1388" y="1223" on="1"/>
        <pt x="1388" y="200" on="1"/>
        <pt x="1388" y="165" on="0"/>
        <pt x="1411" y="117" on="0"/>
        <pt x="1445" y="99" on="1"/>
        <pt x="1462" y="90" on="0"/>
        <pt x="1549" y="72" on="0"/>
        <pt x="1574" y="71" on="1"/>
      </contour>
      <contour>
        <pt x="1062" y="1650" on="1"/>
        <pt x="1053" y="1671" on="0"/>
        <pt x="1027" y="1742" on="0"/>
        <pt x="1027" y="1770" on="1"/>
        <pt x="1027" y="1822" on="0"/>
        <pt x="1094" y="1868" on="0"/>
        <pt x="1133" y="1868" on="1"/>
        <pt x="1177" y="1868" on="0"/>
        <pt x="1232" y="1804" on="0"/>
        <pt x="1232" y="1754" on="1"/>
        <pt x="1232" y="1721" on="0"/>
        <pt x="1191" y="1633" on="0"/>
        <pt x="1150" y="1601" on="1"/>
        <pt x="1102" y="1564" on="0"/>
        <pt x="967" y="1519" on="0"/>
        <pt x="848" y="1519" on="1"/>
        <pt x="742" y="1519" on="0"/>
        <pt x="593" y="1566" on="0"/>
        <pt x="549" y="1601" on="1"/>
        <pt x="506" y="1635" on="0"/>
        <pt x="467" y="1717" on="0"/>
        <pt x="467" y="1754" on="1"/>
        <pt x="467" y="1804" on="0"/>
        <pt x="522" y="1868" on="0"/>
        <pt x="565" y="1868" on="1"/>
        <pt x="605" y="1868" on="0"/>
        <pt x="672" y="1824" on="0"/>
        <pt x="672" y="1770" on="1"/>
        <pt x="672" y="1739" on="0"/>
        <pt x="648" y="1676" on="0"/>
        <pt x="637" y="1650" on="1"/>
        <pt x="679" y="1610" on="0"/>
        <pt x="795" y="1587" on="0"/>
        <pt x="848" y="1587" on="1"/>
        <pt x="897" y="1587" on="0"/>
        <pt x="1021" y="1612" on="0"/>
      </contour>
    </TTGlyph>
</ttFont>
